<?xml version="1.0" encoding="UTF-8"?>
<svg id="Laag_1" xmlns="http://www.w3.org/2000/svg" version="1.1" viewBox="0 0 3000 1000">
  <!-- Generator: Adobe Illustrator 30.2.1, SVG Export Plug-In . SVG Version: 2.1.1 Build 1)  -->
  <defs>
    <style>
      .st0 {
        fill: #ffe20d;
      }

      .st1 {
        fill: #2f2f2f;
      }
    </style>
  </defs>
  <polygon class="st0" points="423.33 458.23 300.43 458.15 300.31 290.15 129.99 460.46 129.99 460.46 129.99 460.46 252.9 460.54 253.02 628.55 423.33 458.23 423.33 458.23 423.33 458.23"/>
  <path class="st1" d="M721.41,324.73c31.67,0,60.91,7.83,87.73,23.48,26.83,15.64,48.11,36.83,63.85,63.56,15.75,26.72,23.63,56.02,23.63,87.88s-7.83,61.52-23.48,88.44c-15.66,26.92-36.89,48.25-63.71,64-26.82,15.74-56.16,23.6-88.02,23.6-35.21,0-64.45-10.9-87.73-32.71l-7,16.77c-2.42,5.78-6.7,8.67-12.85,8.67h-55.6c-7.45,0-11.17-3.72-11.17-11.17V242.29c0-7.44,3.72-11.17,11.17-11.17h72.65c7.46,0,11.19,3.72,11.19,11.17v107.85c21.79-16.94,48.24-25.42,79.35-25.42ZM719.74,584.88c15.64,0,29.65-3.58,42.04-10.75,12.39-7.18,22.11-17.1,29.19-29.77,7.08-12.67,10.63-27.1,10.63-43.31s-3.58-30.83-10.75-43.88-17.04-23.23-29.63-30.58c-12.57-7.36-26.58-11.04-42.04-11.04s-29.53,3.73-42.21,11.19c-12.67,7.45-22.64,17.64-29.9,30.58-7.27,12.95-10.9,27.52-10.9,43.73s3.68,30.41,11.04,43.17c7.36,12.77,17.42,22.74,30.17,29.92,12.76,7.17,26.88,10.75,42.35,10.75Z"/>
  <path class="st1" d="M1106.81,676.79c-32.79,0-62.83-7.82-90.13-23.46-27.29-15.65-48.91-36.89-64.83-63.71-15.92-26.83-23.88-56.17-23.88-88.02s8.01-62.13,24.02-89.15c16.03-27.01,37.78-48.39,65.25-64.13,27.47-15.73,57.6-23.6,90.4-23.6s63.19,7.87,90.67,23.6c27.48,15.74,49.23,37.11,65.25,64.13,16.01,27.02,24.02,56.73,24.02,89.15s-8.06,61.19-24.17,88.02c-16.11,26.82-38,48.06-65.67,63.71-27.66,15.64-57.97,23.46-90.94,23.46ZM1107.91,585.98c15.47,0,29.68-3.72,42.63-11.17,12.94-7.46,23.19-17.66,30.73-30.6,7.54-12.94,11.31-27.33,11.31-43.17s-3.77-30.54-11.31-43.58-17.79-23.28-30.73-30.73c-12.95-7.46-27.16-11.19-42.63-11.19s-29.94,3.73-42.9,11.19c-12.95,7.45-23.19,17.69-30.73,30.73s-11.31,27.57-11.31,43.58,3.77,30.22,11.31,43.17c7.54,12.95,17.78,23.15,30.73,30.6,12.96,7.45,27.26,11.17,42.9,11.17Z"/>
  <path class="st1" d="M1499.51,676.79c-32.79,0-62.83-7.82-90.13-23.46-27.29-15.65-48.91-36.89-64.83-63.71-15.92-26.83-23.88-56.17-23.88-88.02s8.01-62.13,24.02-89.15c16.03-27.01,37.78-48.39,65.25-64.13,27.47-15.73,57.6-23.6,90.4-23.6s63.19,7.87,90.67,23.6c27.48,15.74,49.23,37.11,65.25,64.13,16.01,27.02,24.02,56.73,24.02,89.15s-8.06,61.19-24.17,88.02c-16.11,26.82-38,48.06-65.67,63.71-27.66,15.64-57.97,23.46-90.94,23.46ZM1500.62,585.98c15.47,0,29.68-3.72,42.63-11.17,12.94-7.46,23.19-17.66,30.73-30.6,7.54-12.94,11.31-27.33,11.31-43.17s-3.77-30.54-11.31-43.58-17.79-23.28-30.73-30.73c-12.95-7.46-27.16-11.19-42.63-11.19s-29.94,3.73-42.9,11.19c-12.95,7.45-23.19,17.69-30.73,30.73s-11.31,27.57-11.31,43.58,3.77,30.22,11.31,43.17c7.54,12.95,17.78,23.15,30.73,30.6,12.96,7.45,27.26,11.17,42.9,11.17Z"/>
  <path class="st1" d="M1838.41,676.79c-26.45,0-50.8-4.43-73.06-13.27-22.27-8.84-43.08-21.84-62.46-38.98-2.97-2.42-4.46-5.11-4.46-8.1,0-2.42,1.02-4.93,3.06-7.54l37.73-47.23c2.61-3.17,5.31-4.75,8.1-4.75,2.04,0,4.55,1.03,7.54,3.08,13.59,10.25,27.05,18.17,40.38,23.75,13.32,5.58,26.78,8.38,40.38,8.38,9.32,0,16.77-1.81,22.35-5.44,5.59-3.64,8.4-8.81,8.4-15.52,0-4.46-1.64-8.55-4.9-12.27-3.27-3.73-8.91-7.51-16.92-11.33-8-3.82-19.36-8.24-34.08-13.27-28.13-9.5-51.32-22.44-69.58-38.83-18.25-16.4-27.38-38.94-27.38-67.63,0-18.25,4.51-35.2,13.54-50.85,9.04-15.65,22.82-28.27,41.35-37.85,18.54-9.59,41.32-14.4,68.33-14.4,18.63,0,37.76,3.68,57.42,11.04,19.65,7.35,37.02,18.29,52.1,32.83,2.61,2.6,3.92,5.2,3.92,7.81,0,2.24-1.31,4.85-3.92,7.83l-44.15,45.54c-2.42,2.61-5.02,3.92-7.81,3.92-2.43,0-5.04-1.11-7.83-3.35-7.64-6.15-16.07-11.23-25.29-15.23-9.22-4.01-18.4-6.02-27.52-6.02s-16.72,1.77-21.67,5.31c-4.93,3.54-7.4,8.39-7.4,14.54,0,4.28,1.81,8.14,5.44,11.58,3.64,3.45,9.46,6.9,17.48,10.35,8.01,3.45,19.19,7.49,33.54,12.15,30.73,9.88,54.48,23.1,71.25,39.69,16.76,16.57,25.15,39.02,25.15,67.33,0,18.45-4.71,35.82-14.13,52.13-9.41,16.29-23.09,29.47-41.06,39.52-17.97,10.05-39.26,15.08-63.85,15.08Z"/>
  <path class="st1" d="M2122.66,657.25c0,7.45-3.72,11.17-11.17,11.17h-72.67c-7.45,0-11.17-3.72-11.17-11.17v-238.92h-27.94c-7.46,0-11.19-3.73-11.19-11.19v-65.65c0-7.46,3.73-11.19,11.19-11.19h27.38v-60.92c0-6.89,3.35-10.98,10.06-12.29l73.48-14.25c.75-.18,1.68-.27,2.79-.27,2.98,0,5.31.93,6.98,2.79,1.68,1.86,2.52,4.38,2.52,7.54v77.4h52.54c7.44,0,11.17,3.73,11.17,11.19v65.65c0,7.46-3.72,11.19-11.17,11.19h-52.81v238.92Z"/>
  <path class="st1" d="M2378.06,676.79c-33.72,0-64-7.92-90.83-23.75-26.82-15.83-47.73-37.16-62.73-63.98-14.99-26.82-22.48-56.07-22.48-87.75s7.13-61.52,21.38-88.44,34.13-48.33,59.65-64.25c25.53-15.93,54.5-23.9,86.92-23.9,35.01,0,65.38,7.55,91.08,22.65,25.71,15.08,45.31,35.95,58.81,62.58,13.51,26.64,20.27,56.91,20.27,90.81,0,7.45-.38,14.8-1.13,22.06-.75,6.89-4.66,10.33-11.73,10.33h-227.73c6.14,18.64,16.66,33.18,31.56,43.6,14.9,10.43,31.85,15.65,50.85,15.65,12.11,0,23.05-1.72,32.83-5.17,9.78-3.44,19.32-8.43,28.65-14.96,2.42-1.86,4.84-2.79,7.27-2.79,2.97,0,5.67,1.68,8.1,5.02l34.35,48.92c1.68,2.42,2.52,4.74,2.52,6.98,0,3.17-1.49,5.96-4.46,8.38-15.47,12.11-32.76,21.47-51.85,28.08-19.08,6.61-39.52,9.92-61.31,9.92ZM2446.22,463.31c-5.21-18.44-14.15-32.59-26.81-42.46-12.67-9.88-28.14-14.81-46.4-14.81s-33.39,5.03-46.52,15.08c-13.14,10.06-22.41,24.12-27.81,42.19h147.54Z"/>
  <path class="st1" d="M2756.04,324.73c22.92,0,45.55,6.61,67.9,19.83,3.92,2.42,5.88,5.4,5.88,8.94,0,2.06-.56,4.2-1.67,6.44l-32.15,60.35c-2.24,4.1-5.13,6.15-8.67,6.15-2.24,0-4.38-.65-6.42-1.96-13.42-7.44-26.27-11.17-38.56-11.17s-22.96,3.35-33.67,10.06c-10.71,6.7-19.42,16.61-26.13,29.75-6.71,13.13-10.06,28.91-10.06,47.35v156.77c0,7.45-3.73,11.17-11.19,11.17h-72.65c-7.45,0-11.17-3.72-11.17-11.17v-315.75c0-7.46,3.72-11.19,11.17-11.19h55.6c6.15,0,10.44,2.89,12.85,8.67l13.69,32.69c8.76-14.53,20.5-25.98,35.21-34.35,14.72-8.39,31.4-12.58,50.02-12.58Z"/>
</svg>