<svg width="44" height="44" viewBox="0 0 44 44" fill="none" xmlns="http://www.w3.org/2000/svg">
<rect width="44" height="44" fill="white"/>
<path d="M15.1411 10.6972H10.5704V15.2177H15.1411V10.6972Z" fill="#FFD800"/>
<path d="M33.4263 10.6972H28.8556V15.2177H33.4263V10.6972Z" fill="#FFD800"/>
<path d="M19.7119 15.2172H10.5704V19.7377H19.7119V15.2172Z" fill="#FFAF00"/>
<path d="M33.4266 15.2172H24.2852V19.7377H33.4266V15.2172Z" fill="#FFAF00"/>
<path d="M33.4268 19.7375H10.5704V24.2578H33.4268V19.7375Z" fill="#FF8205"/>
<path d="M15.1411 24.259H10.5704V28.7795H15.1411V24.259Z" fill="#FA500F"/>
<path d="M24.2839 24.259H19.7131V28.7795H24.2839V24.259Z" fill="#FA500F"/>
<path d="M33.4263 24.259H28.8556V28.7795H33.4263V24.259Z" fill="#FA500F"/>
<path d="M19.7149 28.7823H6V33.3028H19.7149V28.7823Z" fill="#E10500"/>
<path d="M38 28.7823H24.2852V33.3028H38V28.7823Z" fill="#E10500"/>
</svg>
