<svg width="44" height="44" viewBox="0 0 44 44" fill="none" xmlns="http://www.w3.org/2000/svg">
<rect width="44" height="44" fill="white"/>
<path d="M25.5254 29.8809C24.4316 30.3799 23.2163 30.6601 21.9355 30.6602C20.6547 30.6601 19.4396 30.3799 18.3457 29.8809H25.5254ZM23.6143 28.4951C23.9366 28.7795 24.2802 29.0399 24.6426 29.2744H19.3584C19.7205 29.0401 20.0635 28.7794 20.3857 28.4951H23.6143ZM22.3799 27.1533C22.5823 27.4263 22.8017 27.6856 23.0342 27.9326H20.9668C21.1992 27.6856 21.4187 27.4263 21.6211 27.1533H22.3799ZM23.0342 16.0674C22.8015 16.3146 22.5825 16.5745 22.3799 16.8477H21.6211C21.4185 16.5745 21.1994 16.3146 20.9668 16.0674H23.0342ZM24.6445 14.7256C24.2817 14.9603 23.937 15.2201 23.6143 15.5049H20.3857C20.0631 15.2203 19.7191 14.9601 19.3564 14.7256H24.6445ZM21.9355 13.3398C23.2159 13.3399 24.4308 13.6204 25.5244 14.1191H18.3467C19.4403 13.6204 20.6551 13.3399 21.9355 13.3398Z" fill="#FF0000"/>
<path d="M17.6204 30.141C17.1477 30.3129 16.6556 30.4428 16.1487 30.5306H13.1721C12.6652 30.4428 12.1731 30.3129 11.7004 30.141H17.6204ZM20.0774 28.7552C19.9077 28.8915 19.7328 29.0215 19.553 29.1449H9.76782C9.58797 29.0215 9.41313 28.8915 9.24341 28.7552H20.0774ZM21.4534 27.3695C21.3482 27.5024 21.2399 27.6327 21.1272 27.7592H8.19458C8.08188 27.6327 7.97363 27.5024 7.86841 27.3695H21.4534ZM22.3499 25.9838C22.2814 26.1157 22.21 26.2456 22.135 26.3734H7.18677C7.11174 26.2455 7.03948 26.1158 6.97095 25.9838H22.3499ZM22.9241 24.598C22.8828 24.7293 22.8385 24.8592 22.7913 24.9877H6.52954C6.48235 24.8593 6.43891 24.7292 6.39771 24.598H22.9241ZM23.2346 23.2123C23.2163 23.3432 23.1943 23.473 23.1702 23.6019H6.15063C6.12651 23.473 6.10452 23.3432 6.08618 23.2123H23.2346ZM23.3206 22.0004C23.3206 22.0729 23.3174 22.1451 23.3157 22.2172H6.0061C6.00433 22.1451 6.00025 22.0729 6.00024 22.0004C6.00024 21.9423 6.00399 21.8843 6.00513 21.8265H23.3167C23.3178 21.8843 23.3206 21.9423 23.3206 22.0004ZM23.178 20.4418C23.2014 20.5708 23.2228 20.7005 23.2405 20.8314H6.0813C6.09896 20.7006 6.11938 20.5707 6.14282 20.4418H23.178ZM22.8069 19.056C22.8534 19.1846 22.8973 19.3144 22.9377 19.4457H6.38403C6.42451 19.3144 6.46842 19.1846 6.51489 19.056H22.8069ZM22.1594 17.6703C22.2335 17.7983 22.3047 17.9279 22.3723 18.0599H6.94946C7.01698 17.9281 7.08741 17.7981 7.16138 17.6703H22.1594ZM21.1643 16.2845C21.2756 16.4111 21.3827 16.5412 21.4866 16.6742H7.83423C7.93823 16.5411 8.04602 16.4113 8.15747 16.2845H21.1643ZM19.6155 14.8988C19.7925 15.0226 19.9651 15.1521 20.1321 15.2885H9.18872C9.35573 15.1521 9.52829 15.0226 9.70532 14.8988H19.6155ZM16.3889 13.5131C16.8512 13.6067 17.2993 13.7386 17.7317 13.9027H11.5891C12.0214 13.7386 12.4696 13.6067 12.9319 13.5131H16.3889Z" fill="#FF0000"/>
<path d="M33.0253 29.8379C31.9069 30.3647 30.6579 30.6602 29.3397 30.6602C28.0215 30.6601 26.7726 30.3648 25.6542 29.8379H33.0253ZM35.1151 28.4521C34.6977 28.8261 34.2441 29.1602 33.7596 29.4482H24.9208C24.4361 29.16 23.982 28.8263 23.5643 28.4521H35.1151ZM36.3622 27.0664C36.1071 27.4194 35.8265 27.7523 35.5223 28.0625H23.1571C22.8531 27.7525 22.5732 27.4192 22.3182 27.0664H36.3622ZM37.1796 25.6807C37.0172 26.0259 36.8326 26.3583 36.6278 26.6768H22.0526C21.8478 26.3583 21.6632 26.0259 21.5009 25.6807H37.1796ZM37.6903 24.2949C37.5968 24.6359 37.4832 24.9682 37.3505 25.291H21.329C21.1962 24.9682 21.0826 24.6359 20.9891 24.2949H37.6903ZM37.953 22.9092C37.9177 23.2476 37.8601 23.5796 37.787 23.9053H20.8925C20.8193 23.5796 20.7627 23.2476 20.7274 22.9092H37.953ZM37.9872 21.5234C37.9957 21.6812 37.9999 21.8401 37.9999 22C37.9999 22.1744 37.9934 22.3477 37.9833 22.5195H20.6971C20.687 22.3477 20.6796 22.1744 20.6796 22C20.6796 21.8401 20.6847 21.6812 20.6932 21.5234H37.9872ZM37.7977 20.1387C37.869 20.4641 37.9243 20.7958 37.9579 21.1338H20.7225C20.7561 20.7959 20.8104 20.464 20.8817 20.1387H37.7977ZM37.368 18.7529C37.4988 19.0759 37.6114 19.408 37.703 19.749H20.9764C21.068 19.4081 21.1806 19.0759 21.3114 18.7529H37.368ZM36.6552 17.3672C36.8574 17.6858 37.0392 18.0183 37.1991 18.3633H21.4803C21.6403 18.0181 21.823 17.6859 22.0253 17.3672H36.6552ZM35.5643 15.9814C35.8647 16.292 36.1419 16.6249 36.3934 16.9775H22.287C22.5385 16.625 22.8149 16.2919 23.1151 15.9814H35.5643ZM33.8339 14.5957C34.3096 14.8851 34.7551 15.2191 35.1649 15.5918H23.5145C23.9245 15.2189 24.3706 14.8852 24.8466 14.5957H33.8339ZM29.3397 13.3398C30.6944 13.3398 31.9762 13.6515 33.118 14.2061H25.5614C26.7033 13.6515 27.985 13.3399 29.3397 13.3398Z" fill="#FF0000"/>
<path d="M22.5634 25.5508C22.3992 25.9158 22.2108 26.2674 21.9999 26.6036C21.789 26.2674 21.6004 25.9158 21.4364 25.5508H22.5634ZM23.0487 24.1661C22.9374 24.5985 22.7926 25.0174 22.619 25.421H21.3807C21.2073 25.0174 21.0632 24.5984 20.952 24.1661H23.0487ZM23.286 22.7803C23.248 23.2088 23.1783 23.628 23.08 24.0362H20.9208C20.8226 23.628 20.7527 23.2088 20.7147 22.7803H23.286ZM23.2997 21.3946C23.314 21.5975 23.3212 21.8023 23.3212 22.0089C23.3212 22.2247 23.3133 22.4386 23.2977 22.6505H20.703C20.6874 22.4386 20.6796 22.2247 20.6796 22.0089C20.6796 21.8023 20.6868 21.5975 20.701 21.3946H23.2997ZM23.0868 20.0089C23.1837 20.4171 23.2513 20.8363 23.288 21.2647H20.7128C20.7494 20.8363 20.8172 20.4171 20.9139 20.0089H23.0868ZM22.6307 18.6231C22.8029 19.027 22.9457 19.4464 23.0555 19.879H20.9452C21.0549 19.4464 21.197 19.027 21.369 18.6231H22.6307ZM21.9999 17.4141C22.2158 17.7582 22.4073 18.119 22.5741 18.4932H21.4257C21.5924 18.1189 21.784 17.7582 21.9999 17.4141Z" fill="#FF0000"/>
<path d="M20.2329 28.6256C19.955 28.8594 19.663 29.0771 19.3569 29.275H17.2378C16.9317 29.0771 16.6397 28.8595 16.3618 28.6256H20.2329ZM21.5542 27.2399C21.3825 27.4653 21.1999 27.682 21.0073 27.8893H15.5874C15.3949 27.682 15.2122 27.4653 15.0405 27.2399H21.5542ZM22.4165 25.8541C22.3058 26.0762 22.1858 26.2928 22.0571 26.5035H14.5386C14.4099 26.2928 14.2899 26.0762 14.1792 25.8541H22.4165ZM22.9634 24.4684C22.898 24.6886 22.8247 24.9053 22.7427 25.1178H13.854C13.7719 24.9053 13.6987 24.6886 13.6333 24.4684H22.9634ZM23.2524 23.0826C23.2251 23.3018 23.1894 23.5183 23.146 23.7321H13.4497C13.4063 23.5183 13.3706 23.3018 13.3433 23.0826H23.2524ZM23.3208 22.0006C23.3208 22.1164 23.3185 22.2316 23.314 22.3463H13.2817C13.2772 22.2316 13.2749 22.1164 13.2749 22.0006C13.2749 21.899 13.2773 21.7976 13.2808 21.6969H23.3149C23.3184 21.7976 23.3208 21.899 23.3208 22.0006ZM23.1548 20.3112C23.1971 20.5249 23.2311 20.7415 23.2573 20.9606H13.3384C13.3646 20.7415 13.3986 20.5249 13.4409 20.3112H23.1548ZM22.7749 18.9694C22.8544 19.1819 22.9249 19.3987 22.9878 19.6188H13.6079C13.6708 19.3987 13.7413 19.1819 13.8208 18.9694H22.7749ZM22.1099 17.5836C22.2352 17.7944 22.3511 18.0112 22.4585 18.233H14.1372C14.2445 18.0113 14.3597 17.7943 14.4849 17.5836H22.1099ZM21.0864 16.1979C21.2741 16.4055 21.4516 16.6222 21.6187 16.8473H14.9761C15.1432 16.622 15.3215 16.4056 15.5093 16.1979H21.0864ZM19.4878 14.8121C19.7841 15.0115 20.0676 15.2281 20.3364 15.4615H16.2583C16.527 15.2281 16.8107 15.0115 17.1069 14.8121H19.4878Z" fill="#FF0000"/>
<path d="M27.7567 28.4088C27.2839 28.8383 26.7643 29.2172 26.205 29.5347H25.0712C24.5116 29.2171 23.9914 28.8385 23.5184 28.4088H27.7567ZM28.9891 27.023C28.702 27.4253 28.3813 27.802 28.0311 28.149H23.244C22.8938 27.802 22.5732 27.4253 22.286 27.023H28.9891ZM29.7968 25.6373C29.6148 26.0296 29.4032 26.4054 29.1669 26.7632H22.1083C21.8719 26.4054 21.6603 26.0296 21.4784 25.6373H29.7968ZM30.2987 24.2515C30.1948 24.6381 30.066 25.0143 29.912 25.3775H21.3632C21.2091 25.0143 21.0803 24.6381 20.9764 24.2515H30.2987ZM30.5516 22.8658C30.5136 23.2491 30.4505 23.6248 30.3641 23.9918H20.911C20.8246 23.6249 20.7616 23.2491 20.7235 22.8658H30.5516ZM30.579 21.481C30.5892 21.6529 30.5956 21.8261 30.5956 22.0005C30.5956 22.2041 30.5879 22.406 30.5741 22.606H20.701C20.6872 22.406 20.6796 22.2041 20.6796 22.0005C20.6796 21.8261 20.686 21.6529 20.6962 21.481H30.579ZM30.3856 20.0953C30.468 20.4623 30.5253 20.8383 30.5594 21.2213H20.7157C20.7499 20.8383 20.8071 20.4623 20.8895 20.0953H30.3856ZM29.9471 18.7095C30.0967 19.0732 30.2226 19.449 30.3221 19.8355H20.953C21.0525 19.449 21.1785 19.0732 21.328 18.7095H29.9471ZM29.2245 17.3238C29.4548 17.682 29.6595 18.058 29.8358 18.4498H21.4393C21.6157 18.0581 21.8204 17.682 22.0507 17.3238H29.2245ZM28.118 15.938C28.4595 16.2862 28.7725 16.6624 29.0516 17.064H22.2235C22.5027 16.6624 22.8157 16.2862 23.1571 15.938H28.118ZM26.3544 14.5523C26.8944 14.8734 27.3965 15.2514 27.8524 15.6783H23.4227C23.8787 15.2514 24.3807 14.8734 24.9208 14.5523H26.3544Z" fill="#FF0000"/>
</svg>
