<svg width="44" height="44" viewBox="0 0 44 44" fill="none" xmlns="http://www.w3.org/2000/svg">
<rect width="44" height="44" fill="white"/>
<mask id="mask0_2357_58266" style="mask-type:luminance" maskUnits="userSpaceOnUse" x="8" y="8" width="28" height="28">
<path d="M36 8.12495H8V35.875H36V8.12495Z" fill="white"/>
</mask>
<g mask="url(#mask0_2357_58266)">
<path d="M18.7393 18.2259V15.5897C18.7393 15.3676 18.8226 15.2011 19.0167 15.0902L24.3172 12.0377C25.0387 11.6215 25.899 11.4273 26.7868 11.4273C30.1168 11.4273 32.2259 14.0081 32.2259 16.7553C32.2259 16.9495 32.2259 17.1715 32.1981 17.3935L26.7035 14.1745C26.3706 13.9803 26.0375 13.9803 25.7045 14.1745L18.7393 18.2259ZM31.1158 28.4936V22.1942C31.1158 21.8056 30.9492 21.5281 30.6163 21.3339L23.651 17.2824L25.9265 15.978C26.1207 15.8672 26.2873 15.8672 26.4815 15.978L31.7819 19.0305C33.3083 19.9186 34.3349 21.8056 34.3349 23.637C34.3349 25.7459 33.0862 27.6885 31.1158 28.4933V28.4936ZM17.102 22.9436L14.8265 21.6116C14.6324 21.5008 14.549 21.3342 14.549 21.1121V15.0072C14.549 12.038 16.8245 9.79007 19.9049 9.79007C21.0705 9.79007 22.1525 10.1787 23.0685 10.8724L17.6018 14.036C17.2689 14.2302 17.1023 14.5076 17.1023 14.8963V22.9438L17.102 22.9436ZM22 25.774L18.7393 23.9426V20.0577L22 18.2262L25.2605 20.0577V23.9426L22 25.774ZM24.0951 34.2102C22.9295 34.2102 21.8475 33.8216 20.9315 33.1279L26.3982 29.9642C26.7311 29.7701 26.8977 29.4926 26.8977 29.1039V21.0564L29.2011 22.3884C29.3952 22.4992 29.4786 22.6658 29.4786 22.8879V28.9928C29.4786 31.962 27.1752 34.2099 24.0951 34.2099V34.2102ZM17.5182 28.0219L12.2178 24.9695C10.6914 24.0813 9.66483 22.1944 9.66483 20.363C9.66483 18.2262 10.9414 16.3115 12.9115 15.5067V21.8337C12.9115 22.2223 13.0781 22.4998 13.411 22.694L20.3487 26.7176L18.0732 28.0219C17.879 28.1328 17.7124 28.1328 17.5182 28.0219ZM17.2132 32.5729C14.0774 32.5729 11.7741 30.2141 11.7741 27.3004C11.7741 27.0783 11.8019 26.8563 11.8295 26.6343L17.2962 29.7979C17.6291 29.9921 17.9623 29.9921 18.2952 29.7979L25.2605 25.7743V28.4106C25.2605 28.6326 25.1772 28.7992 24.983 28.91L19.6826 31.9625C18.9611 32.3788 18.1008 32.5729 17.2129 32.5729H17.2132ZM24.0951 35.875C27.4529 35.875 30.2555 33.4886 30.894 30.325C34.002 29.5202 36 26.6064 36 23.6372C36 21.6946 35.1676 19.8078 33.669 18.448C33.8078 17.8652 33.8911 17.2824 33.8911 16.6999C33.8911 12.7317 30.672 9.76219 26.9534 9.76219C26.2043 9.76219 25.4828 9.87306 24.7612 10.123C23.5123 8.9019 21.7918 8.12495 19.9049 8.12495C16.5471 8.12495 13.7445 10.5113 13.106 13.6749C9.99801 14.4798 8 17.3935 8 20.3627C8 22.3053 8.83241 24.1922 10.331 25.552C10.1922 26.1348 10.1089 26.7176 10.1089 27.3001C10.1089 31.2683 13.328 34.2378 17.0465 34.2378C17.7957 34.2378 18.5172 34.1269 19.2388 33.877C20.4874 35.098 22.2079 35.875 24.0951 35.875Z" fill="black"/>
</g>
</svg>
