<svg width="1236" height="1236" viewBox="0 0 1236 1236" fill="none" xmlns="http://www.w3.org/2000/svg">
<rect width="1236" height="1236" fill="white"/>
<path d="M621.49 241.621C713.947 172.959 809.502 188.97 867.765 239.703C926.028 290.436 854.022 408.424 912.805 495.284C971.588 582.144 1138.54 589.893 1161.68 674.002C1184.83 758.112 1107.64 861.31 1028.54 915.831C949.436 970.351 851.631 929.81 766.183 946.604C680.736 963.398 668.579 998.379 601.3 999.801C534.02 1001.22 522.958 970.287 429.786 953.709C336.614 937.132 198.192 978.423 135.44 916.912C72.6886 855.402 35.8707 754.273 116.026 646.157C196.182 538.041 171.066 488.55 236.864 430.211C302.663 371.872 368.092 392.18 445.017 354.462C521.942 316.744 529.032 310.282 621.49 241.621Z" fill="#1DC5D8" fill-opacity="0.07"/>
<path d="M233.965 728.597C230.982 727.053 227.969 725.54 224.935 724.052V724.051L225.692 722.507C223.671 721.516 221.642 720.536 219.607 719.566L218.867 721.119V721.12C215.827 719.672 212.771 718.247 209.708 716.837V716.834L210.428 715.271C208.382 714.329 206.334 713.395 204.286 712.467L203.575 714.033V714.034C200.5 712.64 197.423 711.26 194.354 709.887L194.355 709.884L195.057 708.313C193 707.393 190.947 706.476 188.901 705.562L188.199 707.131C185.107 705.749 182.028 704.372 178.971 702.993V702.992L179.678 701.425C177.624 700.498 175.581 699.571 173.551 698.643L172.836 700.204C169.746 698.79 166.686 697.371 163.664 695.941L164.398 694.389C162.362 693.425 160.344 692.458 158.348 691.483L157.594 693.028C154.528 691.532 151.511 690.02 148.552 688.486L149.342 686.96C147.343 685.923 145.373 684.877 143.433 683.819L142.611 685.328C139.603 683.688 136.668 682.019 133.817 680.313L134.698 678.838C132.766 677.682 130.874 676.51 129.027 675.32L128.097 676.765C125.208 674.904 122.422 672.997 119.753 671.034L120.771 669.65C118.96 668.319 117.206 666.963 115.513 665.58L114.427 666.911C111.767 664.739 109.249 662.498 106.894 660.177L108.1 658.951C106.51 657.384 104.997 655.783 103.566 654.144L102.27 655.274V655.275C100.027 652.706 97.9771 650.04 96.1379 647.265L97.5706 646.314C96.3553 644.481 95.2354 642.6 94.218 640.669L92.6975 641.471C91.1347 638.505 89.8035 635.419 88.7239 632.199H88.7229L90.3538 631.652C90.0066 630.617 89.6857 629.567 89.3928 628.503C89.1016 627.445 88.8294 626.382 88.5754 625.316L86.9036 625.716C86.1271 622.458 85.52 619.169 85.0764 615.854L86.7805 615.626C86.4902 613.456 86.2703 611.274 86.1194 609.082L84.4075 609.2C84.1789 605.879 84.1036 602.535 84.178 599.175L85.8958 599.212C85.9442 597.025 86.0562 594.831 86.2297 592.629L84.5168 592.494C84.7776 589.186 85.1769 585.865 85.7043 582.535L87.3997 582.804C87.7421 580.642 88.1403 578.476 88.592 576.307L86.9094 575.957C87.586 572.709 88.3828 569.456 89.2903 566.202L90.9436 566.663C91.5323 564.552 92.1689 562.441 92.8518 560.329L91.2161 559.8C92.2372 556.643 93.3624 553.489 94.5813 550.341L96.1819 550.961C96.9753 548.912 97.8105 546.864 98.6848 544.82L97.1057 544.146C98.4104 541.096 99.8013 538.054 101.275 535.024L102.82 535.775C103.783 533.794 104.784 531.818 105.817 529.847L104.295 529.049C105.837 526.107 107.453 523.179 109.139 520.269L110.626 521.13C111.733 519.22 112.87 517.316 114.035 515.422L112.573 514.522C114.317 511.688 116.124 508.872 117.991 506.079L119.419 507.034C120.648 505.196 121.903 503.367 123.182 501.549L121.778 500.56C123.696 497.833 125.668 495.131 127.691 492.455L129.061 493.49C130.396 491.724 131.754 489.969 133.132 488.227L131.784 487.161C133.856 484.542 135.975 481.951 138.135 479.392L139.448 480.499C140.878 478.804 142.326 477.123 143.792 475.457L142.503 474.323C144.714 471.811 146.963 469.333 149.246 466.891L150.501 468.063C152.018 466.442 153.549 464.836 155.095 463.247L153.865 462.05C156.203 459.647 158.573 457.283 160.97 454.961L162.165 456.194C163.762 454.648 165.371 453.119 166.99 451.611L165.82 450.354C168.279 448.064 170.764 445.819 173.268 443.623L174.401 444.915C176.074 443.447 177.757 442.001 179.447 440.578L178.34 439.263C180.917 437.093 183.511 434.976 186.117 432.915L187.183 434.263C188.932 432.88 190.686 431.522 192.445 430.191L191.407 428.821C194.1 426.783 196.802 424.807 199.509 422.896L200.5 424.299C200.953 423.979 201.405 423.661 201.858 423.346L203.215 422.404C204.189 421.733 205.167 421.079 206.147 420.441L205.209 419.002C208.228 417.038 211.278 415.232 214.356 413.567L215.172 415.077C217.244 413.957 219.329 412.902 221.426 411.91L220.693 410.358C223.932 408.826 227.2 407.44 230.494 406.19L231.104 407.796C233.298 406.963 235.504 406.191 237.722 405.476L237.196 403.841C240.587 402.747 244.003 401.783 247.443 400.938L247.852 402.606C250.127 402.047 252.414 401.54 254.711 401.08L254.375 399.396C257.856 398.699 261.358 398.112 264.878 397.621L265.115 399.323C267.436 399 269.767 398.717 272.106 398.474L271.928 396.765C275.453 396.398 278.994 396.116 282.548 395.908L282.648 397.624C284.991 397.487 287.342 397.381 289.698 397.304L289.643 395.586C293.183 395.47 296.735 395.416 300.296 395.413L300.297 397.132C302.65 397.13 305.008 397.15 307.37 397.188L307.399 395.472C310.943 395.529 314.494 395.625 318.049 395.751L317.989 397.467C320.347 397.55 322.707 397.646 325.071 397.751L325.147 396.034C328.693 396.191 332.241 396.367 335.79 396.551L335.701 398.267C338.065 398.389 340.428 398.515 342.792 398.64L342.883 396.923C346.433 397.11 349.981 397.295 353.526 397.468L353.525 397.469L353.442 399.187C355.812 399.302 358.181 399.411 360.549 399.511L360.621 397.793C364.177 397.942 367.726 398.069 371.268 398.161H371.267L371.223 399.88C373.601 399.942 375.978 399.988 378.35 400.015L378.368 398.295H378.39C381.947 398.335 385.494 398.331 389.029 398.27L389.057 399.988C391.442 399.947 393.823 399.88 396.198 399.782L396.127 398.063C399.686 397.917 403.231 397.703 406.757 397.408L406.901 399.122C409.283 398.923 411.658 398.687 414.025 398.41L413.824 396.702C417.36 396.289 420.876 395.783 424.369 395.172L424.665 396.866C425.843 396.66 427.019 396.442 428.192 396.212C429.316 395.991 430.425 395.766 431.521 395.538L431.171 393.854C434.543 393.152 437.779 392.416 440.89 391.652L441.3 393.322C443.531 392.774 445.7 392.212 447.809 391.637L447.356 389.978V389.977C450.704 389.063 453.902 388.117 456.966 387.145L457.486 388.784C459.67 388.091 461.787 387.384 463.842 386.667L463.277 385.044C466.552 383.901 469.669 382.73 472.655 381.543V381.544L473.29 383.143C475.429 382.293 477.499 381.434 479.511 380.571L478.832 378.99V378.988C482.007 377.626 485.036 376.254 487.954 374.881L488.686 376.438C490.747 375.468 492.752 374.5 494.713 373.539L493.956 371.995V371.994C497.032 370.487 500.004 368.996 502.921 367.539L503.69 369.077C505.701 368.073 507.681 367.086 509.65 366.124L508.895 364.581C511.918 363.103 514.918 361.679 517.951 360.331L518.649 361.9C520.658 361.008 522.679 360.151 524.729 359.335L524.093 357.737C527.148 356.522 530.272 355.395 533.521 354.38L534.033 356.021C536.084 355.379 538.185 354.784 540.349 354.238L539.93 352.572C543.053 351.786 546.307 351.102 549.735 350.539L550.013 352.234C552.109 351.89 554.273 351.592 556.513 351.343L556.323 349.635C559.49 349.282 562.805 349.029 566.295 348.883L566.365 350.599C566.911 350.576 567.462 350.556 568.017 350.539L569.695 350.495C570.852 350.471 571.991 350.457 573.11 350.455L573.107 348.736C576.697 348.729 580.098 348.833 583.342 349.037L583.234 350.752C585.549 350.898 587.782 351.096 589.944 351.342L590.138 349.635C593.681 350.037 597.04 350.566 600.265 351.205L599.931 352.892C602.178 353.337 604.359 353.837 606.492 354.385L606.92 352.72C610.289 353.585 613.537 354.571 616.733 355.651L616.182 357.279C618.318 358.001 620.432 358.768 622.547 359.572L623.158 357.967C626.312 359.167 629.458 360.448 632.663 361.787L632 363.371C634.064 364.233 636.154 365.12 638.291 366.027L638.963 364.444C642.005 365.735 645.132 367.063 648.399 368.41L647.742 369.999C649.807 370.851 651.928 371.711 654.118 372.574L654.749 370.975H654.75C657.798 372.176 660.98 373.383 664.328 374.586L664.327 374.588L663.746 376.206C665.837 376.957 667.994 377.707 670.224 378.451L670.77 376.819C673.877 377.856 677.128 378.88 680.546 379.89L680.545 379.893L680.058 381.542C682.193 382.172 684.393 382.796 686.663 383.411L687.114 381.751H687.115C690.289 382.611 693.602 383.452 697.07 384.272L697.069 384.273L696.673 385.947C698.844 386.461 701.074 386.965 703.368 387.46L703.732 385.778L703.733 385.777C706.943 386.469 710.28 387.143 713.752 387.792H713.751L713.435 389.482C714.561 389.693 715.702 389.901 716.858 390.106L718.57 390.403C719.142 390.5 719.716 390.593 720.292 390.685L720.562 388.985L720.563 388.984C723.944 389.521 727.39 389.975 730.893 390.355L730.892 390.356L730.706 392.066C733.002 392.316 735.321 392.534 737.661 392.724L737.801 391.009L737.802 391.008C741.225 391.285 744.696 391.502 748.208 391.667L748.207 391.668L748.127 393.387C750.432 393.495 752.753 393.58 755.09 393.646L755.138 391.926H755.139C758.581 392.023 762.058 392.077 765.564 392.095H765.563L765.554 393.814C767.862 393.826 770.182 393.822 772.511 393.806L772.498 392.086C775.951 392.061 779.427 392.009 782.921 391.935L782.957 393.653C785.266 393.604 787.583 393.545 789.905 393.479L789.856 391.76V391.759C793.315 391.661 796.788 391.548 800.271 391.425L800.33 393.143C802.641 393.061 804.955 392.975 807.271 392.887L807.206 391.168V391.167C810.672 391.035 814.144 390.901 817.615 390.768L817.681 392.486C819.994 392.397 822.307 392.309 824.617 392.224L824.556 390.508C828.03 390.38 831.501 390.258 834.964 390.151L835.017 391.869C837.333 391.798 839.645 391.732 841.95 391.675L841.908 389.958C845.393 389.872 848.865 389.804 852.32 389.762L852.34 391.479C854.659 391.45 856.969 391.434 859.27 391.432L859.269 389.713C862.762 389.709 866.234 389.736 869.678 389.803L869.645 391.521C871.965 391.565 874.271 391.628 876.563 391.711L876.625 389.993C880.124 390.119 883.591 390.293 887.018 390.521L886.904 392.234C889.219 392.388 891.516 392.567 893.792 392.773L893.948 391.062C897.443 391.378 900.893 391.761 904.289 392.217L904.061 393.919C906.357 394.227 908.627 394.568 910.869 394.946L911.156 393.253C914.63 393.839 918.041 394.511 921.381 395.282L920.993 396.956C923.244 397.476 925.46 398.04 927.64 398.651L928.105 396.998C931.494 397.949 934.8 399.016 938.014 400.208L937.416 401.817C939.571 402.617 941.682 403.474 943.746 404.391L944.445 402.819C947.644 404.241 950.738 405.807 953.715 407.531L952.854 409.019C954.825 410.16 956.744 411.372 958.606 412.657L959.582 411.243C962.436 413.212 965.165 415.352 967.756 417.678H967.755L966.607 418.958C967.449 419.714 968.278 420.49 969.09 421.286L970.299 422.481C970.701 422.881 971.1 423.284 971.499 423.688L972.724 422.479C975.129 424.913 977.484 427.417 979.786 429.985L978.506 431.132C980.018 432.819 981.506 434.535 982.968 436.278L984.285 435.175C986.486 437.799 988.627 440.486 990.703 443.233L989.332 444.269C990.699 446.077 992.037 447.912 993.344 449.771L994.751 448.783C996.722 451.587 998.623 454.449 1000.45 457.366L998.991 458.277C1000.19 460.198 1001.36 462.143 1002.5 464.111L1003.99 463.254C1005.7 466.225 1007.33 469.249 1008.88 472.323L1007.34 473.096C1008.36 475.119 1009.34 477.163 1010.28 479.229L1011.84 478.518C1013.26 481.636 1014.59 484.804 1015.83 488.017L1014.22 488.632C1015.04 490.744 1015.81 492.876 1016.53 495.026L1018.16 494.477C1019.26 497.72 1020.25 501.007 1021.14 504.336L1019.48 504.78C1020.07 506.962 1020.61 509.161 1021.1 511.378L1022.78 511.007C1023.52 514.345 1024.16 517.723 1024.68 521.137L1022.98 521.396C1023.32 523.625 1023.62 525.869 1023.86 528.128L1025.57 527.944C1025.93 531.335 1026.19 534.76 1026.32 538.216L1024.61 538.283C1024.7 540.534 1024.73 542.799 1024.72 545.076L1026.44 545.086C1026.42 548.486 1026.29 551.915 1026.03 555.37L1024.32 555.244C1024.16 557.487 1023.94 559.742 1023.67 562.008L1025.38 562.209C1025.06 564.919 1024.67 567.645 1024.2 570.385L1023.84 572.388L1022.15 572.075C1021.74 574.284 1021.28 576.503 1020.77 578.73L1022.44 579.115C1021.7 582.352 1020.85 585.609 1019.89 588.882L1019.83 589.074L1018.18 588.587C1017.55 590.74 1016.86 592.902 1016.12 595.07L1017.75 595.623C1016.66 598.825 1015.47 602.042 1014.16 605.273L1012.57 604.628C1011.73 606.712 1010.84 608.802 1009.9 610.898L1011.47 611.601C1010.09 614.683 1008.6 617.777 1007.01 620.882L1005.48 620.099C1004.46 622.106 1003.38 624.119 1002.27 626.137L1003.77 626.971C1002.13 629.924 1000.4 632.886 998.565 635.856L997.102 634.953C995.926 636.857 994.71 638.765 993.451 640.676L994.886 641.621C993.028 644.441 991.08 647.267 989.038 650.1L987.645 649.095C987.31 649.559 986.973 650.023 986.634 650.487L985.608 651.882C984.877 652.868 984.156 653.848 983.445 654.823L984.834 655.837L984.836 655.839C982.673 658.806 980.601 661.72 978.616 664.585L978.615 664.584L977.2 663.604C975.82 665.598 974.481 667.568 973.182 669.514L974.613 670.469L974.615 670.47C972.568 673.535 970.621 676.542 968.766 679.493L968.764 679.492L967.308 678.577C966.015 680.634 964.767 682.665 963.561 684.669L965.034 685.556C963.128 688.724 961.326 691.826 959.62 694.866L958.12 694.024C956.927 696.152 955.779 698.25 954.675 700.318L956.193 701.128L956.194 701.129C954.765 703.806 953.407 706.432 952.115 709.014L951.28 710.696L949.738 709.936C948.656 712.129 947.62 714.29 946.626 716.418L948.185 717.146L948.186 717.146C946.63 720.478 945.178 723.731 943.811 726.911L943.81 726.91L942.23 726.23C941.264 728.477 940.34 730.687 939.452 732.862L941.045 733.512L941.046 733.513C939.653 736.928 938.352 740.26 937.113 743.517L937.11 743.516L935.502 742.904C934.637 745.178 933.803 747.414 932.993 749.614L934.608 750.208L934.61 750.209C933.342 753.653 932.13 757.014 930.945 760.304L929.326 759.721C928.508 761.993 927.702 764.227 926.898 766.431L928.513 767.021C927.265 770.44 926.022 773.786 924.742 777.072L923.14 776.448C922.273 778.676 921.391 780.874 920.481 783.046L922.064 783.709C920.676 787.02 919.226 790.278 917.665 793.494L916.118 792.743C915.092 794.858 914.019 796.953 912.888 799.034L914.398 799.856C912.714 802.953 910.9 806.021 908.916 809.074L907.476 808.137C906.212 810.082 904.877 812.021 903.463 813.957L904.852 814.971C903.054 817.433 901.128 819.891 899.052 822.353L898.19 823.364L896.886 822.243C895.384 823.989 893.804 825.738 892.138 827.493L893.384 828.677C891.018 831.168 888.484 833.67 885.756 836.188L884.589 834.924C883.722 835.724 882.836 836.527 881.929 837.331C881.048 838.112 880.168 838.876 879.287 839.624L880.401 840.935C877.666 843.258 874.931 845.428 872.196 847.458L871.171 846.077C869.285 847.477 867.398 848.809 865.511 850.077L866.47 851.504C863.497 853.502 860.523 855.347 857.545 857.053L856.69 855.562C854.665 856.722 852.638 857.817 850.61 858.854L851.392 860.386C848.223 862.005 845.049 863.482 841.868 864.838L841.194 863.256C839.055 864.167 836.912 865.023 834.765 865.83L835.37 867.44C832.065 868.683 828.751 869.808 825.426 870.842L824.915 869.2C822.699 869.889 820.476 870.537 818.247 871.149L818.703 872.808C815.32 873.738 811.924 874.587 808.515 875.381L808.125 873.707C805.865 874.233 803.596 874.735 801.319 875.219L801.676 876.9C798.258 877.627 794.825 878.314 791.374 878.983L791.047 877.295C788.766 877.737 786.476 878.172 784.176 878.606L784.495 880.297C781.072 880.944 777.631 881.59 774.17 882.256L774.169 882.255L773.844 880.565C771.559 881.005 769.263 881.454 766.957 881.919L767.297 883.604L767.298 883.606C763.892 884.293 760.465 885.013 757.016 885.788L757.015 885.785L756.638 884.107C754.365 884.618 752.082 885.152 749.787 885.716L750.198 887.387L750.198 887.391C746.833 888.218 743.445 889.106 740.034 890.079L740.033 890.078L739.561 888.425C737.322 889.064 735.071 889.738 732.81 890.454L733.329 892.094L733.33 892.096C730.039 893.137 726.725 894.265 723.387 895.497L723.386 895.495L722.791 893.882C720.606 894.688 718.409 895.539 716.202 896.438L716.852 898.03L716.853 898.032C713.671 899.328 710.467 900.724 707.24 902.237L707.239 902.236L706.509 900.68C705.976 900.929 705.443 901.182 704.908 901.438L703.303 902.217C702.192 902.762 701.097 903.299 700.019 903.829L700.778 905.373L700.779 905.375C697.392 907.04 694.167 908.634 691.083 910.169L691.082 910.167L690.316 908.627C688.087 909.736 685.931 910.814 683.842 911.866L684.616 913.402L684.618 913.405C681.239 915.107 678.033 916.738 674.97 918.319L674.969 918.318L674.18 916.79C671.976 917.928 669.845 919.041 667.776 920.135L668.579 921.655L668.58 921.656C665.261 923.411 662.101 925.116 659.054 926.801L659.053 926.8L658.221 925.294C656.065 926.486 653.964 927.669 651.902 928.852L652.757 930.344L652.758 930.345C649.579 932.168 646.493 933.991 643.437 935.853L643.436 935.851L642.541 934.381C640.481 935.636 638.434 936.908 636.382 938.208L637.303 939.661L637.304 939.662C634.312 941.558 631.309 943.515 628.235 945.569L628.234 945.568L627.279 944.138C625.312 945.452 623.316 946.805 621.277 948.207L622.251 949.625L622.252 949.626C619.394 951.59 616.449 953.651 613.373 955.834L613.372 955.833L612.377 954.43C610.475 955.78 608.523 957.176 606.512 958.625L607.517 960.021L607.519 960.023C604.722 962.038 601.809 964.153 598.753 966.388L598.752 966.386L597.737 964.997C595.853 966.375 593.915 967.798 591.916 969.269L592.936 970.653L592.938 970.655C590.149 972.708 587.242 974.854 584.199 977.106L583.176 975.724C581.295 977.117 579.362 978.55 577.373 980.026L578.399 981.407C575.623 983.467 572.739 985.612 569.735 987.846L569.733 987.844L568.707 986.464C566.823 987.865 564.891 989.3 562.909 990.773L563.936 992.154C561.141 994.232 558.246 996.383 555.244 998.613L554.219 997.232L551.27 999.423C550.318 1000.13 549.366 1000.83 548.413 1001.51L549.417 1002.91C546.505 1005 543.59 1007 540.673 1008.91L539.733 1007.47C537.756 1008.76 535.778 1010.01 533.801 1011.21L534.695 1012.68C531.63 1014.55 528.566 1016.31 525.503 1017.98L524.683 1016.47C522.609 1017.59 520.536 1018.67 518.465 1019.71L519.233 1021.24C516.025 1022.84 512.821 1024.34 509.623 1025.72L508.94 1024.15C506.776 1025.08 504.615 1025.97 502.457 1026.81L503.082 1028.41C499.748 1029.71 496.423 1030.9 493.108 1031.98L492.576 1030.34C490.335 1031.07 488.099 1031.74 485.869 1032.37L486.334 1034.03C482.887 1034.99 479.453 1035.85 476.035 1036.58L475.673 1034.9C473.375 1035.4 471.085 1035.84 468.804 1036.23L469.094 1037.92L469.095 1037.92C465.571 1038.53 462.068 1039.01 458.587 1039.38L458.406 1037.67C456.072 1037.92 453.747 1038.11 451.435 1038.25L451.54 1039.97C447.979 1040.18 444.446 1040.28 440.943 1040.26L440.951 1038.54C438.607 1038.53 436.276 1038.46 433.96 1038.35L433.873 1040.06C430.314 1039.88 426.79 1039.58 423.305 1039.16L423.509 1037.46C421.184 1037.18 418.876 1036.85 416.587 1036.47L416.306 1038.16C412.794 1037.58 409.327 1036.88 405.907 1036.06L406.305 1034.39C404.028 1033.85 401.773 1033.26 399.541 1032.62L399.068 1034.27C395.652 1033.29 392.289 1032.19 388.984 1030.99L389.57 1029.38C387.371 1028.58 385.199 1027.73 383.053 1026.84L382.393 1028.43C379.114 1027.06 375.897 1025.59 372.747 1024.02L373.514 1022.48C371.423 1021.44 369.362 1020.35 367.332 1019.21L366.495 1020.71C363.394 1018.98 360.366 1017.15 357.415 1015.23L358.353 1013.79C356.396 1012.51 354.473 1011.19 352.586 1009.84L351.582 1011.23C348.701 1009.16 345.903 1006.99 343.193 1004.74L344.291 1003.42C343.395 1002.67 342.507 1001.92 341.63 1001.16C340.752 1000.39 339.909 999.608 339.102 998.808L337.892 1000.03C335.324 997.486 333.091 994.768 331.154 991.89H331.153L332.579 990.93C331.303 989.034 330.158 987.063 329.133 985.023L327.598 985.796C326.027 982.67 324.73 979.391 323.67 975.973V975.972L325.313 975.463C324.641 973.295 324.065 971.065 323.574 968.777L321.896 969.138C321.171 965.758 320.631 962.264 320.244 958.669H320.243L321.953 958.484C321.709 956.211 321.526 953.893 321.397 951.534L319.682 951.628C319.492 948.17 319.414 944.631 319.423 941.021L321.141 941.024C321.147 938.715 321.189 936.374 321.259 934.004L319.54 933.954C319.643 930.482 319.807 926.953 320.009 923.376L321.725 923.473C321.856 921.148 322.003 918.801 322.161 916.435L320.448 916.321C320.68 912.832 320.934 909.303 321.192 905.742L322.906 905.865C323.074 903.529 323.245 901.176 323.41 898.812L321.695 898.692H321.692C321.937 895.188 322.174 891.659 322.381 888.11H322.383L324.1 888.21C324.237 885.859 324.363 883.498 324.47 881.13L322.751 881.052C322.911 877.533 323.031 874 323.095 870.46H323.096L324.816 870.491C324.859 868.126 324.876 865.755 324.864 863.383L323.144 863.393L323.143 863.394C323.124 859.862 323.037 856.328 322.866 852.797L322.868 852.796L324.586 852.713C324.471 850.342 324.318 847.971 324.122 845.603L322.408 845.744L322.407 845.745C322.116 842.224 321.728 838.711 321.228 835.213L321.229 835.212L322.932 834.968C322.595 832.613 322.206 830.263 321.762 827.921L320.073 828.241L320.07 828.242C319.413 824.778 318.632 821.333 317.71 817.912L317.713 817.911L319.374 817.464C318.755 815.166 318.072 812.877 317.322 810.602L315.689 811.141V811.142C314.591 807.811 313.345 804.509 311.936 801.242V801.241L313.515 800.561C312.575 798.381 311.563 796.215 310.474 794.066L308.94 794.844V794.845C307.365 791.737 305.628 788.666 303.714 785.636L303.715 785.635L305.169 784.716C304.529 783.703 303.87 782.695 303.191 781.691C302.55 780.745 301.896 779.81 301.227 778.886L299.834 779.895C297.861 777.168 295.762 774.534 293.548 771.985V771.984L294.846 770.856C293.356 769.141 291.815 767.464 290.228 765.824L288.992 767.021V767.022C286.661 764.615 284.226 762.286 281.697 760.029V760.028L282.841 758.745C281.153 757.239 279.423 755.765 277.657 754.322L276.57 755.654L276.568 755.657C273.977 753.54 271.305 751.486 268.559 749.492V749.491L269.569 748.099C267.742 746.773 265.885 745.473 263.999 744.198L263.035 745.623V745.624C260.263 743.749 257.426 741.927 254.537 740.15L254.538 740.147L255.44 738.683C253.519 737.501 251.576 736.341 249.613 735.199L248.748 736.687L248.747 736.688C245.85 735.004 242.907 733.358 239.928 731.749V731.748L240.745 730.234C238.763 729.164 236.765 728.11 234.755 727.069L233.965 728.597Z" stroke="#0DC5D4" stroke-opacity="0.4" stroke-width="3.43997" stroke-dasharray="6.88 10.32"/>
<g filter="url(#filter0_dd_14998_364536)">
<rect x="275.148" y="448.734" width="610.432" height="366.259" rx="17.5034" fill="white"/>
<path d="M275.148 466.238C275.148 456.571 282.985 448.734 292.652 448.734H868.077C877.744 448.734 885.58 456.571 885.58 466.238V494.162H275.148V466.238Z" fill="#307A82" fill-opacity="0.4"/>
<rect x="313.951" y="524.447" width="530.934" height="36.9098" rx="17.5034" fill="#307A82" fill-opacity="0.12"/>
<rect x="313.951" y="591.643" width="530.934" height="36.9098" rx="17.5034" fill="#307A82" fill-opacity="0.12"/>
<rect x="313.951" y="658.838" width="530.934" height="36.9098" rx="17.5034" fill="#307A82" fill-opacity="0.12"/>
<rect x="313.951" y="726.031" width="232.816" height="36.9098" rx="17.5034" fill="#307A82" fill-opacity="0.12"/>
<circle cx="298.096" cy="471.449" r="8.75171" fill="white"/>
<circle cx="324.351" cy="471.449" r="8.75171" fill="white"/>
<circle cx="350.606" cy="471.449" r="8.75171" fill="white"/>
<path d="M313.951 849.746V814.46C313.951 810.835 316.89 807.896 320.515 807.896H362.977C369.12 807.896 371.897 815.582 367.172 819.509L324.71 854.794C320.433 858.348 313.951 855.307 313.951 849.746Z" fill="white"/>
</g>
<g filter="url(#filter1_d_14998_364536)">
<path d="M803.148 800.534C803.148 791.808 810.222 784.734 818.948 784.734H979.148C987.874 784.734 994.948 791.808 994.948 800.534V847.934C994.948 856.66 987.874 863.734 979.148 863.734H818.948C810.222 863.734 803.148 856.66 803.148 847.934V800.534Z" fill="#00DDEF"/>
<path d="M859.064 814.992C860.779 814.992 862.216 815.158 863.378 815.49C864.539 815.803 865.405 816.319 865.977 817.038C866.567 817.757 866.862 818.725 866.862 819.942C866.862 820.697 866.733 821.379 866.475 821.988C866.217 822.596 865.839 823.094 865.341 823.481C864.862 823.868 864.263 824.126 863.544 824.255V824.393C864.281 824.522 864.935 824.762 865.507 825.112C866.097 825.444 866.558 825.932 866.889 826.578C867.24 827.204 867.415 828.034 867.415 829.066C867.415 830.264 867.129 831.287 866.558 832.135C865.986 832.983 865.166 833.628 864.097 834.071C863.046 834.513 861.793 834.734 860.336 834.734H853.12V814.992H859.064ZM859.534 823.038C860.935 823.038 861.894 822.817 862.41 822.375C862.945 821.932 863.212 821.278 863.212 820.412C863.212 819.527 862.899 818.891 862.272 818.504C861.645 818.117 860.64 817.923 859.258 817.923H856.659V823.038H859.534ZM856.659 825.886V831.776H859.866C861.304 831.776 862.299 831.499 862.852 830.946C863.424 830.393 863.71 829.656 863.71 828.734C863.71 828.144 863.59 827.638 863.35 827.214C863.111 826.79 862.696 826.467 862.106 826.246C861.516 826.006 860.714 825.886 859.7 825.886H856.659ZM885.002 819.748V834.734H882.264L881.794 832.799H881.629C881.315 833.315 880.91 833.739 880.412 834.071C879.914 834.384 879.37 834.615 878.781 834.762C878.191 834.928 877.582 835.011 876.956 835.011C875.85 835.011 874.891 834.817 874.08 834.43C873.269 834.043 872.651 833.453 872.228 832.661C871.804 831.85 871.592 830.808 871.592 829.536V819.748H875.075V828.845C875.075 829.951 875.297 830.79 875.739 831.361C876.181 831.914 876.882 832.191 877.84 832.191C878.781 832.191 879.518 831.997 880.052 831.61C880.587 831.204 880.965 830.624 881.186 829.868C881.407 829.112 881.518 828.181 881.518 827.075V819.748H885.002ZM895.802 832.218C896.244 832.218 896.668 832.181 897.074 832.108C897.479 832.015 897.857 831.914 898.208 831.803V834.403C897.839 834.568 897.36 834.707 896.77 834.817C896.18 834.946 895.562 835.011 894.917 835.011C894.069 835.011 893.295 834.873 892.595 834.596C891.913 834.301 891.36 833.803 890.936 833.103C890.53 832.403 890.327 831.426 890.327 830.172V822.375H888.309V820.854L890.521 819.637L891.627 816.458H893.811V819.748H898.069V822.375H893.811V830.144C893.811 830.845 893.995 831.37 894.364 831.721C894.733 832.052 895.212 832.218 895.802 832.218ZM907.588 832.218C908.03 832.218 908.454 832.181 908.86 832.108C909.265 832.015 909.643 831.914 909.993 831.803V834.403C909.625 834.568 909.145 834.707 908.556 834.817C907.966 834.946 907.348 835.011 906.703 835.011C905.855 835.011 905.081 834.873 904.38 834.596C903.698 834.301 903.145 833.803 902.721 833.103C902.316 832.403 902.113 831.426 902.113 830.172V822.375H900.095V820.854L902.307 819.637L903.413 816.458H905.597V819.748H909.855V822.375H905.597V830.144C905.597 830.845 905.781 831.37 906.15 831.721C906.519 832.052 906.998 832.218 907.588 832.218ZM926.95 827.214C926.95 828.467 926.784 829.573 926.452 830.532C926.12 831.49 925.641 832.31 925.014 832.992C924.406 833.656 923.65 834.163 922.747 834.513C921.862 834.845 920.876 835.011 919.788 835.011C918.756 835.011 917.807 834.845 916.94 834.513C916.074 834.163 915.318 833.656 914.673 832.992C914.046 832.31 913.558 831.49 913.208 830.532C912.857 829.573 912.682 828.467 912.682 827.214C912.682 825.555 912.968 824.154 913.539 823.011C914.111 821.849 914.931 820.974 916 820.384C917.088 819.776 918.369 819.472 919.844 819.472C921.245 819.472 922.47 819.776 923.521 820.384C924.59 820.974 925.429 821.849 926.037 823.011C926.646 824.154 926.95 825.555 926.95 827.214ZM916.249 827.214C916.249 828.264 916.369 829.168 916.609 829.923C916.867 830.661 917.254 831.223 917.77 831.61C918.304 831.997 918.986 832.191 919.816 832.191C920.664 832.191 921.346 831.997 921.862 831.61C922.397 831.223 922.784 830.661 923.023 829.923C923.263 829.168 923.383 828.264 923.383 827.214C923.383 826.144 923.254 825.25 922.996 824.532C922.756 823.794 922.369 823.241 921.834 822.873C921.318 822.485 920.645 822.292 919.816 822.292C918.563 822.292 917.65 822.716 917.079 823.564C916.526 824.412 916.249 825.628 916.249 827.214ZM939.123 819.472C940.8 819.472 942.109 819.905 943.049 820.771C944.008 821.637 944.487 823.038 944.487 824.974V834.734H941.003V825.665C941.003 824.541 940.782 823.702 940.339 823.149C939.897 822.578 939.197 822.292 938.238 822.292C936.837 822.292 935.879 822.734 935.362 823.619C934.846 824.485 934.588 825.748 934.588 827.407V834.734H931.104V819.748H933.786L934.284 821.711H934.478C934.809 821.195 935.215 820.771 935.694 820.439C936.173 820.108 936.708 819.868 937.298 819.72C937.888 819.555 938.496 819.472 939.123 819.472Z" fill="#171717"/>
</g>
<rect x="152.438" y="329.438" width="459.875" height="73.125" rx="23.5625" fill="white" stroke="#E6EFF0" stroke-width="4.875"/>
<path d="M150 353C150 338.641 161.641 327 176 327H228V405H176C161.641 405 150 393.359 150 379V353Z" fill="#E6EFF0"/>
<circle cx="254" cy="369.25" r="8.125" fill="#00DDEF"/>
<circle cx="283.25" cy="369.25" r="8.125" fill="#00DDEF"/>
<circle cx="312.5" cy="369.25" r="8.125" fill="#00DDEF"/>
<circle cx="341.75" cy="369.25" r="8.125" fill="#00DDEF"/>
<circle cx="371" cy="369.25" r="8.125" fill="#00DDEF"/>
<circle cx="400.25" cy="369.25" r="8.125" fill="#00DDEF"/>
<circle cx="429.5" cy="369.25" r="8.125" fill="#00DDEF"/>
<circle cx="458.75" cy="369.25" r="8.125" fill="#00DDEF"/>
<circle cx="488" cy="369.25" r="8.125" fill="#00DDEF"/>
<circle cx="517.25" cy="369.25" r="8.125" fill="#00DDEF"/>
<path d="M205.25 356.25H198.75V351.375C198.75 348.789 197.723 346.309 195.894 344.481C194.066 342.652 191.586 341.625 189 341.625C186.414 341.625 183.934 342.652 182.106 344.481C180.277 346.309 179.25 348.789 179.25 351.375V356.25H172.75C171.888 356.25 171.061 356.592 170.452 357.202C169.842 357.811 169.5 358.638 169.5 359.5V382.25C169.5 383.112 169.842 383.939 170.452 384.548C171.061 385.158 171.888 385.5 172.75 385.5H205.25C206.112 385.5 206.939 385.158 207.548 384.548C208.158 383.939 208.5 383.112 208.5 382.25V359.5C208.5 358.638 208.158 357.811 207.548 357.202C206.939 356.592 206.112 356.25 205.25 356.25ZM182.5 351.375C182.5 349.651 183.185 347.998 184.404 346.779C185.623 345.56 187.276 344.875 189 344.875C190.724 344.875 192.377 345.56 193.596 346.779C194.815 347.998 195.5 349.651 195.5 351.375V356.25H182.5V351.375ZM205.25 382.25H172.75V359.5H205.25V382.25ZM191.438 370.875C191.438 371.357 191.295 371.828 191.027 372.229C190.759 372.63 190.378 372.942 189.933 373.127C189.487 373.311 188.997 373.36 188.524 373.266C188.052 373.172 187.617 372.939 187.276 372.599C186.936 372.258 186.703 371.823 186.609 371.351C186.515 370.878 186.564 370.388 186.748 369.942C186.933 369.497 187.245 369.116 187.646 368.848C188.047 368.58 188.518 368.438 189 368.438C189.646 368.438 190.266 368.694 190.724 369.151C191.181 369.609 191.438 370.229 191.438 370.875Z" fill="#00DDEF"/>
<g clip-path="url(#clip0_14998_364536)">
<path d="M927.148 414.734C927.148 394.852 943.266 378.734 963.148 378.734V378.734C983.03 378.734 999.148 394.852 999.148 414.734V414.734C999.148 434.617 983.03 450.734 963.148 450.734V450.734C943.266 450.734 927.148 434.617 927.148 414.734V414.734Z" fill="#FEFCF5"/>
<path d="M954.938 409.382C954.25 409.382 953.634 409.518 953.09 409.79C952.562 410.062 952.114 410.454 951.746 410.966C951.378 411.462 951.098 412.07 950.906 412.79C950.73 413.51 950.642 414.318 950.642 415.214C950.642 416.43 950.786 417.47 951.074 418.334C951.378 419.182 951.85 419.83 952.49 420.278C953.13 420.726 953.946 420.95 954.938 420.95C955.642 420.95 956.338 420.87 957.026 420.71C957.73 420.55 958.49 420.326 959.306 420.038V423.086C958.554 423.39 957.81 423.614 957.074 423.758C956.338 423.902 955.514 423.974 954.602 423.974C952.842 423.974 951.386 423.614 950.234 422.894C949.098 422.158 948.258 421.134 947.714 419.822C947.17 418.494 946.898 416.95 946.898 415.19C946.898 413.894 947.074 412.71 947.426 411.638C947.778 410.55 948.29 409.614 948.962 408.83C949.65 408.046 950.49 407.438 951.482 407.006C952.49 406.574 953.642 406.358 954.938 406.358C955.786 406.358 956.634 406.47 957.482 406.694C958.346 406.902 959.17 407.19 959.954 407.558L958.778 410.51C958.138 410.206 957.49 409.942 956.834 409.718C956.194 409.494 955.562 409.382 954.938 409.382ZM978.619 423.734H974.011L966.547 410.774H966.451C966.467 411.174 966.483 411.582 966.499 411.998C966.515 412.398 966.531 412.806 966.547 413.222C966.579 413.622 966.603 414.03 966.619 414.446C966.635 414.846 966.651 415.254 966.667 415.67V423.734H963.427V406.598H968.011L975.451 419.438H975.523C975.507 419.038 975.491 418.646 975.475 418.262C975.459 417.862 975.443 417.47 975.427 417.086C975.427 416.686 975.419 416.294 975.403 415.91C975.387 415.51 975.371 415.11 975.355 414.71V406.598H978.619V423.734Z" fill="#ACCACD"/>
</g>
<path d="M963.148 380.234C982.202 380.234 997.648 395.681 997.648 414.734C997.648 433.788 982.202 449.234 963.148 449.234C944.094 449.234 928.648 433.788 928.648 414.734C928.648 395.681 944.094 380.234 963.148 380.234Z" stroke="#ACCACD" stroke-width="3"/>
<g filter="url(#filter2_d_14998_364536)">
<path d="M104.148 674.734C104.148 665.898 111.312 658.734 120.148 658.734H152.148C160.985 658.734 168.148 665.898 168.148 674.734V706.734C168.148 715.571 160.985 722.734 152.148 722.734H120.148C111.312 722.734 104.148 715.571 104.148 706.734V674.734Z" fill="#00DDEF"/>
<path d="M154.815 676.734L129.148 702.401L117.482 690.734" stroke="white" stroke-width="5.32" stroke-linecap="round" stroke-linejoin="round"/>
</g>
<path d="M1110.9 704.734H1068.9C1068.43 704.734 1067.99 704.919 1067.66 705.247C1067.33 705.575 1067.15 706.02 1067.15 706.484V736.234C1067.15 737.163 1067.52 738.053 1068.17 738.709C1068.83 739.366 1069.72 739.734 1070.65 739.734H1109.15C1110.08 739.734 1110.97 739.366 1111.62 738.709C1112.28 738.053 1112.65 737.163 1112.65 736.234V706.484C1112.65 706.02 1112.46 705.575 1112.14 705.247C1111.81 704.919 1111.36 704.734 1110.9 704.734ZM1083.49 722.234L1070.65 734.005V710.463L1083.49 722.234ZM1086.08 724.608L1088.71 727.025C1089.03 727.321 1089.45 727.486 1089.89 727.486C1090.33 727.486 1090.75 727.321 1091.07 727.025L1093.7 724.608L1106.39 736.234H1073.4L1086.08 724.608ZM1096.31 722.234L1109.15 710.461V734.008L1096.31 722.234Z" fill="#00DDEF" fill-opacity="0.4"/>
<path d="M426.308 229.543C426.217 229.085 426.029 228.652 425.757 228.274C425.484 227.896 425.133 227.58 424.728 227.349L412.611 220.444L412.562 206.787C412.56 206.317 412.457 205.853 412.258 205.426C412.06 205 411.771 204.622 411.412 204.318C407.017 200.6 401.955 197.75 396.497 195.921C396.067 195.776 395.611 195.722 395.159 195.763C394.707 195.805 394.269 195.94 393.873 196.161L381.65 202.993L369.415 196.149C369.019 195.927 368.58 195.79 368.127 195.748C367.674 195.706 367.218 195.76 366.787 195.905C361.332 197.746 356.275 200.606 351.888 204.334C351.529 204.637 351.241 205.015 351.042 205.441C350.844 205.866 350.74 206.33 350.738 206.8L350.677 220.468L338.56 227.374C338.155 227.605 337.804 227.92 337.531 228.298C337.258 228.677 337.07 229.11 336.98 229.567C335.871 235.14 335.871 240.876 336.98 246.449C337.07 246.907 337.258 247.339 337.531 247.718C337.804 248.096 338.155 248.412 338.56 248.642L350.677 255.548L350.726 269.209C350.727 269.679 350.831 270.143 351.029 270.57C351.228 270.996 351.516 271.374 351.875 271.678C356.271 275.396 361.332 278.245 366.791 280.074C367.221 280.22 367.677 280.274 368.129 280.232C368.58 280.191 369.019 280.056 369.415 279.835L381.65 272.982L393.885 279.827C394.369 280.096 394.915 280.236 395.469 280.233C395.824 280.233 396.176 280.175 396.513 280.062C401.967 278.222 407.023 275.365 411.412 271.642C411.771 271.338 412.059 270.961 412.258 270.535C412.456 270.109 412.56 269.646 412.562 269.176L412.623 255.507L424.74 248.602C425.145 248.371 425.496 248.056 425.769 247.677C426.042 247.299 426.23 246.866 426.32 246.408C427.423 240.84 427.419 235.109 426.308 229.543ZM381.65 254.236C378.436 254.236 375.295 253.283 372.623 251.498C369.951 249.712 367.868 247.175 366.639 244.206C365.409 241.237 365.087 237.97 365.714 234.818C366.341 231.666 367.888 228.771 370.161 226.499C372.433 224.226 375.328 222.679 378.48 222.052C381.632 221.425 384.899 221.747 387.868 222.977C390.837 224.206 393.374 226.289 395.16 228.961C396.945 231.633 397.898 234.774 397.898 237.988C397.898 242.297 396.186 246.43 393.139 249.477C390.092 252.524 385.959 254.236 381.65 254.236Z" fill="#00DDEF" fill-opacity="0.4"/>
<path d="M470.494 921.581C470.494 925.011 469.477 928.365 467.571 931.218C465.665 934.07 462.956 936.293 459.786 937.606C456.617 938.919 453.129 939.263 449.764 938.593C446.399 937.924 443.309 936.272 440.883 933.846C438.457 931.42 436.805 928.329 436.135 924.965C435.466 921.6 435.81 918.112 437.122 914.942C438.435 911.773 440.659 909.064 443.511 907.158C446.364 905.252 449.717 904.234 453.148 904.234C457.747 904.24 462.156 906.069 465.408 909.321C468.66 912.573 470.489 916.982 470.494 921.581ZM494.148 924.734C494.148 932.843 491.744 940.77 487.238 947.513C482.733 954.255 476.33 959.51 468.838 962.613C461.346 965.717 453.103 966.529 445.15 964.947C437.196 963.365 429.891 959.46 424.157 953.726C418.423 947.992 414.518 940.686 412.936 932.733C411.354 924.78 412.166 916.536 415.269 909.044C418.372 901.553 423.627 895.149 430.37 890.644C437.112 886.139 445.039 883.734 453.148 883.734C464.019 883.746 474.44 888.069 482.127 895.756C489.813 903.442 494.137 913.864 494.148 924.734ZM487.841 924.734C487.835 920.065 486.889 915.444 485.057 911.149C483.225 906.854 480.546 902.972 477.18 899.736C473.813 896.5 469.829 893.976 465.465 892.315C461.101 890.654 456.446 889.89 451.78 890.07C433.212 890.787 418.405 906.253 418.456 924.833C418.474 933.291 421.593 941.449 427.224 947.761C429.517 944.436 432.429 941.583 435.802 939.36C436.09 939.17 436.431 939.08 436.775 939.103C437.119 939.125 437.446 939.26 437.706 939.486C441.992 943.194 447.47 945.234 453.136 945.234C458.803 945.234 464.281 943.194 468.567 939.486C468.827 939.26 469.154 939.125 469.497 939.103C469.841 939.08 470.183 939.17 470.471 939.36C473.848 941.582 476.765 944.435 479.061 947.761C484.719 941.426 487.845 933.228 487.841 924.734Z" fill="#00DDEF" fill-opacity="0.4"/>
<path d="M749.648 326.734H714.648C713.72 326.734 712.83 327.103 712.173 327.76C711.517 328.416 711.148 329.306 711.148 330.234V342.484C711.148 354.017 716.731 361.006 721.414 364.838C726.459 368.964 731.477 370.364 731.695 370.423C731.996 370.505 732.313 370.505 732.614 370.423C732.833 370.364 737.844 368.964 742.895 364.838C747.566 361.006 753.148 354.017 753.148 342.484V330.234C753.148 329.306 752.779 328.416 752.123 327.76C751.467 327.103 750.576 326.734 749.648 326.734ZM742.141 341.973L729.891 354.223C729.728 354.385 729.535 354.514 729.323 354.602C729.11 354.69 728.883 354.736 728.653 354.736C728.423 354.736 728.195 354.69 727.982 354.602C727.77 354.514 727.577 354.385 727.414 354.223L722.164 348.973C721.836 348.644 721.652 348.199 721.652 347.734C721.652 347.27 721.836 346.825 722.164 346.496C722.493 346.168 722.938 345.983 723.403 345.983C723.867 345.983 724.312 346.168 724.641 346.496L728.648 350.51L739.66 339.496C739.823 339.334 740.016 339.205 740.228 339.117C740.441 339.029 740.668 338.983 740.898 338.983C741.128 338.983 741.356 339.029 741.568 339.117C741.781 339.205 741.974 339.334 742.136 339.496C742.299 339.659 742.428 339.852 742.516 340.064C742.604 340.277 742.649 340.504 742.649 340.734C742.649 340.964 742.604 341.192 742.516 341.404C742.428 341.617 742.299 341.81 742.136 341.973H742.141Z" fill="#00DDEF" fill-opacity="0.4"/>
<g filter="url(#filter3_d_14998_364536)">
<rect x="164.148" y="901.734" width="117.333" height="64" rx="32" fill="#E5E5E5"/>
</g>
<circle cx="196.148" cy="933.734" r="28.4444" fill="white"/>
<defs>
<filter id="filter0_dd_14998_364536" x="252.175" y="434.513" width="656.378" height="453.534" filterUnits="userSpaceOnUse" color-interpolation-filters="sRGB">
<feFlood flood-opacity="0" result="BackgroundImageFix"/>
<feColorMatrix in="SourceAlpha" type="matrix" values="0 0 0 0 0 0 0 0 0 0 0 0 0 0 0 0 0 0 127 0" result="hardAlpha"/>
<feMorphology radius="3.28189" operator="erode" in="SourceAlpha" result="effect1_dropShadow_14998_364536"/>
<feOffset dy="8.75171"/>
<feGaussianBlur stdDeviation="13.1276"/>
<feColorMatrix type="matrix" values="0 0 0 0 0.0627451 0 0 0 0 0.0941176 0 0 0 0 0.156863 0 0 0 0.1 0"/>
<feBlend mode="normal" in2="BackgroundImageFix" result="effect1_dropShadow_14998_364536"/>
<feColorMatrix in="SourceAlpha" type="matrix" values="0 0 0 0 0 0 0 0 0 0 0 0 0 0 0 0 0 0 127 0" result="hardAlpha"/>
<feMorphology radius="3.28189" operator="erode" in="SourceAlpha" result="effect2_dropShadow_14998_364536"/>
<feOffset dy="8.75171"/>
<feGaussianBlur stdDeviation="13.1276"/>
<feColorMatrix type="matrix" values="0 0 0 0 0.0627451 0 0 0 0 0.0941176 0 0 0 0 0.156863 0 0 0 0.05 0"/>
<feBlend mode="normal" in2="effect1_dropShadow_14998_364536" result="effect2_dropShadow_14998_364536"/>
<feBlend mode="normal" in="SourceGraphic" in2="effect2_dropShadow_14998_364536" result="shape"/>
</filter>
<filter id="filter1_d_14998_364536" x="799.198" y="782.759" width="199.7" height="86.9" filterUnits="userSpaceOnUse" color-interpolation-filters="sRGB">
<feFlood flood-opacity="0" result="BackgroundImageFix"/>
<feColorMatrix in="SourceAlpha" type="matrix" values="0 0 0 0 0 0 0 0 0 0 0 0 0 0 0 0 0 0 127 0" result="hardAlpha"/>
<feOffset dy="1.975"/>
<feGaussianBlur stdDeviation="1.975"/>
<feColorMatrix type="matrix" values="0 0 0 0 0 0 0 0 0 0 0 0 0 0 0 0 0 0 0.05 0"/>
<feBlend mode="normal" in2="BackgroundImageFix" result="effect1_dropShadow_14998_364536"/>
<feBlend mode="normal" in="SourceGraphic" in2="effect1_dropShadow_14998_364536" result="shape"/>
</filter>
<filter id="filter2_d_14998_364536" x="96.1482" y="654.734" width="80" height="80" filterUnits="userSpaceOnUse" color-interpolation-filters="sRGB">
<feFlood flood-opacity="0" result="BackgroundImageFix"/>
<feColorMatrix in="SourceAlpha" type="matrix" values="0 0 0 0 0 0 0 0 0 0 0 0 0 0 0 0 0 0 127 0" result="hardAlpha"/>
<feOffset dy="4"/>
<feGaussianBlur stdDeviation="4"/>
<feColorMatrix type="matrix" values="0 0 0 0 0 0 0 0 0 0 0 0 0 0 0 0 0 0 0.05 0"/>
<feBlend mode="normal" in2="BackgroundImageFix" result="effect1_dropShadow_14998_364536"/>
<feBlend mode="normal" in="SourceGraphic" in2="effect1_dropShadow_14998_364536" result="shape"/>
</filter>
<filter id="filter3_d_14998_364536" x="157.037" y="898.179" width="131.556" height="78.2222" filterUnits="userSpaceOnUse" color-interpolation-filters="sRGB">
<feFlood flood-opacity="0" result="BackgroundImageFix"/>
<feColorMatrix in="SourceAlpha" type="matrix" values="0 0 0 0 0 0 0 0 0 0 0 0 0 0 0 0 0 0 127 0" result="hardAlpha"/>
<feOffset dy="3.55556"/>
<feGaussianBlur stdDeviation="3.55556"/>
<feComposite in2="hardAlpha" operator="out"/>
<feColorMatrix type="matrix" values="0 0 0 0 0 0 0 0 0 0 0 0 0 0 0 0 0 0 0.05 0"/>
<feBlend mode="normal" in2="BackgroundImageFix" result="effect1_dropShadow_14998_364536"/>
<feBlend mode="normal" in="SourceGraphic" in2="effect1_dropShadow_14998_364536" result="shape"/>
</filter>
<clipPath id="clip0_14998_364536">
<path d="M927.148 414.734C927.148 394.852 943.266 378.734 963.148 378.734V378.734C983.03 378.734 999.148 394.852 999.148 414.734V414.734C999.148 434.617 983.03 450.734 963.148 450.734V450.734C943.266 450.734 927.148 434.617 927.148 414.734V414.734Z" fill="white"/>
</clipPath>
</defs>
</svg>
