<svg width="1089" height="856" viewBox="0 0 1089 856" fill="none" xmlns="http://www.w3.org/2000/svg">
<path d="M125.75 328.669C163.561 336.444 183.142 366.561 188.206 380.647C197.068 406.849 139.182 409.535 105 407C70.8178 404.464 58.4925 370.678 61.6055 355.714C64.7186 340.751 78.4855 318.949 125.75 328.669Z" fill="#F7FAF7"/>
<path d="M204.919 284.242C217.486 305.846 211.441 328.243 206.847 336.742C198.062 352.28 171.803 325.476 158.28 307.876C144.757 290.277 155.697 269.807 164.24 264.882C172.782 259.956 189.21 257.238 204.919 284.242Z" fill="#F7FAF7"/>
<path d="M81.6484 670.466L203.648 846.966L827.148 844.967C898.148 725.467 1012.65 460.467 1030.65 355.467C1048.65 250.467 980.648 210.467 912.148 248.967C843.648 287.467 785.648 226.466 682.148 94.4662C599.348 -11.1338 462.315 -7.2005 404.148 7.96617C366.648 16.1328 292.448 67.9662 295.648 209.966C299.648 387.466 191.648 431.966 89.1484 487.466C7.14845 531.866 49.9818 627.966 81.6484 670.466Z" fill="#F7FAF7"/>
<path d="M993.373 686.297L871.469 846.967L248.46 845.147C177.516 736.365 63.1061 495.133 45.1202 399.551C27.1344 303.969 95.0809 267.556 163.527 302.603C231.973 337.65 289.927 282.121 393.346 161.96C476.081 65.8316 613.006 69.4121 671.127 83.2185C708.598 90.6526 782.739 137.837 779.542 267.101C775.545 428.68 883.46 469.189 985.879 519.711C1067.81 560.129 1025.02 647.609 993.373 686.297Z" stroke="#30823C" stroke-opacity="0.4" stroke-width="3" stroke-dasharray="8 12"/>
<rect x="296" y="232" width="645" height="506" rx="16" fill="white"/>
<path d="M296 248C296 239.163 303.163 232 312 232H925C933.837 232 941 239.163 941 248V280H296V248Z" fill="#308237" fill-opacity="0.4"/>
<rect x="590.5" y="326" width="56" height="56" rx="28" fill="#E6F0E8"/>
<path d="M631 346.5H626V342.75C626 340.761 625.21 338.853 623.803 337.447C622.397 336.04 620.489 335.25 618.5 335.25C616.511 335.25 614.603 336.04 613.197 337.447C611.79 338.853 611 340.761 611 342.75V346.5H606C605.337 346.5 604.701 346.763 604.232 347.232C603.763 347.701 603.5 348.337 603.5 349V366.5C603.5 367.163 603.763 367.799 604.232 368.268C604.701 368.737 605.337 369 606 369H631C631.663 369 632.299 368.737 632.768 368.268C633.237 367.799 633.5 367.163 633.5 366.5V349C633.5 348.337 633.237 347.701 632.768 347.232C632.299 346.763 631.663 346.5 631 346.5ZM618.5 359.625C618.129 359.625 617.767 359.515 617.458 359.309C617.15 359.103 616.91 358.81 616.768 358.468C616.626 358.125 616.589 357.748 616.661 357.384C616.733 357.02 616.912 356.686 617.174 356.424C617.436 356.162 617.77 355.983 618.134 355.911C618.498 355.839 618.875 355.876 619.218 356.018C619.56 356.16 619.853 356.4 620.059 356.708C620.265 357.017 620.375 357.379 620.375 357.75C620.375 358.247 620.177 358.724 619.826 359.076C619.474 359.427 618.997 359.625 618.5 359.625ZM623.5 346.5H613.5V342.75C613.5 341.424 614.027 340.152 614.964 339.214C615.902 338.277 617.174 337.75 618.5 337.75C619.826 337.75 621.098 338.277 622.036 339.214C622.973 340.152 623.5 341.424 623.5 342.75V346.5Z" fill="#ACCDAF"/>
<path d="M481.308 440.456C481.308 441.632 481.019 442.659 480.44 443.536C479.861 444.413 479.021 445.095 477.92 445.58C476.837 446.047 475.512 446.28 473.944 446.28C473.253 446.28 472.572 446.233 471.9 446.14C471.247 446.047 470.612 445.916 469.996 445.748C469.399 445.561 468.829 445.337 468.288 445.076V441.128C469.24 441.539 470.22 441.921 471.228 442.276C472.255 442.612 473.272 442.78 474.28 442.78C474.971 442.78 475.521 442.687 475.932 442.5C476.361 442.313 476.669 442.061 476.856 441.744C477.061 441.427 477.164 441.063 477.164 440.652C477.164 440.148 476.987 439.719 476.632 439.364C476.296 439.009 475.839 438.683 475.26 438.384C474.681 438.067 474.019 437.731 473.272 437.376C472.805 437.152 472.301 436.891 471.76 436.592C471.219 436.275 470.696 435.892 470.192 435.444C469.707 434.977 469.305 434.417 468.988 433.764C468.671 433.111 468.512 432.327 468.512 431.412C468.512 430.217 468.783 429.2 469.324 428.36C469.884 427.501 470.668 426.848 471.676 426.4C472.703 425.952 473.907 425.728 475.288 425.728C476.333 425.728 477.323 425.849 478.256 426.092C479.208 426.335 480.197 426.68 481.224 427.128L479.852 430.432C478.937 430.059 478.116 429.769 477.388 429.564C476.66 429.359 475.913 429.256 475.148 429.256C474.625 429.256 474.177 429.34 473.804 429.508C473.431 429.676 473.141 429.909 472.936 430.208C472.749 430.507 472.656 430.861 472.656 431.272C472.656 431.739 472.796 432.14 473.076 432.476C473.356 432.793 473.776 433.101 474.336 433.4C474.896 433.699 475.596 434.053 476.436 434.464C477.463 434.949 478.331 435.453 479.04 435.976C479.768 436.499 480.328 437.115 480.72 437.824C481.112 438.533 481.308 439.411 481.308 440.456ZM491.466 430.432C492.885 430.432 494.098 430.703 495.106 431.244C496.133 431.785 496.926 432.569 497.486 433.596C498.046 434.623 498.326 435.883 498.326 437.376V439.392H488.47C488.507 440.568 488.853 441.492 489.506 442.164C490.178 442.836 491.102 443.172 492.278 443.172C493.267 443.172 494.163 443.079 494.966 442.892C495.769 442.687 496.599 442.379 497.458 441.968V445.188C496.711 445.561 495.918 445.832 495.078 446C494.257 446.187 493.258 446.28 492.082 446.28C490.551 446.28 489.198 446 488.022 445.44C486.846 444.861 485.922 443.993 485.25 442.836C484.578 441.679 484.242 440.223 484.242 438.468C484.242 436.676 484.541 435.192 485.138 434.016C485.754 432.821 486.603 431.925 487.686 431.328C488.769 430.731 490.029 430.432 491.466 430.432ZM491.494 433.4C490.691 433.4 490.019 433.661 489.478 434.184C488.955 434.707 488.647 435.519 488.554 436.62H494.406C494.406 436.004 494.294 435.453 494.07 434.968C493.865 434.483 493.547 434.1 493.118 433.82C492.689 433.54 492.147 433.4 491.494 433.4ZM508.709 442.948C509.176 442.948 509.624 442.901 510.053 442.808C510.482 442.715 510.912 442.603 511.341 442.472V445.58C510.893 445.767 510.333 445.925 509.661 446.056C509.008 446.205 508.289 446.28 507.505 446.28C506.59 446.28 505.769 446.131 505.041 445.832C504.332 445.533 503.762 445.02 503.333 444.292C502.922 443.545 502.717 442.519 502.717 441.212V433.848H500.729V432.084L503.025 430.684L504.229 427.464H506.889V430.712H511.173V433.848H506.889V441.212C506.889 441.791 507.057 442.229 507.393 442.528C507.729 442.808 508.168 442.948 508.709 442.948ZM528.997 430.712V446H525.805L525.245 444.04H525.021C524.704 444.563 524.293 444.992 523.789 445.328C523.304 445.645 522.763 445.879 522.165 446.028C521.568 446.196 520.952 446.28 520.317 446.28C519.235 446.28 518.283 446.084 517.461 445.692C516.64 445.3 516.005 444.693 515.557 443.872C515.109 443.051 514.885 441.987 514.885 440.68V430.712H519.057V439.644C519.057 440.727 519.253 441.548 519.645 442.108C520.037 442.668 520.663 442.948 521.521 442.948C522.38 442.948 523.043 442.752 523.509 442.36C523.995 441.968 524.331 441.399 524.517 440.652C524.723 439.905 524.825 438.991 524.825 437.908V430.712H528.997ZM542.444 430.432C544.161 430.432 545.552 431.104 546.616 432.448C547.68 433.773 548.212 435.733 548.212 438.328C548.212 440.064 547.96 441.529 547.456 442.724C546.952 443.9 546.261 444.787 545.384 445.384C544.506 445.981 543.489 446.28 542.332 446.28C541.604 446.28 540.969 446.187 540.428 446C539.905 445.813 539.457 445.571 539.084 445.272C538.71 444.973 538.384 444.656 538.104 444.32H537.88C537.954 444.675 538.01 445.048 538.048 445.44C538.085 445.813 538.104 446.187 538.104 446.56V452.72H533.932V430.712H537.32L537.908 432.7H538.104C538.384 432.289 538.72 431.916 539.112 431.58C539.504 431.225 539.97 430.945 540.512 430.74C541.072 430.535 541.716 430.432 542.444 430.432ZM541.1 433.764C540.372 433.764 539.793 433.913 539.364 434.212C538.934 434.511 538.617 434.968 538.412 435.584C538.225 436.181 538.122 436.937 538.104 437.852V438.3C538.104 439.289 538.197 440.129 538.384 440.82C538.57 441.492 538.888 442.005 539.336 442.36C539.784 442.715 540.39 442.892 541.156 442.892C541.79 442.892 542.313 442.715 542.724 442.36C543.134 442.005 543.442 441.483 543.648 440.792C543.853 440.101 543.956 439.261 543.956 438.272C543.956 436.779 543.722 435.659 543.256 434.912C542.808 434.147 542.089 433.764 541.1 433.764ZM557.86 430.712H562.424L565.308 439.308C565.401 439.588 565.476 439.868 565.532 440.148C565.607 440.428 565.663 440.717 565.7 441.016C565.756 441.315 565.793 441.632 565.812 441.968H565.896C565.952 441.483 566.027 441.025 566.12 440.596C566.232 440.148 566.353 439.719 566.484 439.308L569.312 430.712H573.792L567.324 447.96C566.932 449.005 566.419 449.883 565.784 450.592C565.168 451.301 564.449 451.833 563.628 452.188C562.807 452.543 561.911 452.72 560.94 452.72C560.473 452.72 560.063 452.692 559.708 452.636C559.372 452.599 559.073 452.552 558.812 452.496V449.192C559.017 449.229 559.26 449.267 559.54 449.304C559.839 449.341 560.147 449.36 560.464 449.36C561.043 449.36 561.537 449.239 561.948 448.996C562.377 448.753 562.732 448.417 563.012 447.988C563.292 447.577 563.516 447.129 563.684 446.644L563.936 445.888L557.86 430.712ZM590.433 438.328C590.433 439.597 590.256 440.727 589.901 441.716C589.565 442.705 589.071 443.545 588.417 444.236C587.783 444.908 587.008 445.421 586.093 445.776C585.179 446.112 584.143 446.28 582.985 446.28C581.921 446.28 580.932 446.112 580.017 445.776C579.121 445.421 578.347 444.908 577.693 444.236C577.04 443.545 576.527 442.705 576.153 441.716C575.799 440.727 575.621 439.597 575.621 438.328C575.621 436.629 575.92 435.201 576.517 434.044C577.115 432.868 577.973 431.972 579.093 431.356C580.213 430.74 581.539 430.432 583.069 430.432C584.507 430.432 585.776 430.74 586.877 431.356C587.979 431.972 588.847 432.868 589.481 434.044C590.116 435.201 590.433 436.629 590.433 438.328ZM579.877 438.328C579.877 439.336 579.98 440.185 580.185 440.876C580.409 441.548 580.755 442.061 581.221 442.416C581.688 442.752 582.295 442.92 583.041 442.92C583.788 442.92 584.385 442.752 584.833 442.416C585.3 442.061 585.636 441.548 585.841 440.876C586.065 440.185 586.177 439.336 586.177 438.328C586.177 437.32 586.065 436.48 585.841 435.808C585.636 435.136 585.3 434.632 584.833 434.296C584.367 433.96 583.76 433.792 583.013 433.792C581.912 433.792 581.109 434.175 580.605 434.94C580.12 435.687 579.877 436.816 579.877 438.328ZM608.469 430.712V446H605.277L604.717 444.04H604.493C604.176 444.563 603.765 444.992 603.261 445.328C602.776 445.645 602.235 445.879 601.637 446.028C601.04 446.196 600.424 446.28 599.789 446.28C598.707 446.28 597.755 446.084 596.933 445.692C596.112 445.3 595.477 444.693 595.029 443.872C594.581 443.051 594.357 441.987 594.357 440.68V430.712H598.529V439.644C598.529 440.727 598.725 441.548 599.117 442.108C599.509 442.668 600.135 442.948 600.993 442.948C601.852 442.948 602.515 442.752 602.981 442.36C603.467 441.968 603.803 441.399 603.989 440.652C604.195 439.905 604.297 438.991 604.297 437.908V430.712H608.469ZM621.944 430.432C622.149 430.432 622.392 430.441 622.672 430.46C622.952 430.479 623.176 430.507 623.344 430.544L623.036 434.464C622.905 434.427 622.709 434.399 622.448 434.38C622.205 434.343 621.99 434.324 621.804 434.324C621.262 434.324 620.74 434.399 620.236 434.548C619.732 434.679 619.274 434.893 618.864 435.192C618.472 435.491 618.154 435.892 617.912 436.396C617.688 436.881 617.576 437.488 617.576 438.216V446H613.404V430.712H616.568L617.184 433.288H617.38C617.678 432.765 618.052 432.289 618.5 431.86C618.948 431.431 619.461 431.085 620.04 430.824C620.637 430.563 621.272 430.432 621.944 430.432ZM643.024 430.432C644.741 430.432 646.132 431.104 647.196 432.448C648.26 433.773 648.792 435.733 648.792 438.328C648.792 440.064 648.54 441.529 648.036 442.724C647.532 443.9 646.841 444.787 645.964 445.384C645.087 445.981 644.069 446.28 642.912 446.28C642.184 446.28 641.549 446.187 641.008 446C640.485 445.813 640.037 445.571 639.664 445.272C639.291 444.973 638.964 444.656 638.684 444.32H638.46C638.535 444.675 638.591 445.048 638.628 445.44C638.665 445.813 638.684 446.187 638.684 446.56V452.72H634.512V430.712H637.9L638.488 432.7H638.684C638.964 432.289 639.3 431.916 639.692 431.58C640.084 431.225 640.551 430.945 641.092 430.74C641.652 430.535 642.296 430.432 643.024 430.432ZM641.68 433.764C640.952 433.764 640.373 433.913 639.944 434.212C639.515 434.511 639.197 434.968 638.992 435.584C638.805 436.181 638.703 436.937 638.684 437.852V438.3C638.684 439.289 638.777 440.129 638.964 440.82C639.151 441.492 639.468 442.005 639.916 442.36C640.364 442.715 640.971 442.892 641.736 442.892C642.371 442.892 642.893 442.715 643.304 442.36C643.715 442.005 644.023 441.483 644.228 440.792C644.433 440.101 644.536 439.261 644.536 438.272C644.536 436.779 644.303 435.659 643.836 434.912C643.388 434.147 642.669 433.764 641.68 433.764ZM659.063 430.404C661.116 430.404 662.684 430.852 663.767 431.748C664.868 432.625 665.419 433.979 665.419 435.808V446H662.507L661.695 443.928H661.583C661.153 444.469 660.705 444.917 660.239 445.272C659.791 445.627 659.268 445.879 658.671 446.028C658.092 446.196 657.373 446.28 656.515 446.28C655.619 446.28 654.807 446.112 654.079 445.776C653.369 445.421 652.809 444.889 652.399 444.18C651.988 443.452 651.783 442.537 651.783 441.436C651.783 439.812 652.352 438.617 653.491 437.852C654.629 437.068 656.337 436.639 658.615 436.564L661.275 436.48V435.808C661.275 435.005 661.06 434.417 660.631 434.044C660.22 433.671 659.641 433.484 658.895 433.484C658.148 433.484 657.42 433.596 656.711 433.82C656.001 434.025 655.292 434.287 654.583 434.604L653.211 431.776C654.032 431.347 654.937 431.011 655.927 430.768C656.935 430.525 657.98 430.404 659.063 430.404ZM659.651 438.972C658.307 439.009 657.373 439.252 656.851 439.7C656.328 440.148 656.067 440.736 656.067 441.464C656.067 442.099 656.253 442.556 656.627 442.836C657 443.097 657.485 443.228 658.083 443.228C658.979 443.228 659.735 442.967 660.351 442.444C660.967 441.903 661.275 441.147 661.275 440.176V438.916L659.651 438.972ZM680.917 441.464C680.917 442.491 680.674 443.368 680.189 444.096C679.704 444.805 678.976 445.347 678.005 445.72C677.034 446.093 675.83 446.28 674.393 446.28C673.329 446.28 672.414 446.205 671.649 446.056C670.884 445.925 670.118 445.701 669.353 445.384V441.94C670.174 442.313 671.061 442.621 672.013 442.864C672.965 443.107 673.805 443.228 674.533 443.228C675.354 443.228 675.933 443.107 676.269 442.864C676.624 442.621 676.801 442.304 676.801 441.912C676.801 441.651 676.726 441.417 676.577 441.212C676.446 441.007 676.148 440.773 675.681 440.512C675.214 440.251 674.486 439.915 673.497 439.504C672.545 439.093 671.761 438.692 671.145 438.3C670.529 437.889 670.072 437.404 669.773 436.844C669.474 436.265 669.325 435.547 669.325 434.688C669.325 433.269 669.876 432.205 670.977 431.496C672.078 430.787 673.544 430.432 675.373 430.432C676.325 430.432 677.23 430.525 678.089 430.712C678.948 430.899 679.834 431.207 680.749 431.636L679.489 434.632C678.985 434.408 678.5 434.212 678.033 434.044C677.566 433.876 677.109 433.745 676.661 433.652C676.232 433.559 675.784 433.512 675.317 433.512C674.701 433.512 674.234 433.596 673.917 433.764C673.618 433.932 673.469 434.184 673.469 434.52C673.469 434.763 673.544 434.987 673.693 435.192C673.861 435.379 674.169 435.584 674.617 435.808C675.084 436.032 675.765 436.331 676.661 436.704C677.538 437.059 678.294 437.432 678.929 437.824C679.564 438.197 680.049 438.673 680.385 439.252C680.74 439.812 680.917 440.549 680.917 441.464ZM695.395 441.464C695.395 442.491 695.152 443.368 694.667 444.096C694.182 444.805 693.454 445.347 692.483 445.72C691.512 446.093 690.308 446.28 688.871 446.28C687.807 446.28 686.892 446.205 686.127 446.056C685.362 445.925 684.596 445.701 683.831 445.384V441.94C684.652 442.313 685.539 442.621 686.491 442.864C687.443 443.107 688.283 443.228 689.011 443.228C689.832 443.228 690.411 443.107 690.747 442.864C691.102 442.621 691.279 442.304 691.279 441.912C691.279 441.651 691.204 441.417 691.055 441.212C690.924 441.007 690.626 440.773 690.159 440.512C689.692 440.251 688.964 439.915 687.975 439.504C687.023 439.093 686.239 438.692 685.623 438.3C685.007 437.889 684.55 437.404 684.251 436.844C683.952 436.265 683.803 435.547 683.803 434.688C683.803 433.269 684.354 432.205 685.455 431.496C686.556 430.787 688.022 430.432 689.851 430.432C690.803 430.432 691.708 430.525 692.567 430.712C693.426 430.899 694.312 431.207 695.227 431.636L693.967 434.632C693.463 434.408 692.978 434.212 692.511 434.044C692.044 433.876 691.587 433.745 691.139 433.652C690.71 433.559 690.262 433.512 689.795 433.512C689.179 433.512 688.712 433.596 688.395 433.764C688.096 433.932 687.947 434.184 687.947 434.52C687.947 434.763 688.022 434.987 688.171 435.192C688.339 435.379 688.647 435.584 689.095 435.808C689.562 436.032 690.243 436.331 691.139 436.704C692.016 437.059 692.772 437.432 693.407 437.824C694.042 438.197 694.527 438.673 694.863 439.252C695.218 439.812 695.395 440.549 695.395 441.464ZM710.601 440.652C710.526 440.335 710.414 439.868 710.265 439.252C710.134 438.617 709.985 437.945 709.817 437.236C709.649 436.508 709.49 435.845 709.341 435.248C709.192 434.632 709.089 434.184 709.033 433.904H708.921C708.865 434.184 708.762 434.632 708.613 435.248C708.482 435.845 708.333 436.508 708.165 437.236C707.997 437.945 707.838 438.617 707.689 439.252C707.54 439.887 707.428 440.372 707.353 440.708L706.121 446H701.641L697.301 430.712H701.445L703.209 437.488C703.34 437.955 703.452 438.515 703.545 439.168C703.657 439.821 703.76 440.456 703.853 441.072C703.946 441.669 704.012 442.145 704.049 442.5H704.161C704.18 442.239 704.217 441.893 704.273 441.464C704.329 441.016 704.394 440.559 704.469 440.092C704.562 439.625 704.637 439.205 704.693 438.832C704.768 438.44 704.824 438.179 704.861 438.048L706.737 430.712H711.329L713.121 438.048C713.196 438.309 713.28 438.729 713.373 439.308C713.485 439.887 713.578 440.475 713.653 441.072C713.746 441.669 713.793 442.145 713.793 442.5H713.905C713.942 442.183 714.008 441.725 714.101 441.128C714.194 440.512 714.297 439.868 714.409 439.196C714.54 438.524 714.67 437.955 714.801 437.488L716.621 430.712H720.709L716.313 446H711.777L710.601 440.652ZM737.634 438.328C737.634 439.597 737.456 440.727 737.102 441.716C736.766 442.705 736.271 443.545 735.618 444.236C734.983 444.908 734.208 445.421 733.294 445.776C732.379 446.112 731.343 446.28 730.186 446.28C729.122 446.28 728.132 446.112 727.218 445.776C726.322 445.421 725.547 444.908 724.894 444.236C724.24 443.545 723.727 442.705 723.354 441.716C722.999 440.727 722.822 439.597 722.822 438.328C722.822 436.629 723.12 435.201 723.718 434.044C724.315 432.868 725.174 431.972 726.294 431.356C727.414 430.74 728.739 430.432 730.27 430.432C731.707 430.432 732.976 430.74 734.078 431.356C735.179 431.972 736.047 432.868 736.682 434.044C737.316 435.201 737.634 436.629 737.634 438.328ZM727.078 438.328C727.078 439.336 727.18 440.185 727.386 440.876C727.61 441.548 727.955 442.061 728.422 442.416C728.888 442.752 729.495 442.92 730.242 442.92C730.988 442.92 731.586 442.752 732.034 442.416C732.5 442.061 732.836 441.548 733.042 440.876C733.266 440.185 733.378 439.336 733.378 438.328C733.378 437.32 733.266 436.48 733.042 435.808C732.836 435.136 732.5 434.632 732.034 434.296C731.567 433.96 730.96 433.792 730.214 433.792C729.112 433.792 728.31 434.175 727.806 434.94C727.32 435.687 727.078 436.816 727.078 438.328ZM750.181 430.432C750.387 430.432 750.629 430.441 750.909 430.46C751.189 430.479 751.413 430.507 751.581 430.544L751.273 434.464C751.143 434.427 750.947 434.399 750.685 434.38C750.443 434.343 750.228 434.324 750.041 434.324C749.5 434.324 748.977 434.399 748.473 434.548C747.969 434.679 747.512 434.893 747.101 435.192C746.709 435.491 746.392 435.892 746.149 436.396C745.925 436.881 745.813 437.488 745.813 438.216V446H741.641V430.712H744.805L745.421 433.288H745.617C745.916 432.765 746.289 432.289 746.737 431.86C747.185 431.431 747.699 431.085 748.277 430.824C748.875 430.563 749.509 430.432 750.181 430.432ZM759.213 446.28C757.515 446.28 756.124 445.617 755.041 444.292C753.977 442.948 753.445 440.979 753.445 438.384C753.445 435.771 753.987 433.792 755.069 432.448C756.152 431.104 757.571 430.432 759.325 430.432C760.053 430.432 760.697 430.535 761.257 430.74C761.817 430.927 762.293 431.188 762.685 431.524C763.096 431.86 763.441 432.243 763.721 432.672H763.861C763.805 432.373 763.74 431.944 763.665 431.384C763.591 430.805 763.553 430.217 763.553 429.62V424.72H767.725V446H764.533L763.721 444.012H763.553C763.292 444.423 762.956 444.805 762.545 445.16C762.153 445.496 761.687 445.767 761.145 445.972C760.604 446.177 759.96 446.28 759.213 446.28ZM760.669 442.948C761.827 442.948 762.639 442.612 763.105 441.94C763.572 441.249 763.815 440.223 763.833 438.86V438.412C763.833 436.919 763.6 435.78 763.133 434.996C762.685 434.212 761.845 433.82 760.613 433.82C759.699 433.82 758.98 434.221 758.457 435.024C757.935 435.808 757.673 436.947 757.673 438.44C757.673 439.933 757.935 441.063 758.457 441.828C758.98 442.575 759.717 442.948 760.669 442.948Z" fill="#2A7A28"/>
<rect x="475.5" y="488" width="286" height="48" rx="16" fill="#308242" fill-opacity="0.12"/>
<path d="M475.5 504C475.5 495.163 482.663 488 491.5 488H523.5V536H491.5C482.663 536 475.5 528.837 475.5 520V504Z" fill="#ACCDAF"/>
<circle cx="539.5" cy="514" r="5" fill="#2A7A28"/>
<circle cx="557.5" cy="514" r="5" fill="#2A7A28"/>
<circle cx="575.5" cy="514" r="5" fill="#2A7A28"/>
<circle cx="593.5" cy="514" r="5" fill="#2A7A28"/>
<circle cx="611.5" cy="514" r="5" fill="#2A7A28"/>
<circle cx="629.5" cy="514" r="5" fill="#2A7A28"/>
<circle cx="647.5" cy="514" r="5" fill="#2A7A28"/>
<circle cx="665.5" cy="514" r="5" fill="#2A7A28"/>
<circle cx="683.5" cy="514" r="5" fill="#2A7A28"/>
<circle cx="701.5" cy="514" r="5" fill="#2A7A28"/>
<path d="M509.5 506H505.5V503C505.5 501.409 504.868 499.883 503.743 498.757C502.617 497.632 501.091 497 499.5 497C497.909 497 496.383 497.632 495.257 498.757C494.132 499.883 493.5 501.409 493.5 503V506H489.5C488.97 506 488.461 506.211 488.086 506.586C487.711 506.961 487.5 507.47 487.5 508V522C487.5 522.53 487.711 523.039 488.086 523.414C488.461 523.789 488.97 524 489.5 524H509.5C510.03 524 510.539 523.789 510.914 523.414C511.289 523.039 511.5 522.53 511.5 522V508C511.5 507.47 511.289 506.961 510.914 506.586C510.539 506.211 510.03 506 509.5 506ZM495.5 503C495.5 501.939 495.921 500.922 496.672 500.172C497.422 499.421 498.439 499 499.5 499C500.561 499 501.578 499.421 502.328 500.172C503.079 500.922 503.5 501.939 503.5 503V506H495.5V503ZM509.5 522H489.5V508H509.5V522ZM501 515C501 515.297 500.912 515.587 500.747 515.833C500.582 516.08 500.348 516.272 500.074 516.386C499.8 516.499 499.498 516.529 499.207 516.471C498.916 516.413 498.649 516.27 498.439 516.061C498.23 515.851 498.087 515.584 498.029 515.293C497.971 515.002 498.001 514.7 498.114 514.426C498.228 514.152 498.42 513.918 498.667 513.753C498.913 513.588 499.203 513.5 499.5 513.5C499.898 513.5 500.279 513.658 500.561 513.939C500.842 514.221 501 514.602 501 515Z" fill="#2A7A28"/>
<rect x="475.5" y="560" width="286" height="48" rx="16" fill="#308242" fill-opacity="0.12"/>
<path d="M475.5 576C475.5 567.163 482.663 560 491.5 560H523.5V608H491.5C482.663 608 475.5 600.837 475.5 592V576Z" fill="#ACCDAF"/>
<circle cx="539.5" cy="586" r="5" fill="#2A7A28"/>
<circle cx="557.5" cy="586" r="5" fill="#2A7A28"/>
<circle cx="575.5" cy="586" r="5" fill="#2A7A28"/>
<circle cx="593.5" cy="586" r="5" fill="#2A7A28"/>
<circle cx="611.5" cy="586" r="5" fill="#2A7A28"/>
<circle cx="629.5" cy="586" r="5" fill="#2A7A28"/>
<circle cx="647.5" cy="586" r="5" fill="#2A7A28"/>
<circle cx="665.5" cy="586" r="5" fill="#2A7A28"/>
<circle cx="683.5" cy="586" r="5" fill="#2A7A28"/>
<circle cx="701.5" cy="586" r="5" fill="#2A7A28"/>
<path d="M509.5 578H505.5V575C505.5 573.409 504.868 571.883 503.743 570.757C502.617 569.632 501.091 569 499.5 569C497.909 569 496.383 569.632 495.257 570.757C494.132 571.883 493.5 573.409 493.5 575V578H489.5C488.97 578 488.461 578.211 488.086 578.586C487.711 578.961 487.5 579.47 487.5 580V594C487.5 594.53 487.711 595.039 488.086 595.414C488.461 595.789 488.97 596 489.5 596H509.5C510.03 596 510.539 595.789 510.914 595.414C511.289 595.039 511.5 594.53 511.5 594V580C511.5 579.47 511.289 578.961 510.914 578.586C510.539 578.211 510.03 578 509.5 578ZM495.5 575C495.5 573.939 495.921 572.922 496.672 572.172C497.422 571.421 498.439 571 499.5 571C500.561 571 501.578 571.421 502.328 572.172C503.079 572.922 503.5 573.939 503.5 575V578H495.5V575ZM509.5 594H489.5V580H509.5V594ZM501 587C501 587.297 500.912 587.587 500.747 587.833C500.582 588.08 500.348 588.272 500.074 588.386C499.8 588.499 499.498 588.529 499.207 588.471C498.916 588.413 498.649 588.27 498.439 588.061C498.23 587.851 498.087 587.584 498.029 587.293C497.971 587.002 498.001 586.7 498.114 586.426C498.228 586.152 498.42 585.918 498.667 585.753C498.913 585.588 499.203 585.5 499.5 585.5C499.898 585.5 500.279 585.658 500.561 585.939C500.842 586.221 501 586.602 501 587Z" fill="#2A7A28"/>
<rect x="493" y="640" width="251" height="53" rx="16" fill="#2A7A28"/>
<path d="M538.16 671.1C538.16 671.94 537.953 672.667 537.54 673.28C537.127 673.893 536.527 674.367 535.74 674.7C534.967 675.033 534.04 675.2 532.96 675.2C532.44 675.2 531.94 675.167 531.46 675.1C530.993 675.047 530.547 674.96 530.12 674.84C529.707 674.72 529.32 674.573 528.96 674.4V672C529.56 672.267 530.22 672.513 530.94 672.74C531.66 672.953 532.393 673.06 533.14 673.06C533.713 673.06 534.18 672.987 534.54 672.84C534.913 672.68 535.187 672.467 535.36 672.2C535.533 671.92 535.62 671.6 535.62 671.24C535.62 670.84 535.507 670.5 535.28 670.22C535.053 669.94 534.72 669.68 534.28 669.44C533.84 669.2 533.293 668.947 532.64 668.68C532.2 668.493 531.767 668.287 531.34 668.06C530.927 667.82 530.553 667.533 530.22 667.2C529.887 666.867 529.62 666.473 529.42 666.02C529.22 665.567 529.12 665.033 529.12 664.42C529.12 663.607 529.313 662.907 529.7 662.32C530.1 661.733 530.653 661.287 531.36 660.98C532.08 660.673 532.913 660.52 533.86 660.52C534.62 660.52 535.333 660.6 536 660.76C536.667 660.92 537.327 661.147 537.98 661.44L537.16 663.5C536.573 663.247 536.007 663.047 535.46 662.9C534.913 662.753 534.353 662.68 533.78 662.68C533.327 662.68 532.94 662.753 532.62 662.9C532.3 663.033 532.06 663.227 531.9 663.48C531.74 663.733 531.66 664.027 531.66 664.36C531.66 664.747 531.76 665.073 531.96 665.34C532.16 665.607 532.467 665.86 532.88 666.1C533.307 666.327 533.853 666.587 534.52 666.88C535.293 667.213 535.947 667.56 536.48 667.92C537.013 668.28 537.427 668.713 537.72 669.22C538.013 669.727 538.16 670.353 538.16 671.1ZM549.376 675H541.256V660.72H549.376V662.86H543.816V666.5H549.016V668.64H543.816V672.84H549.376V675ZM557.928 675H555.368V662.88H551.268V660.72H562.028V662.88H557.928V675ZM575.935 669.96C575.935 670.947 575.721 671.84 575.295 672.64C574.881 673.427 574.248 674.053 573.395 674.52C572.541 674.973 571.461 675.2 570.155 675.2C568.301 675.2 566.895 674.72 565.935 673.76C564.975 672.787 564.495 671.507 564.495 669.92V660.72H567.055V669.66C567.055 670.82 567.321 671.673 567.855 672.22C568.388 672.753 569.181 673.02 570.235 673.02C570.981 673.02 571.581 672.893 572.035 672.64C572.501 672.387 572.841 672.007 573.055 671.5C573.281 670.98 573.395 670.36 573.395 669.64V660.72H575.935V669.96ZM584.216 660.72C586.069 660.72 587.416 661.107 588.256 661.88C589.109 662.653 589.536 663.72 589.536 665.08C589.536 665.693 589.443 666.28 589.256 666.84C589.069 667.387 588.756 667.88 588.316 668.32C587.876 668.76 587.296 669.107 586.576 669.36C585.869 669.613 584.989 669.74 583.936 669.74H582.516V675H579.956V660.72H584.216ZM584.056 662.84H582.516V667.62H583.676C584.369 667.62 584.956 667.54 585.436 667.38C585.929 667.207 586.303 666.94 586.556 666.58C586.809 666.22 586.936 665.753 586.936 665.18C586.936 664.393 586.703 663.807 586.236 663.42C585.769 663.033 585.043 662.84 584.056 662.84ZM602.594 660.72C604.448 660.72 605.794 661.107 606.634 661.88C607.488 662.653 607.914 663.72 607.914 665.08C607.914 665.693 607.821 666.28 607.634 666.84C607.448 667.387 607.134 667.88 606.694 668.32C606.254 668.76 605.674 669.107 604.954 669.36C604.248 669.613 603.368 669.74 602.314 669.74H600.894V675H598.334V660.72H602.594ZM602.434 662.84H600.894V667.62H602.054C602.748 667.62 603.334 667.54 603.814 667.38C604.308 667.207 604.681 666.94 604.934 666.58C605.188 666.22 605.314 665.753 605.314 665.18C605.314 664.393 605.081 663.807 604.614 663.42C604.148 663.033 603.421 662.84 602.434 662.84ZM618.941 675L617.641 671.22H612.261L610.981 675H608.261L613.501 660.66H616.421L621.661 675H618.941ZM615.741 665.34C615.688 665.153 615.608 664.9 615.501 664.58C615.394 664.26 615.288 663.933 615.181 663.6C615.088 663.253 615.014 662.967 614.961 662.74C614.894 663.007 614.808 663.313 614.701 663.66C614.608 664.007 614.514 664.333 614.421 664.64C614.341 664.947 614.274 665.18 614.221 665.34L612.961 669.02H616.981L615.741 665.34ZM632.239 671.1C632.239 671.94 632.032 672.667 631.619 673.28C631.206 673.893 630.606 674.367 629.819 674.7C629.046 675.033 628.119 675.2 627.039 675.2C626.519 675.2 626.019 675.167 625.539 675.1C625.072 675.047 624.626 674.96 624.199 674.84C623.786 674.72 623.399 674.573 623.039 674.4V672C623.639 672.267 624.299 672.513 625.019 672.74C625.739 672.953 626.472 673.06 627.219 673.06C627.792 673.06 628.259 672.987 628.619 672.84C628.992 672.68 629.266 672.467 629.439 672.2C629.612 671.92 629.699 671.6 629.699 671.24C629.699 670.84 629.586 670.5 629.359 670.22C629.132 669.94 628.799 669.68 628.359 669.44C627.919 669.2 627.372 668.947 626.719 668.68C626.279 668.493 625.846 668.287 625.419 668.06C625.006 667.82 624.632 667.533 624.299 667.2C623.966 666.867 623.699 666.473 623.499 666.02C623.299 665.567 623.199 665.033 623.199 664.42C623.199 663.607 623.392 662.907 623.779 662.32C624.179 661.733 624.732 661.287 625.439 660.98C626.159 660.673 626.992 660.52 627.939 660.52C628.699 660.52 629.412 660.6 630.079 660.76C630.746 660.92 631.406 661.147 632.059 661.44L631.239 663.5C630.652 663.247 630.086 663.047 629.539 662.9C628.992 662.753 628.432 662.68 627.859 662.68C627.406 662.68 627.019 662.753 626.699 662.9C626.379 663.033 626.139 663.227 625.979 663.48C625.819 663.733 625.739 664.027 625.739 664.36C625.739 664.747 625.839 665.073 626.039 665.34C626.239 665.607 626.546 665.86 626.959 666.1C627.386 666.327 627.932 666.587 628.599 666.88C629.372 667.213 630.026 667.56 630.559 667.92C631.092 668.28 631.506 668.713 631.799 669.22C632.092 669.727 632.239 670.353 632.239 671.1ZM643.635 671.1C643.635 671.94 643.428 672.667 643.015 673.28C642.602 673.893 642.002 674.367 641.215 674.7C640.442 675.033 639.515 675.2 638.435 675.2C637.915 675.2 637.415 675.167 636.935 675.1C636.468 675.047 636.022 674.96 635.595 674.84C635.182 674.72 634.795 674.573 634.435 674.4V672C635.035 672.267 635.695 672.513 636.415 672.74C637.135 672.953 637.868 673.06 638.615 673.06C639.188 673.06 639.655 672.987 640.015 672.84C640.388 672.68 640.662 672.467 640.835 672.2C641.008 671.92 641.095 671.6 641.095 671.24C641.095 670.84 640.982 670.5 640.755 670.22C640.528 669.94 640.195 669.68 639.755 669.44C639.315 669.2 638.768 668.947 638.115 668.68C637.675 668.493 637.242 668.287 636.815 668.06C636.402 667.82 636.028 667.533 635.695 667.2C635.362 666.867 635.095 666.473 634.895 666.02C634.695 665.567 634.595 665.033 634.595 664.42C634.595 663.607 634.788 662.907 635.175 662.32C635.575 661.733 636.128 661.287 636.835 660.98C637.555 660.673 638.388 660.52 639.335 660.52C640.095 660.52 640.808 660.6 641.475 660.76C642.142 660.92 642.802 661.147 643.455 661.44L642.635 663.5C642.048 663.247 641.482 663.047 640.935 662.9C640.388 662.753 639.828 662.68 639.255 662.68C638.802 662.68 638.415 662.753 638.095 662.9C637.775 663.033 637.535 663.227 637.375 663.48C637.215 663.733 637.135 664.027 637.135 664.36C637.135 664.747 637.235 665.073 637.435 665.34C637.635 665.607 637.942 665.86 638.355 666.1C638.782 666.327 639.328 666.587 639.995 666.88C640.768 667.213 641.422 667.56 641.955 667.92C642.488 668.28 642.902 668.713 643.195 669.22C643.488 669.727 643.635 670.353 643.635 671.1ZM663.831 660.72L660.131 675H657.311L655.051 666.8C654.998 666.6 654.938 666.353 654.871 666.06C654.804 665.767 654.731 665.467 654.651 665.16C654.584 664.84 654.524 664.547 654.471 664.28C654.418 664 654.384 663.793 654.371 663.66C654.358 663.793 654.324 664 654.271 664.28C654.218 664.547 654.158 664.84 654.091 665.16C654.024 665.467 653.958 665.773 653.891 666.08C653.824 666.373 653.758 666.627 653.691 666.84L651.491 675H648.651L644.971 660.72H647.531L649.491 668.86C649.558 669.127 649.624 669.42 649.691 669.74C649.758 670.047 649.824 670.367 649.891 670.7C649.958 671.02 650.018 671.34 650.071 671.66C650.124 671.967 650.164 672.24 650.191 672.48C650.218 672.227 650.258 671.947 650.311 671.64C650.364 671.32 650.424 671 650.491 670.68C650.558 670.347 650.624 670.033 650.691 669.74C650.758 669.433 650.824 669.173 650.891 668.96L653.131 660.72H655.611L657.891 668.98C657.958 669.207 658.024 669.473 658.091 669.78C658.171 670.073 658.244 670.387 658.311 670.72C658.378 671.04 658.431 671.353 658.471 671.66C658.524 671.967 658.571 672.24 658.611 672.48C658.651 672.147 658.704 671.767 658.771 671.34C658.851 670.913 658.938 670.48 659.031 670.04C659.138 669.6 659.231 669.207 659.311 668.86L661.271 660.72H663.831ZM678.758 667.84C678.758 668.947 678.618 669.953 678.338 670.86C678.072 671.753 677.658 672.527 677.098 673.18C676.552 673.833 675.852 674.333 674.998 674.68C674.158 675.027 673.172 675.2 672.038 675.2C670.892 675.2 669.892 675.027 669.038 674.68C668.198 674.32 667.505 673.82 666.958 673.18C666.412 672.527 665.998 671.747 665.718 670.84C665.452 669.933 665.318 668.927 665.318 667.82C665.318 666.34 665.558 665.053 666.038 663.96C666.532 662.867 667.272 662.02 668.258 661.42C669.258 660.807 670.525 660.5 672.058 660.5C673.565 660.5 674.812 660.807 675.798 661.42C676.785 662.02 677.525 662.873 678.018 663.98C678.512 665.073 678.758 666.36 678.758 667.84ZM668.018 667.84C668.018 668.92 668.158 669.847 668.438 670.62C668.732 671.393 669.172 671.987 669.758 672.4C670.358 672.813 671.118 673.02 672.038 673.02C672.985 673.02 673.752 672.813 674.338 672.4C674.925 671.987 675.358 671.393 675.638 670.62C675.918 669.847 676.058 668.92 676.058 667.84C676.058 666.227 675.745 664.96 675.118 664.04C674.492 663.12 673.472 662.66 672.058 662.66C671.125 662.66 670.358 662.867 669.758 663.28C669.172 663.693 668.732 664.287 668.438 665.06C668.158 665.833 668.018 666.76 668.018 667.84ZM686.259 660.72C687.512 660.72 688.546 660.873 689.359 661.18C690.172 661.487 690.779 661.953 691.179 662.58C691.579 663.193 691.779 663.973 691.779 664.92C691.779 665.613 691.646 666.207 691.379 666.7C691.126 667.193 690.792 667.607 690.379 667.94C689.966 668.26 689.519 668.52 689.039 668.72L693.139 675H690.259L686.839 669.36H684.759V675H682.199V660.72H686.259ZM686.099 662.86H684.759V667.26H686.179C686.886 667.26 687.459 667.173 687.899 667C688.339 666.827 688.659 666.573 688.859 666.24C689.072 665.907 689.179 665.493 689.179 665C689.179 664.48 689.066 664.067 688.839 663.76C688.612 663.44 688.272 663.213 687.819 663.08C687.379 662.933 686.806 662.86 686.099 662.86ZM707.209 667.72C707.209 669.32 706.902 670.66 706.289 671.74C705.689 672.82 704.815 673.633 703.669 674.18C702.535 674.727 701.162 675 699.549 675H695.529V660.72H699.969C701.449 660.72 702.729 660.987 703.809 661.52C704.889 662.053 705.722 662.84 706.309 663.88C706.909 664.907 707.209 666.187 707.209 667.72ZM704.529 667.8C704.529 666.667 704.355 665.733 704.009 665C703.662 664.267 703.149 663.727 702.469 663.38C701.789 663.02 700.955 662.84 699.969 662.84H698.089V672.86H699.629C701.282 672.86 702.509 672.44 703.309 671.6C704.122 670.747 704.529 669.48 704.529 667.8Z" fill="white"/>
<circle cx="319" cy="256" r="8" fill="white"/>
<circle cx="343" cy="256" r="8" fill="white"/>
<circle cx="367" cy="256" r="8" fill="white"/>
<rect x="1001" y="598" width="88" height="88" rx="16" fill="#E6F0E8"/>
<path d="M1045 619.25C1040.5 619.25 1036.1 620.584 1032.36 623.084C1028.62 625.584 1025.7 629.137 1023.98 633.294C1022.26 637.451 1021.81 642.025 1022.69 646.438C1023.56 650.851 1025.73 654.905 1028.91 658.087C1032.09 661.268 1036.15 663.435 1040.56 664.313C1044.97 665.191 1049.55 664.74 1053.71 663.018C1057.86 661.296 1061.42 658.38 1063.92 654.639C1066.42 650.898 1067.75 646.5 1067.75 642C1067.74 635.968 1065.34 630.185 1061.08 625.92C1056.81 621.655 1051.03 619.256 1045 619.25ZM1054.99 637.988L1042.74 650.238C1042.58 650.401 1042.38 650.53 1042.17 650.618C1041.96 650.706 1041.73 650.751 1041.5 650.751C1041.27 650.751 1041.04 650.706 1040.83 650.618C1040.62 650.53 1040.42 650.401 1040.26 650.238L1035.01 644.988C1034.68 644.66 1034.5 644.214 1034.5 643.75C1034.5 643.286 1034.68 642.84 1035.01 642.512C1035.34 642.184 1035.79 641.999 1036.25 641.999C1036.71 641.999 1037.16 642.184 1037.49 642.512L1041.5 646.526L1052.51 635.512C1052.67 635.349 1052.87 635.22 1053.08 635.132C1053.29 635.044 1053.52 634.999 1053.75 634.999C1053.98 634.999 1054.21 635.044 1054.42 635.132C1054.63 635.22 1054.83 635.349 1054.99 635.512C1055.15 635.674 1055.28 635.867 1055.37 636.08C1055.46 636.292 1055.5 636.52 1055.5 636.75C1055.5 636.98 1055.46 637.208 1055.37 637.42C1055.28 637.633 1055.15 637.826 1054.99 637.988Z" fill="#ACCDAF"/>
<rect x="42" y="256" width="88" height="88" rx="16" fill="#E6F0E8"/>
<path d="M103.5 280.75H68.5C67.5717 280.75 66.6815 281.119 66.0251 281.775C65.3687 282.432 65 283.322 65 284.25V296.5C65 308.033 70.5825 315.022 75.2659 318.854C80.3103 322.98 85.3284 324.38 85.5472 324.439C85.848 324.521 86.1652 324.521 86.4659 324.439C86.6847 324.38 91.6963 322.98 96.7472 318.854C101.418 315.022 107 308.033 107 296.5V284.25C107 283.322 106.631 282.432 105.975 281.775C105.318 281.119 104.428 280.75 103.5 280.75ZM95.9925 295.988L83.7425 308.238C83.58 308.401 83.387 308.53 83.1745 308.618C82.9621 308.706 82.7344 308.751 82.5044 308.751C82.2744 308.751 82.0467 308.706 81.8342 308.618C81.6218 308.53 81.4288 308.401 81.2663 308.238L76.0163 302.988C75.6879 302.66 75.5034 302.214 75.5034 301.75C75.5034 301.286 75.6879 300.84 76.0163 300.512C76.3446 300.184 76.79 299.999 77.2544 299.999C77.7188 299.999 78.1641 300.184 78.4925 300.512L82.5 304.526L93.5119 293.512C93.6745 293.349 93.8675 293.22 94.0799 293.132C94.2924 293.044 94.5201 292.999 94.75 292.999C94.9799 292.999 95.2076 293.044 95.4201 293.132C95.6325 293.22 95.8255 293.349 95.9881 293.512C96.1507 293.674 96.2797 293.867 96.3677 294.08C96.4557 294.292 96.501 294.52 96.501 294.75C96.501 294.98 96.4557 295.208 96.3677 295.42C96.2797 295.633 96.1507 295.826 95.9881 295.988H95.9925Z" fill="#ACCDAF"/>
<rect x="668" y="59" width="88" height="88" rx="16" fill="#E6F0E8"/>
<path d="M721.625 101.25C721.625 103.154 721.061 105.015 720.003 106.597C718.945 108.18 717.442 109.414 715.683 110.142C713.925 110.871 711.989 111.061 710.122 110.69C708.255 110.319 706.54 109.402 705.194 108.056C703.848 106.71 702.931 104.995 702.56 103.128C702.189 101.261 702.379 99.3254 703.108 97.5667C703.836 95.8079 705.07 94.3047 706.653 93.2471C708.235 92.1895 710.096 91.625 712 91.625C714.552 91.6279 716.998 92.6429 718.803 94.4473C720.607 96.2517 721.622 98.6982 721.625 101.25ZM734.75 103C734.75 107.5 733.416 111.898 730.916 115.639C728.416 119.38 724.863 122.296 720.706 124.018C716.549 125.74 711.975 126.191 707.562 125.313C703.149 124.435 699.095 122.268 695.913 119.087C692.732 115.905 690.565 111.851 689.687 107.438C688.809 103.025 689.26 98.451 690.982 94.294C692.704 90.1369 695.62 86.5839 699.361 84.0841C703.102 81.5843 707.5 80.25 712 80.25C718.032 80.2564 723.815 82.6553 728.08 86.9204C732.345 91.1854 734.744 96.9683 734.75 103ZM731.25 103C731.247 100.409 730.722 97.8451 729.706 95.4618C728.689 93.0784 727.203 90.9245 725.335 89.1289C723.467 87.3333 721.256 85.9328 718.834 85.0112C716.413 84.0896 713.83 83.6659 711.241 83.7653C700.938 84.1634 692.722 92.745 692.75 103.055C692.76 107.748 694.491 112.275 697.615 115.777C698.887 113.932 700.503 112.349 702.375 111.116C702.535 111.01 702.724 110.96 702.915 110.973C703.106 110.985 703.287 111.06 703.432 111.186C705.81 113.243 708.849 114.375 711.993 114.375C715.138 114.375 718.177 113.243 720.555 111.186C720.7 111.06 720.881 110.985 721.072 110.973C721.263 110.96 721.452 111.01 721.612 111.116C723.486 112.348 725.104 113.931 726.378 115.777C729.518 112.262 731.252 107.713 731.25 103Z" fill="#ACCDAF"/>
<ellipse cx="528.5" cy="847" rx="528.5" ry="8" fill="#CFD6D1"/>
<path d="M76.1438 687.325C78.214 671.11 79.7914 655.776 82.508 640.647C88.3124 608.32 102.018 579.551 123.647 554.777C151.837 522.488 187.093 501.957 229.162 493.888C241.885 491.448 255.091 491.524 268.951 491.246C267.035 496.474 264.245 500.904 260.808 505.352C259.18 506.074 258.198 506.777 256.457 507.463C254.063 508.868 252.428 510.291 250.146 511.732C248.526 512.466 247.554 513.181 245.822 513.875C243.417 515.266 241.773 516.678 239.485 518.12C237.869 518.861 236.898 519.572 235.168 520.26C232.761 521.647 231.113 523.056 228.683 524.454C215.308 527.704 211.166 538.714 208.574 548.917C203.752 567.895 201.865 587.608 197.301 606.666C193.584 622.185 198.036 631.666 213.067 636.857C215.466 637.686 218.666 641.421 218.487 643.561C217.78 651.983 222.097 657.549 227.735 663.54C235.105 673.861 242.1 683.573 249.343 693.932C261.096 714.703 274.825 732.819 295.258 744.818C304.483 750.236 313.943 754.844 325.719 752.512C335.304 753.26 344.574 754.578 353.308 752.974C365.386 750.757 374.963 751.246 384.5 760.903C399.527 776.118 416.246 789.661 432.167 804.688C425.629 815.428 419.173 825.394 411.934 835.45C395.009 843.681 377.953 846.387 359.871 846.228C304.89 845.745 249.899 845.733 194.918 846.209C172.5 846.404 150.536 844.95 129.243 837.507C114.198 827.011 99.5171 816.292 89.9348 799.913C77.1236 778.014 71.086 754.817 73.5355 729.394C74.8511 715.738 75.3176 702 76.1438 687.325Z" fill="#ACCDAF"/>
<path d="M542.251 855.158C536.459 847.748 531.437 840.561 527.441 832.344C535.132 829.786 543.059 827.97 542.416 819.746C541.621 809.591 546.115 805.262 554.553 802.202C557.298 801.207 559.345 798.289 561.712 796.251C564.369 795.41 568.358 795.393 569.468 793.596C576.968 781.462 590.666 782.553 601.644 778.043C603.981 777.083 609.158 777.838 609.968 779.394C611.906 783.115 614.134 789.003 612.491 791.851C606.735 801.827 599.598 811.046 592.553 820.22C589.572 824.101 585.515 827.157 581.599 831.231C572.944 838.911 564.638 845.948 556.13 853.632C551.626 854.647 547.324 855.013 542.251 855.158Z" fill="#070C2A"/>
<path d="M325.165 751.781C313.943 754.845 304.483 750.238 295.258 744.82C274.825 732.821 261.096 714.705 250.075 693.696C263.268 687.691 275.976 682.572 289.592 677.509C293.255 677.037 296.009 676.053 298.766 676.047C343.235 675.962 387.704 676.002 432.731 676.579C439.835 675.973 446.381 674.803 453.215 674.184C454.738 675.792 455.973 676.848 457.209 677.905C486.394 710.653 515.579 743.401 544.888 776.943C545.012 777.736 544.764 777.98 543.96 777.993C535.071 783.229 526.984 788.453 517.699 794.45C522.942 799.236 526.44 802.428 529.696 806.289C525.997 811.497 522.541 816.037 518.247 820.636C512.605 818.938 507.316 817.952 503.077 815.294C481.323 801.65 459.839 787.577 437.887 773.04C420.009 760.783 402.505 749.139 385.049 736.79C391.613 731.424 398.127 726.761 404.595 722.131C403.579 720.559 402.392 718.724 402.331 718.631C407.544 715.884 412.17 714.733 414.798 711.795C420.337 705.604 425.183 698.696 429.583 691.629C431.469 688.6 431.533 684.439 432.425 680.792C428.536 682.44 423.76 683.161 420.909 685.891C406.29 699.889 392.057 714.299 378.018 728.88C376.401 730.56 376.824 734.203 375.607 737.313C358.33 742.388 341.748 747.085 325.165 751.781Z" fill="#070C2A"/>
<path d="M518.459 819.919C521.916 815.379 525.997 811.497 530.195 806.021C531.28 804.423 531.623 803.762 532.747 803.138C539.069 798.992 543.409 793.611 548.95 789.428C552.773 791.669 557.797 795.108 562.314 797.449C560.643 799.586 558.596 802.504 555.851 803.499C547.412 806.559 542.918 810.887 543.713 821.043C544.357 829.267 536.43 831.083 529.088 832.867C528.411 833.124 527.882 833.209 527.825 832.431C524.873 827.961 521.354 823.61 518.459 819.919Z" fill="#CE996A"/>
<path d="M467.289 675.707C468.107 675.739 468.106 676.746 468.108 677.249C465.082 677.788 462.054 677.824 458.117 677.882C455.973 676.848 454.737 675.791 453.655 673.56C459.709 663.664 456.087 656.4 450.546 648.545C456.329 632.791 461.865 617.958 467.708 602.519C468.734 598.822 469.454 595.73 470.064 592.208C469.955 591.777 469.655 590.941 470.519 590.764C478.652 590.117 479.83 593.314 477.342 599.616C471.567 614.249 465.942 628.948 460.709 643.78C459.852 646.208 461.296 649.448 461.677 652.313C461.903 658.327 461.82 664.378 462.534 670.334C462.763 672.244 465.099 673.902 467.289 675.707Z" fill="#DDDEE2"/>
<path d="M550.473 789.87C544.611 794.811 539.069 798.994 532.783 802.346C533.26 798.474 534.178 795.261 535.772 792.427C538.55 787.489 541.744 782.784 544.764 777.982C544.764 777.982 545.012 777.737 545.136 777.615C547.105 781.366 548.949 785.239 550.473 789.87Z" fill="#070C2A"/>
<path d="M305.374 420.47C308.556 421.195 310.904 421.822 314.79 422.436C320.009 423.198 323.689 423.975 327.718 425.394C337.102 435.292 337.519 443.421 329.66 458.08C318.083 440.309 300.187 445.021 289.162 467.057C285.942 463.843 282.509 460.415 279.075 456.987C277.577 460.522 276.078 464.057 274.58 467.592C266.474 455.878 265.238 443.54 272.994 431.464C280.377 419.968 291.448 416.753 305.374 420.47Z" fill="#070606"/>
<path d="M274.869 468.272C276.078 464.056 277.577 460.521 279.075 456.986C282.509 460.414 285.943 463.842 289.162 467.056C300.187 445.02 318.083 440.308 329.699 458.941C327.373 470.461 325.731 480.645 322.069 490.043C320.559 493.917 314.708 496.1 310.051 498.951C302.941 494.62 296.668 490.304 290.261 486.196C286.597 483.847 282.715 481.837 278.931 479.675C277.673 476.101 276.415 472.526 274.869 468.272Z" fill="#CE996A"/>
<path d="M278.829 480.361C282.715 481.839 286.597 483.848 290.261 486.197C296.668 490.305 302.941 494.622 309.839 499.837C310.717 503.825 311.028 506.828 311.037 510.559C303.703 527.047 297.63 529.311 283.346 519.691C277.14 515.512 272.505 509 267.548 502.911C270.932 498.488 273.925 494.701 276.917 490.914C277.521 487.625 278.124 484.336 278.829 480.361Z" fill="#BD8B66"/>
<path d="M276.068 490.731C273.925 494.701 270.932 498.488 266.99 503.109C264.547 504.451 263.054 504.959 261.535 505.433C261.509 505.4 261.454 505.335 261.454 505.335C264.245 500.905 267.035 496.475 269.938 491.334C271.773 490.598 273.496 490.573 276.068 490.731Z" fill="#9EA9DA"/>
<path d="M437.887 773.04C436.635 783.34 434.37 794.711 432.177 804.998C415.607 791.347 399.527 776.119 384.5 760.904C374.963 751.248 365.386 750.759 353.308 752.976C344.574 754.58 335.304 753.261 325.719 752.514C341.748 747.085 358.33 742.388 376.26 737.121C380.072 736.865 382.536 737.18 385.001 737.495C402.505 749.139 420.009 760.783 437.887 773.04Z" fill="#2A7A28"/>
<path d="M288.685 677.452C275.976 682.572 263.268 687.691 249.828 693.048C242.1 683.574 235.105 673.862 227.807 662.582C228.028 653.778 228.552 646.541 229.775 639.682C239.013 644.279 247.684 648.252 256.059 652.773C272.248 661.513 288.116 670.945 307.845 667.016C309.857 666.615 312.308 668.416 313.583 669.335C303.643 669.475 294.675 669.475 282.893 669.475C285.889 673.601 287.287 675.527 288.685 677.452Z" fill="#FAFBFE"/>
<path d="M229.075 639.304C228.552 646.541 228.028 653.778 227.433 661.974C222.097 657.551 217.78 651.984 218.486 643.562C218.666 641.423 215.466 637.687 213.067 636.859C198.036 631.668 193.584 622.186 197.3 606.667C201.865 587.609 203.752 567.897 208.574 548.918C211.166 538.715 215.308 527.705 228.757 524.543C229.613 524.642 229.759 524.819 229.363 525.412C214.499 542.73 210.877 563.376 208.112 584.27C207.877 586.038 209.452 588.046 209.637 590.58C207.41 599.092 204.453 606.98 204.522 614.841C204.565 619.806 208.099 625.834 211.922 629.394C216.632 633.779 223.27 636.094 229.075 639.304Z" fill="#2A7A28"/>
<path d="M229.54 524.553C231.113 523.057 232.761 521.648 235.224 520.332C236.039 520.426 236.15 520.567 235.774 521.103C233.518 522.698 231.638 523.758 229.759 524.818C229.759 524.818 229.613 524.641 229.54 524.553Z" fill="#9EA9DA"/>
<path d="M240.129 518.09C241.773 516.678 243.417 515.266 245.873 513.941C246.685 514.028 246.788 514.161 246.405 514.702C244.084 516.225 242.147 517.206 240.191 518.163C240.172 518.137 240.129 518.09 240.129 518.09Z" fill="#9EA9DA"/>
<path d="M250.793 511.714C252.428 510.291 254.063 508.868 256.527 507.553C257.357 507.661 257.498 507.84 257.101 508.371C254.765 509.877 252.825 510.852 250.863 511.798C250.841 511.769 250.793 511.714 250.793 511.714Z" fill="#9EA9DA"/>
<path d="M246.633 513.963C247.554 513.182 248.526 512.467 250.146 511.734C250.794 511.715 250.841 511.77 250.51 512.304C249.049 513.279 247.918 513.72 246.788 514.162C246.788 514.162 246.685 514.029 246.633 513.963Z" fill="#9EA9DA"/>
<path d="M257.286 507.573C258.198 506.779 259.18 506.076 260.808 505.354C261.454 505.336 261.509 505.401 261.179 505.933C259.732 506.924 258.616 507.383 257.499 507.842C257.499 507.842 257.357 507.663 257.286 507.573Z" fill="#9EA9DA"/>
<path d="M235.983 520.353C236.899 519.571 237.87 518.86 239.485 518.118C240.129 518.088 240.172 518.136 239.829 518.655C238.374 519.638 237.262 520.101 236.15 520.564C236.15 520.564 236.039 520.423 235.983 520.353Z" fill="#9EA9DA"/>
<path d="M289.592 677.507C287.287 675.524 285.889 673.599 282.893 669.472C294.675 669.472 303.643 669.472 314.441 669.487C320.713 669.259 325.156 669.016 330.414 668.806C332.754 666.799 334.279 664.759 335.886 663.617C339.234 666.109 342.483 669.043 345.768 669.085C374.286 669.449 402.812 669.37 431.333 669.201C435.081 669.179 438.82 667.909 442.494 667.982C439.007 671.167 435.59 673.589 432.173 676.011C387.704 675.999 343.234 675.96 298.765 676.045C296.009 676.05 293.255 677.035 289.592 677.507Z" fill="#125410"/>
<path d="M385.049 736.789C382.536 737.179 380.072 736.864 376.954 736.742C376.824 734.201 376.401 730.559 378.018 728.879C392.057 714.297 406.29 699.887 420.908 685.89C423.76 683.16 428.536 682.439 432.424 680.791C431.533 684.438 431.469 688.599 429.583 691.628C425.183 698.695 420.337 705.603 414.798 711.794C412.17 714.732 407.544 715.883 402.331 718.629C402.392 718.723 403.578 720.558 404.595 722.13C398.127 726.76 391.613 731.422 385.049 736.789Z" fill="#1C213F"/>
<path d="M432.73 676.576C435.59 673.589 439.007 671.168 442.954 667.374C445.755 660.489 448.027 654.977 450.299 649.465C456.087 656.398 459.709 663.663 453.368 673.007C446.381 674.8 439.835 675.971 432.73 676.576Z" fill="#D09A6B"/>
<path d="M543.96 777.992C541.744 782.782 538.55 787.486 535.772 792.425C534.178 795.258 533.26 798.471 532.002 802.306C531.623 803.76 531.28 804.422 530.437 805.352C526.44 802.427 522.942 799.235 517.699 794.449C526.985 788.452 535.071 783.228 543.96 777.992Z" fill="#1C213F"/>
<path d="M450.546 648.545C448.027 654.979 445.756 660.491 443.024 666.611C438.82 667.912 435.081 669.182 431.334 669.204C402.812 669.372 374.286 669.452 345.768 669.088C342.483 669.046 339.234 666.112 335.932 663.673C335.896 662.828 335.76 662.86 336.396 662.443C337.37 660.052 337.707 658.077 338.042 655.301C340.971 645.758 343.901 637.016 347.301 627.762C351.202 617.753 354.246 608.086 358.276 598.849C359.693 595.6 363.524 593.402 366.871 590.868C369.112 591.355 370.736 591.7 372.738 592.742C376.436 592.999 379.756 592.557 383.762 591.92C386.789 591.339 389.131 590.953 392.335 590.75C396.112 590.884 399.026 590.834 401.94 590.785C423.878 590.938 445.816 591.091 468.705 591.093C469.655 590.941 469.955 591.778 469.334 592.224C459.415 595.043 467.548 599.604 467.401 603.126C461.865 617.959 456.329 632.791 450.546 648.545ZM397.883 593.58C414.829 593.58 431.776 593.58 448.723 593.58C448.728 593.304 448.733 593.028 448.737 592.753C432.229 592.753 415.721 592.753 397.883 593.58Z" fill="#2A7A28"/>
<path d="M467.708 602.518C467.547 599.602 459.415 595.042 469.443 592.652C469.454 595.729 468.734 598.82 467.708 602.518Z" fill="#1A31A5"/>
<path d="M327.718 425.395C336.12 423.285 343.5 428.493 342.055 437.608C339.217 455.513 335.935 473.648 329.931 490.663C324.571 505.848 322.843 505.238 334.887 515.291C326.695 513.907 319.017 511.869 311.338 509.831C311.028 506.828 310.717 503.826 310.619 499.938C314.708 496.101 320.559 493.918 322.069 490.045C325.731 480.647 327.373 470.462 329.79 459.733C337.52 443.422 337.102 435.293 327.718 425.395Z" fill="#DDDEE2"/>
<path d="M311.037 510.558C319.017 511.867 326.695 513.905 335.198 515.962C336.022 515.981 336.003 515.946 336.416 516.531C348.785 521.162 354.741 530.713 359.341 542.406C361.152 549.644 363.585 555.947 364.479 562.46C365.56 570.345 365.34 578.408 364.905 586.493C359.024 588.16 353.92 589.728 348.82 590.228C348.823 571.925 348.823 554.691 348.823 537.457C347.909 537.436 346.994 537.414 346.079 537.393C344.483 555.732 342.566 574.062 346.159 593.404C346.156 605.579 346.494 616.926 346.831 628.272C343.901 637.014 340.971 645.756 337.557 655.851C336.635 659.089 336.197 660.974 335.759 662.858C335.759 662.858 335.895 662.826 335.85 662.772C334.28 664.759 332.755 666.8 330.598 667.873C328.346 653.21 321.802 645.53 306.803 646.282C291.276 647.061 279.717 640.372 267.703 632.983C260.769 628.718 253.803 624.496 246.744 620.442C238.671 615.807 230.003 611.655 235.929 599.271C226.736 595.939 218.461 592.94 210.186 589.942C209.452 588.045 207.878 586.037 208.112 584.268C210.877 563.375 214.499 542.729 229.363 525.41C231.638 523.757 233.518 522.697 235.774 521.101C237.262 520.102 238.374 519.639 239.848 518.682C242.147 517.206 244.084 516.224 246.405 514.701C247.919 513.719 249.049 513.278 250.533 512.331C252.825 510.851 254.765 509.877 257.102 508.371C258.616 507.381 259.732 506.921 261.205 505.964C263.054 504.958 264.547 504.45 266.598 503.744C272.505 508.999 277.14 515.51 283.346 519.69C297.63 529.309 303.703 527.046 311.037 510.558Z" fill="#FEFEFE"/>
<path d="M209.637 590.58C218.461 592.942 226.736 595.941 235.929 599.273C230.003 611.657 238.671 615.809 246.744 620.444C253.803 624.498 260.768 628.72 267.703 632.985C279.717 640.374 291.275 647.063 306.803 646.284C321.802 645.532 328.346 653.212 329.782 667.842C325.156 669.019 320.713 669.262 315.413 669.35C312.308 668.416 309.857 666.616 307.845 667.016C288.116 670.945 272.248 661.513 256.059 652.773C247.684 648.252 239.013 644.28 229.775 639.682C223.27 636.095 216.632 633.78 211.922 629.394C208.099 625.834 204.565 619.806 204.522 614.841C204.453 606.98 207.41 599.093 209.637 590.58Z" fill="#D09A6B"/>
<path d="M359.28 541.567C354.741 530.716 348.785 521.164 336.398 516.529C348.727 516.944 357.75 522.176 364.651 534.092C374.687 551.422 387.301 567.259 398.767 583.766C399.955 585.478 400.809 587.421 401.879 590.022C399.025 590.835 396.112 590.884 392.331 589.923C380.736 573.131 370.008 557.349 359.28 541.567Z" fill="#DDDEE2"/>
<path d="M487.293 424.353C486.25 423.721 485.193 423.101 484.136 422.481C484.498 422.057 484.859 421.632 485.221 421.207C485.828 421.884 486.434 422.56 487.149 423.815C487.256 424.392 487.28 424.365 487.293 424.353Z" fill="#C9D3E7"/>
<path d="M359.341 542.406C370.008 557.347 380.736 573.129 391.468 589.738C389.131 590.952 386.789 591.338 382.873 591.758C378.319 591.875 375.339 591.959 372.359 592.042C370.735 591.698 369.112 591.354 366.781 590.143C365.943 588.315 365.813 587.355 365.682 586.394C365.339 578.409 365.56 570.345 364.479 562.461C363.585 555.947 361.152 549.644 359.341 542.406Z" fill="#ACCDAF"/>
<path d="M364.905 586.494C365.813 587.356 365.943 588.316 366.163 590C363.524 593.402 359.693 595.599 358.275 598.849C354.246 608.086 351.202 617.752 347.3 627.762C346.494 616.927 346.156 605.581 346.601 593.288C348.007 592.194 348.485 591.847 348.816 591.298C353.92 589.729 359.024 588.161 364.905 586.494Z" fill="#CE996A"/>
<path d="M398.548 593.165C415.721 592.752 432.229 592.752 448.737 592.752C448.732 593.028 448.728 593.303 448.723 593.579C431.776 593.579 414.829 593.579 398.548 593.165Z" fill="#1A31A5"/>
<path d="M372.737 592.741C375.339 591.959 378.319 591.876 382.187 591.953C379.755 592.555 376.436 592.997 372.737 592.741Z" fill="#1A31A5"/>
<path d="M336.396 662.444C336.197 660.976 336.635 659.091 337.558 656.654C337.706 658.077 337.369 660.052 336.396 662.444Z" fill="#1A2C88"/>
<path d="M348.82 590.23C348.485 591.847 348.007 592.195 346.941 592.459C342.566 574.063 344.483 555.734 346.079 537.395C346.994 537.416 347.909 537.437 348.823 537.459C348.823 554.693 348.823 571.927 348.82 590.23Z" fill="#DDDEE2"/>
</svg>
