<svg width="1070" height="986" viewBox="0 0 1070 986" fill="none" xmlns="http://www.w3.org/2000/svg">
<path d="M25.8197 151.039C146.92 -122.949 441.665 49.3775 588.943 108.041C649.587 132.197 698.559 127.489 907.211 184.686C1168.03 256.182 1042.18 496.169 1017.56 528.168C992.933 560.166 905.387 699.658 878.941 748.656C852.495 797.653 760.844 873.149 551.554 886.148C342.264 899.148 275.692 816.652 214.136 713.658C164.891 631.262 166.715 611.014 86.9207 528.168C-27.5268 429.524 -5.93668 222.887 25.8197 151.039Z" fill="#4C3082" fill-opacity="0.04" stroke="#F5F3FF"/>
<path d="M100.125 672.202C203.553 885.647 455.285 751.399 581.071 705.699C632.866 686.881 674.691 690.548 852.894 645.99C1075.65 590.292 968.165 403.335 947.136 378.407C926.106 353.48 851.336 244.811 828.749 206.641C806.162 168.47 727.887 109.656 549.138 99.5297C370.39 89.4028 313.533 153.669 260.96 233.905C218.901 298.094 220.46 313.868 152.309 378.407C54.5632 455.254 73.0026 616.23 100.125 672.202Z" stroke="#4C3082" stroke-opacity="0.4" stroke-width="4" stroke-dasharray="8 12"/>
<rect x="250.653" y="232.5" width="645" height="506" rx="16" fill="white"/>
<path d="M250.653 248.5C250.653 239.663 257.817 232.5 266.653 232.5H879.653C888.49 232.5 895.653 239.663 895.653 248.5V280.5H250.653V248.5Z" fill="#4C3082" fill-opacity="0.4"/>
<rect x="520.653" y="451.5" width="286" height="48" rx="16" fill="#4C3082" fill-opacity="0.12"/>
<path d="M520.653 467.5C520.653 458.663 527.817 451.5 536.653 451.5H568.653V499.5H536.653C527.817 499.5 520.653 492.337 520.653 483.5V467.5Z" fill="#4C3082" fill-opacity="0.2"/>
<circle cx="584.653" cy="477.5" r="5" fill="#4C3082"/>
<circle cx="602.653" cy="477.5" r="5" fill="#4C3082"/>
<circle cx="620.653" cy="477.5" r="5" fill="#4C3082"/>
<circle cx="638.653" cy="477.5" r="5" fill="#4C3082"/>
<circle cx="656.653" cy="477.5" r="5" fill="#4C3082"/>
<circle cx="674.653" cy="477.5" r="5" fill="#4C3082"/>
<circle cx="692.653" cy="477.5" r="5" fill="#4C3082"/>
<circle cx="710.653" cy="477.5" r="5" fill="#4C3082"/>
<circle cx="728.653" cy="477.5" r="5" fill="#4C3082"/>
<circle cx="746.653" cy="477.5" r="5" fill="#4C3082"/>
<path d="M556.653 465.5H532.653C532.388 465.5 532.134 465.605 531.946 465.793C531.759 465.98 531.653 466.235 531.653 466.5V483.5C531.653 484.03 531.864 484.539 532.239 484.914C532.614 485.289 533.123 485.5 533.653 485.5H555.653C556.184 485.5 556.692 485.289 557.068 484.914C557.443 484.539 557.653 484.03 557.653 483.5V466.5C557.653 466.235 557.548 465.98 557.36 465.793C557.173 465.605 556.919 465.5 556.653 465.5ZM554.082 467.5L544.653 476.144L535.225 467.5H554.082ZM555.653 483.5H533.653V468.774L543.977 478.237C544.162 478.407 544.403 478.501 544.653 478.501C544.904 478.501 545.145 478.407 545.33 478.237L555.653 468.774V483.5Z" fill="#4C3082"/>
<rect x="520.653" y="531.5" width="286" height="48" rx="16" fill="#4C3082" fill-opacity="0.12"/>
<path d="M520.653 547.5C520.653 538.663 527.817 531.5 536.653 531.5H568.653V579.5H536.653C527.817 579.5 520.653 572.337 520.653 563.5V547.5Z" fill="#4C3082" fill-opacity="0.2"/>
<circle cx="584.653" cy="557.5" r="5" fill="#4C3082"/>
<circle cx="602.653" cy="557.5" r="5" fill="#4C3082"/>
<circle cx="620.653" cy="557.5" r="5" fill="#4C3082"/>
<circle cx="638.653" cy="557.5" r="5" fill="#4C3082"/>
<circle cx="656.653" cy="557.5" r="5" fill="#4C3082"/>
<circle cx="674.653" cy="557.5" r="5" fill="#4C3082"/>
<circle cx="692.653" cy="557.5" r="5" fill="#4C3082"/>
<circle cx="710.653" cy="557.5" r="5" fill="#4C3082"/>
<circle cx="728.653" cy="557.5" r="5" fill="#4C3082"/>
<circle cx="746.653" cy="557.5" r="5" fill="#4C3082"/>
<path d="M554.653 549.5H550.653V546.5C550.653 544.909 550.021 543.383 548.896 542.257C547.771 541.132 546.245 540.5 544.653 540.5C543.062 540.5 541.536 541.132 540.411 542.257C539.285 543.383 538.653 544.909 538.653 546.5V549.5H534.653C534.123 549.5 533.614 549.711 533.239 550.086C532.864 550.461 532.653 550.97 532.653 551.5V565.5C532.653 566.03 532.864 566.539 533.239 566.914C533.614 567.289 534.123 567.5 534.653 567.5H554.653C555.184 567.5 555.692 567.289 556.068 566.914C556.443 566.539 556.653 566.03 556.653 565.5V551.5C556.653 550.97 556.443 550.461 556.068 550.086C555.692 549.711 555.184 549.5 554.653 549.5ZM540.653 546.5C540.653 545.439 541.075 544.422 541.825 543.672C542.575 542.921 543.592 542.5 544.653 542.5C545.714 542.5 546.732 542.921 547.482 543.672C548.232 544.422 548.653 545.439 548.653 546.5V549.5H540.653V546.5ZM554.653 565.5H534.653V551.5H554.653V565.5ZM546.153 558.5C546.153 558.797 546.065 559.087 545.901 559.333C545.736 559.58 545.501 559.772 545.227 559.886C544.953 559.999 544.652 560.029 544.361 559.971C544.07 559.913 543.802 559.77 543.593 559.561C543.383 559.351 543.24 559.084 543.182 558.793C543.124 558.502 543.154 558.2 543.268 557.926C543.381 557.652 543.573 557.418 543.82 557.253C544.067 557.088 544.357 557 544.653 557C545.051 557 545.433 557.158 545.714 557.439C545.995 557.721 546.153 558.102 546.153 558.5Z" fill="#4C3082"/>
<rect x="520.653" y="611.5" width="251" height="53" rx="16" fill="#4C3082"/>
<path d="M615.013 646.5V632.22H617.573V644.34H623.533V646.5H615.013ZM638.779 639.34C638.779 640.447 638.639 641.453 638.359 642.36C638.092 643.253 637.679 644.027 637.119 644.68C636.572 645.333 635.872 645.833 635.019 646.18C634.179 646.527 633.192 646.7 632.059 646.7C630.912 646.7 629.912 646.527 629.059 646.18C628.219 645.82 627.525 645.32 626.979 644.68C626.432 644.027 626.019 643.247 625.739 642.34C625.472 641.433 625.339 640.427 625.339 639.32C625.339 637.84 625.579 636.553 626.059 635.46C626.552 634.367 627.292 633.52 628.279 632.92C629.279 632.307 630.545 632 632.079 632C633.585 632 634.832 632.307 635.819 632.92C636.805 633.52 637.545 634.373 638.039 635.48C638.532 636.573 638.779 637.86 638.779 639.34ZM628.039 639.34C628.039 640.42 628.179 641.347 628.459 642.12C628.752 642.893 629.192 643.487 629.779 643.9C630.379 644.313 631.139 644.52 632.059 644.52C633.005 644.52 633.772 644.313 634.359 643.9C634.945 643.487 635.379 642.893 635.659 642.12C635.939 641.347 636.079 640.42 636.079 639.34C636.079 637.727 635.765 636.46 635.139 635.54C634.512 634.62 633.492 634.16 632.079 634.16C631.145 634.16 630.379 634.367 629.779 634.78C629.192 635.193 628.752 635.787 628.459 636.56C628.179 637.333 628.039 638.26 628.039 639.34ZM647.92 638.66H653.32V645.92C652.56 646.173 651.78 646.367 650.98 646.5C650.18 646.633 649.273 646.7 648.26 646.7C646.82 646.7 645.6 646.413 644.6 645.84C643.6 645.267 642.84 644.433 642.32 643.34C641.8 642.247 641.54 640.913 641.54 639.34C641.54 637.847 641.833 636.553 642.42 635.46C643.006 634.367 643.846 633.52 644.94 632.92C646.046 632.32 647.393 632.02 648.98 632.02C649.753 632.02 650.5 632.1 651.22 632.26C651.953 632.407 652.62 632.613 653.22 632.88L652.34 634.98C651.886 634.753 651.36 634.567 650.76 634.42C650.173 634.26 649.56 634.18 648.92 634.18C647.946 634.18 647.106 634.393 646.4 634.82C645.693 635.247 645.146 635.853 644.76 636.64C644.386 637.413 644.2 638.327 644.2 639.38C644.2 640.393 644.346 641.293 644.64 642.08C644.933 642.853 645.4 643.46 646.04 643.9C646.68 644.327 647.513 644.54 648.54 644.54C648.886 644.54 649.186 644.527 649.44 644.5C649.706 644.473 649.946 644.44 650.16 644.4C650.386 644.36 650.6 644.32 650.8 644.28V640.84H647.92V638.66ZM661.971 646.5H655.971V645.04L657.691 644.4V634.34L655.971 633.68V632.22H661.971V633.68L660.251 634.34V644.4L661.971 645.04V646.5ZM677.074 646.5H673.894L667.134 635.3H667.054C667.067 635.593 667.08 635.907 667.094 636.24C667.12 636.56 667.14 636.893 667.154 637.24C667.167 637.573 667.18 637.913 667.194 638.26C667.207 638.607 667.22 638.953 667.234 639.3V646.5H664.934V632.22H668.094L674.834 643.34H674.894C674.88 643.073 674.867 642.787 674.854 642.48C674.84 642.16 674.827 641.833 674.814 641.5C674.814 641.167 674.807 640.827 674.794 640.48C674.78 640.133 674.767 639.8 674.754 639.48V632.22H677.074V646.5Z" fill="white"/>
<path d="M547.729 357.508L542.633 377.5H537.817L535.101 367C535.045 366.795 534.971 366.487 534.877 366.076C534.803 365.665 534.709 365.217 534.597 364.732C534.504 364.247 534.42 363.789 534.345 363.36C534.271 362.912 534.215 362.567 534.177 362.324C534.159 362.567 534.103 362.912 534.009 363.36C533.935 363.789 533.851 364.247 533.757 364.732C533.664 365.199 533.571 365.647 533.477 366.076C533.384 366.487 533.309 366.804 533.253 367.028L530.565 377.5H525.749L520.653 357.508H524.825L527.373 368.428C527.448 368.745 527.532 369.137 527.625 369.604C527.719 370.052 527.812 370.528 527.905 371.032C527.999 371.517 528.083 371.993 528.157 372.46C528.251 372.927 528.316 373.328 528.353 373.664C528.391 373.309 528.447 372.908 528.521 372.46C528.596 371.993 528.68 371.527 528.773 371.06C528.867 370.575 528.951 370.127 529.025 369.716C529.119 369.287 529.203 368.951 529.277 368.708L532.189 357.508H536.193L539.105 368.708C539.161 368.951 539.236 369.287 539.329 369.716C539.423 370.127 539.516 370.575 539.609 371.06C539.703 371.545 539.787 372.021 539.861 372.488C539.936 372.936 539.992 373.328 540.029 373.664C540.085 373.197 540.169 372.647 540.281 372.012C540.393 371.359 540.515 370.705 540.645 370.052C540.795 369.399 540.916 368.857 541.009 368.428L543.557 357.508H547.729ZM556.221 361.932C557.639 361.932 558.853 362.203 559.861 362.744C560.887 363.285 561.681 364.069 562.241 365.096C562.801 366.123 563.081 367.383 563.081 368.876V370.892H553.225C553.262 372.068 553.607 372.992 554.261 373.664C554.933 374.336 555.857 374.672 557.033 374.672C558.022 374.672 558.918 374.579 559.721 374.392C560.523 374.187 561.354 373.879 562.213 373.468V376.688C561.466 377.061 560.673 377.332 559.833 377.5C559.011 377.687 558.013 377.78 556.837 377.78C555.306 377.78 553.953 377.5 552.777 376.94C551.601 376.361 550.677 375.493 550.005 374.336C549.333 373.179 548.997 371.723 548.997 369.968C548.997 368.176 549.295 366.692 549.893 365.516C550.509 364.321 551.358 363.425 552.441 362.828C553.523 362.231 554.783 361.932 556.221 361.932ZM556.249 364.9C555.446 364.9 554.774 365.161 554.233 365.684C553.71 366.207 553.402 367.019 553.309 368.12H559.161C559.161 367.504 559.049 366.953 558.825 366.468C558.619 365.983 558.302 365.6 557.873 365.32C557.443 365.04 556.902 364.9 556.249 364.9ZM571.196 377.5H567.024V356.22H571.196V377.5ZM582.331 377.78C580.819 377.78 579.531 377.509 578.467 376.968C577.403 376.408 576.591 375.549 576.031 374.392C575.471 373.235 575.191 371.751 575.191 369.94C575.191 368.073 575.508 366.552 576.143 365.376C576.778 364.2 577.655 363.332 578.775 362.772C579.914 362.212 581.22 361.932 582.695 361.932C583.74 361.932 584.646 362.035 585.411 362.24C586.195 362.445 586.876 362.688 587.455 362.968L586.223 366.188C585.57 365.927 584.954 365.712 584.375 365.544C583.815 365.376 583.255 365.292 582.695 365.292C581.967 365.292 581.36 365.469 580.875 365.824C580.39 366.16 580.026 366.673 579.783 367.364C579.559 368.036 579.447 368.885 579.447 369.912C579.447 370.92 579.568 371.76 579.811 372.432C580.072 373.085 580.446 373.58 580.931 373.916C581.416 374.233 582.004 374.392 582.695 374.392C583.572 374.392 584.347 374.28 585.019 374.056C585.691 373.813 586.344 373.487 586.979 373.076V376.632C586.344 377.043 585.672 377.332 584.963 377.5C584.272 377.687 583.395 377.78 582.331 377.78ZM604.946 369.828C604.946 371.097 604.768 372.227 604.414 373.216C604.078 374.205 603.583 375.045 602.93 375.736C602.295 376.408 601.52 376.921 600.606 377.276C599.691 377.612 598.655 377.78 597.498 377.78C596.434 377.78 595.444 377.612 594.53 377.276C593.634 376.921 592.859 376.408 592.206 375.736C591.552 375.045 591.039 374.205 590.666 373.216C590.311 372.227 590.134 371.097 590.134 369.828C590.134 368.129 590.432 366.701 591.03 365.544C591.627 364.368 592.486 363.472 593.606 362.856C594.726 362.24 596.051 361.932 597.582 361.932C599.019 361.932 600.288 362.24 601.39 362.856C602.491 363.472 603.359 364.368 603.994 365.544C604.628 366.701 604.946 368.129 604.946 369.828ZM594.39 369.828C594.39 370.836 594.492 371.685 594.698 372.376C594.922 373.048 595.267 373.561 595.734 373.916C596.2 374.252 596.807 374.42 597.554 374.42C598.3 374.42 598.898 374.252 599.346 373.916C599.812 373.561 600.148 373.048 600.354 372.376C600.578 371.685 600.69 370.836 600.69 369.828C600.69 368.82 600.578 367.98 600.354 367.308C600.148 366.636 599.812 366.132 599.346 365.796C598.879 365.46 598.272 365.292 597.526 365.292C596.424 365.292 595.622 365.675 595.118 366.44C594.632 367.187 594.39 368.316 594.39 369.828ZM626.902 361.932C628.638 361.932 629.944 362.38 630.822 363.276C631.718 364.153 632.166 365.572 632.166 367.532V377.5H627.994V368.568C627.994 367.467 627.807 366.645 627.434 366.104C627.06 365.544 626.482 365.264 625.698 365.264C624.596 365.264 623.812 365.656 623.346 366.44C622.879 367.224 622.646 368.353 622.646 369.828V377.5H618.474V368.568C618.474 367.84 618.39 367.233 618.222 366.748C618.054 366.263 617.802 365.899 617.466 365.656C617.13 365.395 616.7 365.264 616.178 365.264C615.412 365.264 614.806 365.46 614.358 365.852C613.91 366.244 613.592 366.813 613.406 367.56C613.219 368.307 613.126 369.221 613.126 370.304V377.5H608.954V362.212H612.146L612.706 364.172H612.93C613.247 363.649 613.639 363.229 614.106 362.912C614.572 362.576 615.086 362.333 615.646 362.184C616.224 362.016 616.803 361.932 617.382 361.932C618.502 361.932 619.454 362.119 620.238 362.492C621.022 362.847 621.619 363.407 622.03 364.172H622.394C622.86 363.388 623.504 362.819 624.326 362.464C625.166 362.109 626.024 361.932 626.902 361.932ZM643.322 361.932C644.74 361.932 645.954 362.203 646.962 362.744C647.988 363.285 648.782 364.069 649.342 365.096C649.902 366.123 650.182 367.383 650.182 368.876V370.892H640.326C640.363 372.068 640.708 372.992 641.362 373.664C642.034 374.336 642.958 374.672 644.134 374.672C645.123 374.672 646.019 374.579 646.822 374.392C647.624 374.187 648.455 373.879 649.314 373.468V376.688C648.567 377.061 647.774 377.332 646.934 377.5C646.112 377.687 645.114 377.78 643.938 377.78C642.407 377.78 641.054 377.5 639.878 376.94C638.702 376.361 637.778 375.493 637.106 374.336C636.434 373.179 636.098 371.723 636.098 369.968C636.098 368.176 636.396 366.692 636.994 365.516C637.61 364.321 638.459 363.425 639.542 362.828C640.624 362.231 641.884 361.932 643.322 361.932ZM643.35 364.9C642.547 364.9 641.875 365.161 641.334 365.684C640.811 366.207 640.503 367.019 640.41 368.12H646.262C646.262 367.504 646.15 366.953 645.926 366.468C645.72 365.983 645.403 365.6 644.974 365.32C644.544 365.04 644.003 364.9 643.35 364.9ZM668.398 374.448C668.865 374.448 669.313 374.401 669.742 374.308C670.171 374.215 670.601 374.103 671.03 373.972V377.08C670.582 377.267 670.022 377.425 669.35 377.556C668.697 377.705 667.978 377.78 667.194 377.78C666.279 377.78 665.458 377.631 664.73 377.332C664.021 377.033 663.451 376.52 663.022 375.792C662.611 375.045 662.406 374.019 662.406 372.712V365.348H660.418V363.584L662.714 362.184L663.918 358.964H666.578V362.212H670.862V365.348H666.578V372.712C666.578 373.291 666.746 373.729 667.082 374.028C667.418 374.308 667.857 374.448 668.398 374.448ZM688.547 369.828C688.547 371.097 688.369 372.227 688.015 373.216C687.679 374.205 687.184 375.045 686.531 375.736C685.896 376.408 685.121 376.921 684.207 377.276C683.292 377.612 682.256 377.78 681.099 377.78C680.035 377.78 679.045 377.612 678.131 377.276C677.235 376.921 676.46 376.408 675.807 375.736C675.153 375.045 674.64 374.205 674.267 373.216C673.912 372.227 673.735 371.097 673.735 369.828C673.735 368.129 674.033 366.701 674.631 365.544C675.228 364.368 676.087 363.472 677.207 362.856C678.327 362.24 679.652 361.932 681.183 361.932C682.62 361.932 683.889 362.24 684.991 362.856C686.092 363.472 686.96 364.368 687.595 365.544C688.229 366.701 688.547 368.129 688.547 369.828ZM677.991 369.828C677.991 370.836 678.093 371.685 678.299 372.376C678.523 373.048 678.868 373.561 679.335 373.916C679.801 374.252 680.408 374.42 681.155 374.42C681.901 374.42 682.499 374.252 682.947 373.916C683.413 373.561 683.749 373.048 683.955 372.376C684.179 371.685 684.291 370.836 684.291 369.828C684.291 368.82 684.179 367.98 683.955 367.308C683.749 366.636 683.413 366.132 682.947 365.796C682.48 365.46 681.873 365.292 681.127 365.292C680.025 365.292 679.223 365.675 678.719 366.44C678.233 367.187 677.991 368.316 677.991 369.828ZM706.94 357.508C708.713 357.508 710.197 357.676 711.392 358.012C712.605 358.329 713.511 358.861 714.108 359.608C714.724 360.336 715.032 361.325 715.032 362.576C715.032 363.323 714.911 364.004 714.668 364.62C714.425 365.236 714.071 365.74 713.604 366.132C713.156 366.524 712.605 366.776 711.952 366.888V367.028C712.624 367.159 713.231 367.392 713.772 367.728C714.313 368.064 714.743 368.549 715.06 369.184C715.377 369.819 715.536 370.659 715.536 371.704C715.536 372.917 715.237 373.963 714.64 374.84C714.061 375.699 713.221 376.361 712.12 376.828C711.019 377.276 709.712 377.5 708.2 377.5H700.724V357.508H706.94ZM707.416 365.432C708.648 365.432 709.497 365.236 709.964 364.844C710.449 364.452 710.692 363.883 710.692 363.136C710.692 362.371 710.412 361.82 709.852 361.484C709.292 361.148 708.405 360.98 707.192 360.98H704.952V365.432H707.416ZM704.952 368.792V374H707.724C708.993 374 709.88 373.757 710.384 373.272C710.888 372.768 711.14 372.105 711.14 371.284C711.14 370.78 711.028 370.341 710.804 369.968C710.599 369.595 710.235 369.305 709.712 369.1C709.189 368.895 708.48 368.792 707.584 368.792H704.952ZM733.648 369.828C733.648 371.097 733.471 372.227 733.116 373.216C732.78 374.205 732.286 375.045 731.632 375.736C730.998 376.408 730.223 376.921 729.308 377.276C728.394 377.612 727.358 377.78 726.2 377.78C725.136 377.78 724.147 377.612 723.232 377.276C722.336 376.921 721.562 376.408 720.908 375.736C720.255 375.045 719.742 374.205 719.368 373.216C719.014 372.227 718.836 371.097 718.836 369.828C718.836 368.129 719.135 366.701 719.732 365.544C720.33 364.368 721.188 363.472 722.308 362.856C723.428 362.24 724.754 361.932 726.284 361.932C727.722 361.932 728.991 362.24 730.092 362.856C731.194 363.472 732.062 364.368 732.696 365.544C733.331 366.701 733.648 368.129 733.648 369.828ZM723.092 369.828C723.092 370.836 723.195 371.685 723.4 372.376C723.624 373.048 723.97 373.561 724.436 373.916C724.903 374.252 725.51 374.42 726.256 374.42C727.003 374.42 727.6 374.252 728.048 373.916C728.515 373.561 728.851 373.048 729.056 372.376C729.28 371.685 729.392 370.836 729.392 369.828C729.392 368.82 729.28 367.98 729.056 367.308C728.851 366.636 728.515 366.132 728.048 365.796C727.582 365.46 726.975 365.292 726.228 365.292C725.127 365.292 724.324 365.675 723.82 366.44C723.335 367.187 723.092 368.316 723.092 369.828ZM751.544 369.828C751.544 371.097 751.367 372.227 751.012 373.216C750.676 374.205 750.182 375.045 749.528 375.736C748.894 376.408 748.119 376.921 747.204 377.276C746.29 377.612 745.254 377.78 744.096 377.78C743.032 377.78 742.043 377.612 741.128 377.276C740.232 376.921 739.458 376.408 738.804 375.736C738.151 375.045 737.638 374.205 737.264 373.216C736.91 372.227 736.732 371.097 736.732 369.828C736.732 368.129 737.031 366.701 737.628 365.544C738.226 364.368 739.084 363.472 740.204 362.856C741.324 362.24 742.65 361.932 744.18 361.932C745.618 361.932 746.887 362.24 747.988 362.856C749.09 363.472 749.958 364.368 750.592 365.544C751.227 366.701 751.544 368.129 751.544 369.828ZM740.988 369.828C740.988 370.836 741.091 371.685 741.296 372.376C741.52 373.048 741.866 373.561 742.332 373.916C742.799 374.252 743.406 374.42 744.152 374.42C744.899 374.42 745.496 374.252 745.944 373.916C746.411 373.561 746.747 373.048 746.952 372.376C747.176 371.685 747.288 370.836 747.288 369.828C747.288 368.82 747.176 367.98 746.952 367.308C746.747 366.636 746.411 366.132 745.944 365.796C745.478 365.46 744.871 365.292 744.124 365.292C743.023 365.292 742.22 365.675 741.716 366.44C741.231 367.187 740.988 368.316 740.988 369.828ZM766.22 372.964C766.22 373.991 765.978 374.868 765.492 375.596C765.007 376.305 764.279 376.847 763.308 377.22C762.338 377.593 761.134 377.78 759.696 377.78C758.632 377.78 757.718 377.705 756.952 377.556C756.187 377.425 755.422 377.201 754.656 376.884V373.44C755.478 373.813 756.364 374.121 757.316 374.364C758.268 374.607 759.108 374.728 759.836 374.728C760.658 374.728 761.236 374.607 761.572 374.364C761.927 374.121 762.104 373.804 762.104 373.412C762.104 373.151 762.03 372.917 761.88 372.712C761.75 372.507 761.451 372.273 760.984 372.012C760.518 371.751 759.79 371.415 758.8 371.004C757.848 370.593 757.064 370.192 756.448 369.8C755.832 369.389 755.375 368.904 755.076 368.344C754.778 367.765 754.628 367.047 754.628 366.188C754.628 364.769 755.179 363.705 756.28 362.996C757.382 362.287 758.847 361.932 760.676 361.932C761.628 361.932 762.534 362.025 763.392 362.212C764.251 362.399 765.138 362.707 766.052 363.136L764.792 366.132C764.288 365.908 763.803 365.712 763.336 365.544C762.87 365.376 762.412 365.245 761.964 365.152C761.535 365.059 761.087 365.012 760.62 365.012C760.004 365.012 759.538 365.096 759.22 365.264C758.922 365.432 758.772 365.684 758.772 366.02C758.772 366.263 758.847 366.487 758.996 366.692C759.164 366.879 759.472 367.084 759.92 367.308C760.387 367.532 761.068 367.831 761.964 368.204C762.842 368.559 763.598 368.932 764.232 369.324C764.867 369.697 765.352 370.173 765.688 370.752C766.043 371.312 766.22 372.049 766.22 372.964ZM776.47 374.448C776.937 374.448 777.385 374.401 777.814 374.308C778.244 374.215 778.673 374.103 779.102 373.972V377.08C778.654 377.267 778.094 377.425 777.422 377.556C776.769 377.705 776.05 377.78 775.266 377.78C774.352 377.78 773.53 377.631 772.802 377.332C772.093 377.033 771.524 376.52 771.094 375.792C770.684 375.045 770.478 374.019 770.478 372.712V365.348H768.49V363.584L770.786 362.184L771.99 358.964H774.65V362.212H778.934V365.348H774.65V372.712C774.65 373.291 774.818 373.729 775.154 374.028C775.49 374.308 775.929 374.448 776.47 374.448ZM789.031 361.932C790.45 361.932 791.663 362.203 792.671 362.744C793.698 363.285 794.491 364.069 795.051 365.096C795.611 366.123 795.891 367.383 795.891 368.876V370.892H786.035C786.072 372.068 786.418 372.992 787.071 373.664C787.743 374.336 788.667 374.672 789.843 374.672C790.832 374.672 791.728 374.579 792.531 374.392C793.334 374.187 794.164 373.879 795.023 373.468V376.688C794.276 377.061 793.483 377.332 792.643 377.5C791.822 377.687 790.823 377.78 789.647 377.78C788.116 377.78 786.763 377.5 785.587 376.94C784.411 376.361 783.487 375.493 782.815 374.336C782.143 373.179 781.807 371.723 781.807 369.968C781.807 368.176 782.106 366.692 782.703 365.516C783.319 364.321 784.168 363.425 785.251 362.828C786.334 362.231 787.594 361.932 789.031 361.932ZM789.059 364.9C788.256 364.9 787.584 365.161 787.043 365.684C786.52 366.207 786.212 367.019 786.119 368.12H791.971C791.971 367.504 791.859 366.953 791.635 366.468C791.43 365.983 791.112 365.6 790.683 365.32C790.254 365.04 789.712 364.9 789.059 364.9ZM808.374 361.932C808.579 361.932 808.822 361.941 809.102 361.96C809.382 361.979 809.606 362.007 809.774 362.044L809.466 365.964C809.335 365.927 809.139 365.899 808.878 365.88C808.635 365.843 808.421 365.824 808.234 365.824C807.693 365.824 807.17 365.899 806.666 366.048C806.162 366.179 805.705 366.393 805.294 366.692C804.902 366.991 804.585 367.392 804.342 367.896C804.118 368.381 804.006 368.988 804.006 369.716V377.5H799.834V362.212H802.998L803.614 364.788H803.81C804.109 364.265 804.482 363.789 804.93 363.36C805.378 362.931 805.891 362.585 806.47 362.324C807.067 362.063 807.702 361.932 808.374 361.932Z" fill="#4C3082"/>
<circle cx="273.653" cy="256.5" r="8" fill="white"/>
<circle cx="297.653" cy="256.5" r="8" fill="white"/>
<circle cx="321.653" cy="256.5" r="8" fill="white"/>
<path d="M355.884 409.458C370.445 402.372 385.494 399.767 401.241 400.674C419.454 401.722 435.634 408.138 449.472 419.821C467.282 434.857 477.853 454.243 479.739 477.48C481.487 499.017 476.225 519.002 462.776 536.481C432.126 576.313 375.992 581.706 337.831 548.038C315.89 528.682 306.894 503.676 310.383 475.018C313.945 445.767 329.317 423.71 355.884 409.458ZM367.606 500.695C358.367 504.947 351.258 511.4 347.028 520.767C344.059 527.341 345.254 532.796 351.05 536.969C354.663 539.57 358.567 541.933 362.649 543.685C378.387 550.439 394.901 551.329 411.517 548.478C422.697 546.559 433.493 543.098 441.813 534.539C444.94 531.322 445.796 527.869 444.197 523.623C441.551 516.593 437.548 510.576 431.304 506.324C411.418 492.783 390.331 491.567 367.606 500.695ZM369.11 471.947C375.064 483.268 384.476 488.533 397.192 487.746C408.013 487.077 415.992 481.966 420.848 472.136C427.041 459.601 423.941 446.092 412.697 436.896C402.162 428.28 387.387 428.738 375.538 438.048C366.755 444.95 363.681 460.075 369.11 471.947Z" fill="#4C3082" fill-opacity="0.4"/>
<path d="M367.969 500.583C390.332 491.568 411.418 492.783 431.305 506.325C437.548 510.576 441.551 516.593 444.198 523.623C445.796 527.869 444.941 531.322 441.813 534.54C433.493 543.098 422.697 546.559 411.518 548.478C394.902 551.329 378.388 550.439 362.649 543.685C358.568 541.933 354.663 539.57 351.051 536.969C345.255 532.796 344.059 527.341 347.028 520.768C351.259 511.4 358.368 504.947 367.969 500.583Z" fill="#FEFEFE"/>
<path d="M368.95 471.599C363.681 460.076 366.754 444.95 375.537 438.049C387.386 428.738 402.161 428.28 412.696 436.896C423.941 446.093 427.04 459.601 420.848 472.137C415.992 481.967 408.013 487.077 397.192 487.747C384.476 488.533 375.064 483.269 368.95 471.599Z" fill="#FEFEFE"/>
<path d="M122.107 727.852C122.08 701.696 122.132 675.968 122.176 650.24C122.196 638.301 122.202 626.362 122.637 613.959C131.283 618.047 140.288 618.811 149.434 619.049C162.666 619.394 175.895 619.863 189.401 620.6C191.641 621.086 193.605 621.376 195.571 621.395C202.291 621.46 202.711 621.463 202.089 628.242C200.655 643.85 199.22 659.482 196.969 674.986C193.439 699.3 189.235 723.516 185.25 748.143C183.17 759.809 181.156 771.106 178.917 782.712C178.232 785.114 177.93 787.257 177.292 789.295C170.059 812.393 168.493 836.326 167.382 860.233C166.263 884.324 166.14 908.461 165.429 932.573C165.389 933.926 163.967 935.238 162.754 936.535C152.39 936.711 142.461 936.92 132.531 937.13C131.42 935.99 129.487 934.96 129.317 933.694C124.06 894.463 118.643 855.216 119.372 815.508C119.557 805.426 122.047 795.399 122.452 785.306C123.158 767.704 123.094 750.071 123.26 732.449C123.273 731.063 122.56 729.669 122.107 727.852Z" fill="#0F1640"/>
<path d="M185.316 747.773C189.235 723.516 193.439 699.3 196.969 674.986C199.22 659.482 200.655 643.85 202.088 628.242C202.711 621.463 202.291 621.46 195.571 621.395C193.605 621.376 191.641 621.086 189.633 620.232C200.985 619.435 212.46 619.819 222.879 613.848C223.174 613.679 224.274 614.913 224.998 615.493C228.203 634.866 231.426 654.236 234.608 673.613C239.76 704.987 244.875 736.367 250.025 767.742C252.512 782.888 248.892 797.569 246.714 812.364C245.477 820.763 244.287 829.168 243.135 837.994C241.225 853.586 238.846 868.715 237.401 883.933C235.875 900.003 235.257 916.159 234.174 932.272C234.105 933.299 233.453 934.286 232.31 935.473C222.05 940.035 212.201 939.022 201.945 937.39C201.044 935.931 200.232 934.671 200.037 933.321C195.367 901.074 192.349 868.684 193.283 836.073C193.672 822.503 195.238 808.967 196.292 794.95C196.511 778.005 191.09 762.848 185.316 747.773Z" fill="#070D2E"/>
<path d="M232.318 937.994C233.804 938.577 235.967 938.721 236.674 939.811C244.287 951.532 254.875 958.235 268.702 960.447C274.233 961.331 280.578 961.893 282.881 969.453C281.861 975.218 278.115 976.449 273.612 976.471C259.163 976.543 244.715 976.611 230.266 976.617C197.709 976.632 165.152 976.611 132.594 976.589C131.171 976.588 129.747 976.428 128.388 976.346C128.209 974.027 128.069 972.209 127.929 970.391C128.694 962.869 129.459 955.346 130.69 947.422C132.639 947.717 134.107 948.451 135.609 949.103C144.418 952.931 151.469 950.947 157.318 943.377C158.99 941.212 161.377 939.599 163.796 937.797C165.461 939.273 166.92 940.572 168.048 942.113C175.397 952.154 184.938 958.369 197.056 959.737C198.507 954.871 199.798 950.538 201.32 946.483C212.001 953.544 220.187 952.199 227.802 942.564C229.121 940.894 230.803 939.51 232.318 937.994Z" fill="#070D2E"/>
<path d="M127.476 970.396C128.069 972.211 128.209 974.028 128.388 976.348C129.747 976.43 131.171 976.589 132.594 976.59C165.152 976.613 197.709 976.633 230.266 976.619C244.715 976.613 259.163 976.544 273.612 976.473C278.115 976.451 281.861 975.22 283.032 969.77C324.454 970.075 365.788 970.423 406.821 975.681C406.894 976.457 406.967 977.232 407.039 978.008C403.996 978.8 400.995 979.929 397.9 980.316C390.843 981.198 383.752 981.895 376.654 982.337C368.04 982.873 359.407 983.226 350.778 983.381C327.155 983.808 303.53 984.157 279.904 984.414C244.613 984.797 209.322 985.229 174.03 985.332C156.906 985.381 139.775 984.875 122.655 984.354C107.563 983.896 92.4692 983.282 77.4026 982.323C68.169 981.734 58.9805 980.405 49.7843 979.303C48.377 979.134 47.0382 978.394 45.6533 977.09C72.4549 970.833 99.8308 971.64 127.476 970.396Z" fill="#E4E6F2"/>
<path d="M163.436 937.734C161.377 939.6 158.991 941.214 157.318 943.379C151.469 950.948 144.418 952.933 135.609 949.105C134.107 948.452 132.639 947.719 130.784 947.011C131.09 943.999 131.767 940.998 132.488 937.564C142.46 936.921 152.39 936.711 162.803 936.732C163.47 937.194 163.519 937.451 163.436 937.734Z" fill="#E4A271"/>
<path d="M232.299 937.602C230.803 939.513 229.121 940.897 227.801 942.567C220.187 952.202 212 953.546 201.333 946.094C201.518 942.8 201.92 940.174 202.322 937.548C212.201 939.023 222.049 940.037 231.931 935.641C232.303 936.153 232.292 936.68 232.299 937.602Z" fill="#E4A271"/>
<path d="M103.573 501.632C99.3124 501.027 97.7147 498.618 98.1408 494.344C99.8273 477.429 101.262 460.488 103.014 443.581C104.529 428.964 114.232 420.512 126.162 413.968C129.911 411.911 133.859 410.216 138.443 408.412C146.82 411.547 154.303 415.182 162.172 417.519C168.15 419.294 174.619 419.417 180.869 420.275C188.28 420.882 192.508 426.776 197.853 430.705C207.185 437.565 209.912 448.28 213.007 458.6C217.091 472.215 220.623 485.999 224.89 499.554C226.23 503.809 226.311 506.815 221.763 509.373C218.235 510.497 215.207 511.417 212.163 511.933C210.17 500.018 208.193 488.508 206.217 476.998C205.761 497.022 207.348 516.828 210.728 536.504C201.702 535.841 193.113 535.32 184.58 534.321C172.096 532.859 159.652 531.054 147.142 529.008C144.525 522.343 144.573 516.159 146.898 509.709C151.897 495.836 152.785 481.694 148.439 466.053C147.928 471.144 147.66 474.928 147.151 478.679C146.083 486.541 144.956 494.396 143.708 502.231C143.33 504.605 142.428 506.852 138.754 506.374C126.409 507.018 114.774 505.919 103.573 501.632Z" fill="#FEFEFE"/>
<path d="M225.3 615.265C224.274 614.913 223.174 613.678 222.879 613.848C212.459 619.819 200.985 619.435 189.357 619.911C175.895 619.863 162.666 619.394 149.434 619.049C140.287 618.811 131.283 618.047 122.7 613.498C119.602 611.121 118.691 608.533 118.978 604.556C119.847 592.521 119.842 580.422 120.589 567.893C131.622 570.662 142.486 569.803 153.063 568.079C166.763 565.846 180.291 562.472 193.802 559.213C197.115 558.414 200.076 556.154 203.589 554.49C208.459 556.287 212.938 558.159 216.943 560.135C211.203 560.239 205.936 560.239 200.507 560.239C200.507 562.536 200.507 564.233 200.507 566.603C207.637 566.603 214.401 566.603 221.164 566.603C222.706 574.975 224.209 583.354 225.809 591.715C226.457 595.098 226.885 598.618 228.178 601.761C230.309 606.942 226.074 610.558 225.3 615.265Z" fill="#FEFEFE"/>
<path d="M221.628 566.53C214.4 566.604 207.636 566.604 200.507 566.604C200.507 564.234 200.507 562.537 200.507 560.24C205.935 560.24 211.203 560.24 217.379 560.194C231.959 560.264 245.631 560.404 259.302 560.487C269.614 560.549 269.614 560.517 272.906 550.803C279.632 535.785 286.362 520.769 293.082 505.748C294.577 502.407 296.426 499.162 297.426 495.675C299.071 489.935 302.457 487.54 308.993 488.555C309.843 488.457 310.012 488.422 310.634 488.498C315.446 488.575 319.804 488.542 324.596 488.628C336.172 488.94 347.315 489.138 358.458 489.323C363.683 489.409 364.31 490.417 362.222 495.256C352.48 517.84 342.784 540.443 332.955 562.988C332.313 564.46 330.701 565.508 329.197 566.632C328.949 565.187 329.057 563.865 329.135 562.542C329.31 559.602 329.47 556.662 329.718 552.282C325.812 554.88 322.833 555.974 321.216 558.102C316.15 564.773 309.362 566.604 301.527 566.581C285.922 566.535 270.317 566.621 254.712 566.652C243.839 566.587 232.966 566.521 221.628 566.53Z" fill="#4C3082"/>
<path d="M272.469 550.652C269.615 560.517 269.615 560.55 259.302 560.487C245.631 560.404 231.96 560.264 217.852 560.091C212.938 558.161 208.459 556.288 203.165 554.438C190.934 556.312 179.532 558.253 168.099 559.993C152.268 562.402 136.463 565.414 120.319 563.121C111.367 561.009 108.362 554.235 107.517 546.162C105.994 531.623 104.781 517.051 103.506 502.062C114.774 505.92 126.409 507.019 138.765 506.826C138.599 514.468 137.95 521.642 137.248 529.397C140.976 529.397 144.083 529.397 147.19 529.397C159.652 531.055 172.096 532.86 184.581 534.322C193.113 535.322 201.702 535.843 211.121 536.549C214.459 536.765 214.928 535.843 214.563 533.337C213.548 526.37 212.945 519.342 212.179 512.339C215.207 511.419 218.236 510.499 221.604 509.723C223.643 517.142 225.2 524.457 227.182 531.656C227.512 532.853 229.695 534.345 231.017 534.34C244.233 534.29 255.176 539.222 264.63 548.318C266.275 549.9 269.524 549.816 272.469 550.652Z" fill="#E4A271"/>
<path d="M147.08 383.428C145.956 382.415 144.395 381.615 143.779 380.354C138.563 369.679 134.602 358.55 134.306 346.554C133.702 322.059 158.109 304.921 180.826 313.938C188.081 316.818 195.054 319.902 203.033 320.808C211.171 321.732 216.509 328.723 216.6 336.331C216.66 341.354 214.392 344.883 209.421 346.763C205.482 345.491 202.064 344.187 198.526 343.54C192.647 342.465 190.039 344.394 188.237 350.102C187.848 351.333 186.834 352.968 185.774 353.28C181.838 354.436 180.218 356.947 179.636 360.838C179.464 361.986 177.506 363.731 176.453 363.672C175.039 363.592 173.452 362.243 172.426 361.028C171.647 360.105 172.013 358.143 171.19 357.343C169.459 355.661 167.113 353.145 165.333 353.376C163.382 353.631 161.059 356.317 160.237 358.457C159.422 360.579 159.655 363.586 160.519 365.774C162.563 370.96 160.292 374.696 156.812 377.667C153.987 380.079 150.354 381.544 147.08 383.428Z" fill="#040304"/>
<path d="M147.005 383.801C150.354 381.545 153.986 380.08 156.811 377.669C160.292 374.698 162.563 370.961 160.518 365.776C159.655 363.587 159.422 360.581 160.237 358.459C161.059 356.318 163.381 353.632 165.332 353.378C167.112 353.146 169.459 355.662 171.189 357.344C172.013 358.144 171.646 360.106 172.425 361.03C173.451 362.245 175.038 363.594 176.452 363.674C177.505 363.733 179.464 361.988 179.635 360.84C180.217 356.949 181.837 354.438 185.774 353.281C186.834 352.97 187.848 351.335 188.236 350.104C190.038 344.396 192.646 342.467 198.526 343.542C202.064 344.189 205.481 345.493 209.101 346.843C208.289 352.537 206.795 357.865 206.544 363.251C206.351 367.405 207.404 371.716 208.493 375.8C209.344 378.994 209.546 381.205 205.807 382.408C204.765 382.743 203.686 383.975 203.264 385.048C201.633 389.197 200.15 393.413 198.818 397.668C196.793 404.143 194.021 405.592 187.685 403.179C186.297 402.651 184.959 401.993 183.244 400.817C176.636 396.121 170.383 392.001 163.897 387.729C166.143 397.305 169.684 406.065 178.876 411.407C179.544 414.122 180.212 416.837 180.874 419.914C174.618 419.418 168.15 419.296 162.172 417.521C154.303 415.184 146.82 411.548 138.839 408.371C141.314 400.238 144.122 392.205 147.005 383.801Z" fill="#E3A475"/>
<path d="M309.973 574.995C309.973 574.995 309.589 575.038 309.409 575.102C307.441 575.495 305.608 575.668 303.875 576.179C297.772 577.979 291.945 577.499 285.839 575.541C275.753 572.307 265.428 569.819 254.958 566.834C270.317 566.621 285.922 566.535 301.527 566.581C309.362 566.604 316.15 564.772 321.216 558.102C322.833 555.973 325.812 554.88 329.718 552.281C329.47 556.661 329.31 559.602 329.135 562.541C329.056 563.865 328.949 565.187 328.99 566.783C327.476 568.2 325.828 569.344 323.811 570.557C318.953 572.082 314.463 573.539 309.973 574.995Z" fill="#E4A271"/>
<path d="M120.274 563.55C136.463 565.412 152.268 562.4 168.099 559.991C179.532 558.251 190.934 556.31 202.774 554.512C200.076 556.154 197.115 558.413 193.802 559.212C180.291 562.471 166.763 565.846 153.063 568.079C142.486 569.802 131.622 570.661 120.589 567.423C120.195 566.266 120.212 565.123 120.274 563.55Z" fill="#E4E6F2"/>
<path d="M178.958 410.992C169.684 406.063 166.143 397.302 163.897 387.727C170.383 391.999 176.636 396.118 182.989 400.596C178.62 402.851 179.702 407.081 178.958 410.992Z" fill="#E4A271"/>
<path d="M201.945 937.39C201.92 940.173 201.518 942.798 201.103 945.816C199.798 950.54 198.506 954.873 197.055 959.739C184.937 958.37 175.396 952.155 168.047 942.114C166.919 940.573 165.461 939.274 163.795 937.798C163.519 937.451 163.469 937.194 163.237 936.766C163.966 935.238 165.388 933.926 165.428 932.573C166.139 908.461 166.262 884.324 167.381 860.233C168.492 836.326 170.058 812.393 177.291 789.295C177.929 787.257 178.232 785.114 179.186 782.92C183.527 789.235 188.971 793.546 196.268 795.416C195.237 808.967 193.671 822.503 193.283 836.073C192.348 868.684 195.367 901.074 200.036 933.321C200.232 934.671 201.043 935.931 201.945 937.39Z" fill="#FAFBFE"/>
<path d="M196.292 794.95C188.971 793.546 183.527 789.235 179.412 782.612C181.155 771.107 183.169 759.809 185.249 748.143C191.09 762.848 196.511 778.005 196.292 794.95Z" fill="#F1F3FC"/>
<path d="M147.142 529.008C144.083 529.395 140.975 529.395 137.248 529.395C137.95 521.64 138.598 514.467 139.236 506.843C142.428 506.852 143.33 504.605 143.708 502.231C144.956 494.396 146.083 486.54 147.151 478.678C147.66 474.928 147.928 471.144 148.439 466.053C152.785 481.694 151.897 495.836 146.898 509.709C144.573 516.159 144.525 522.343 147.142 529.008Z" fill="#E4E6F2"/>
<path d="M212.163 511.933C212.945 519.341 213.548 526.369 214.563 533.336C214.928 535.842 214.46 536.764 211.583 536.476C207.348 516.829 205.762 497.023 206.217 476.998C208.194 488.508 210.171 500.018 212.163 511.933Z" fill="#E4E6F2"/>
<rect x="278.653" y="107.5" width="88" height="88" rx="16" fill="#EAE6F0"/>
<path d="M343.653 134H301.653C301.189 134 300.744 134.184 300.416 134.513C300.088 134.841 299.903 135.286 299.903 135.75V165.5C299.903 166.428 300.272 167.318 300.928 167.975C301.585 168.631 302.475 169 303.403 169H341.903C342.832 169 343.722 168.631 344.378 167.975C345.035 167.318 345.403 166.428 345.403 165.5V135.75C345.403 135.286 345.219 134.841 344.891 134.513C344.563 134.184 344.117 134 343.653 134ZM316.246 151.5L303.403 163.271V139.729L316.246 151.5ZM318.836 153.873L321.461 156.291C321.784 156.587 322.206 156.751 322.645 156.751C323.083 156.751 323.505 156.587 323.828 156.291L326.453 153.873L339.141 165.5H306.153L318.836 153.873ZM329.061 151.5L341.903 139.727V163.273L329.061 151.5Z" fill="#B7ACCD"/>
<rect x="947.653" y="538.5" width="88" height="88" rx="16" fill="#EAE6F0"/>
<path d="M1015.7 577.953C1015.65 577.706 1015.55 577.473 1015.41 577.269C1015.26 577.066 1015.07 576.896 1014.85 576.772L1008.33 573.053L1008.3 565.698C1008.3 565.445 1008.24 565.195 1008.14 564.965C1008.03 564.736 1007.87 564.532 1007.68 564.368C1005.31 562.366 1002.59 560.832 999.649 559.847C999.417 559.769 999.172 559.74 998.928 559.762C998.685 559.784 998.449 559.857 998.235 559.976L991.653 563.655L985.064 559.969C984.851 559.85 984.615 559.776 984.371 559.754C984.127 559.731 983.881 559.76 983.649 559.838C980.711 560.829 977.988 562.37 975.625 564.377C975.432 564.541 975.277 564.744 975.17 564.973C975.063 565.202 975.007 565.452 975.006 565.705L974.974 573.066L968.448 576.785C968.23 576.909 968.041 577.079 967.894 577.283C967.747 577.486 967.646 577.719 967.597 577.966C967 580.967 967 584.056 967.597 587.057C967.646 587.304 967.747 587.537 967.894 587.74C968.041 587.944 968.23 588.114 968.448 588.238L974.974 591.957L975 599.314C975.001 599.567 975.056 599.817 975.163 600.047C975.27 600.276 975.426 600.48 975.619 600.644C977.986 602.646 980.712 604.18 983.651 605.165C983.883 605.244 984.128 605.273 984.372 605.25C984.615 605.228 984.851 605.155 985.064 605.036L991.653 601.346L998.242 605.032C998.503 605.177 998.797 605.252 999.095 605.251C999.286 605.251 999.476 605.22 999.657 605.159C1002.59 604.168 1005.32 602.629 1007.68 600.624C1007.87 600.461 1008.03 600.257 1008.14 600.028C1008.24 599.799 1008.3 599.549 1008.3 599.296L1008.33 591.935L1014.86 588.217C1015.08 588.092 1015.27 587.922 1015.41 587.719C1015.56 587.515 1015.66 587.282 1015.71 587.035C1016.3 584.037 1016.3 580.951 1015.7 577.953ZM991.653 591.251C989.923 591.251 988.231 590.737 986.792 589.776C985.353 588.815 984.232 587.448 983.569 585.849C982.907 584.25 982.734 582.491 983.071 580.794C983.409 579.096 984.242 577.537 985.466 576.313C986.69 575.09 988.249 574.256 989.946 573.919C991.644 573.581 993.403 573.754 995.002 574.417C996.601 575.079 997.967 576.2 998.929 577.639C999.89 579.078 1000.4 580.77 1000.4 582.501C1000.4 584.821 999.481 587.047 997.84 588.688C996.199 590.329 993.974 591.251 991.653 591.251Z" fill="#B7ACCD"/>
<rect x="718.653" y="107.5" width="88" height="88" rx="16" fill="#EAE6F0"/>
<path d="M772.278 149.75C772.278 151.654 771.714 153.515 770.656 155.097C769.599 156.68 768.095 157.914 766.337 158.642C764.578 159.371 762.643 159.561 760.776 159.19C758.909 158.819 757.194 157.902 755.847 156.556C754.501 155.21 753.585 153.495 753.213 151.628C752.842 149.761 753.032 147.825 753.761 146.067C754.489 144.308 755.723 142.805 757.306 141.747C758.889 140.689 760.75 140.125 762.653 140.125C765.205 140.128 767.652 141.143 769.456 142.947C771.26 144.752 772.275 147.198 772.278 149.75ZM785.403 151.5C785.403 156 784.069 160.398 781.569 164.139C779.069 167.88 775.516 170.796 771.359 172.518C767.202 174.24 762.628 174.691 758.215 173.813C753.802 172.935 749.748 170.768 746.567 167.587C743.385 164.405 741.218 160.351 740.34 155.938C739.463 151.525 739.913 146.951 741.635 142.794C743.357 138.637 746.273 135.084 750.014 132.584C753.755 130.084 758.154 128.75 762.653 128.75C768.685 128.756 774.468 131.155 778.733 135.42C782.998 139.685 785.397 145.468 785.403 151.5ZM781.903 151.5C781.901 148.909 781.375 146.345 780.359 143.962C779.342 141.578 777.856 139.425 775.988 137.629C774.12 135.833 771.909 134.433 769.488 133.511C767.066 132.59 764.483 132.166 761.894 132.265C751.591 132.663 743.375 141.245 743.403 151.555C743.413 156.248 745.144 160.775 748.268 164.277C749.541 162.432 751.157 160.849 753.028 159.616C753.188 159.51 753.378 159.46 753.568 159.473C753.759 159.485 753.941 159.56 754.085 159.686C756.463 161.743 759.502 162.875 762.647 162.875C765.791 162.875 768.83 161.743 771.209 159.686C771.353 159.56 771.534 159.485 771.725 159.473C771.916 159.46 772.106 159.51 772.265 159.616C774.139 160.848 775.758 162.431 777.032 164.277C780.171 160.762 781.906 156.213 781.903 151.5Z" fill="#B7ACCD"/>
</svg>
