<svg width="216" height="145" viewBox="0 0 216 145" fill="none" xmlns="http://www.w3.org/2000/svg" shape-rendering="geometricPrecision">
<g filter="url(#filter0_d_15152_383843)">
<circle cx="94.915" cy="48.022" r="45.03" stroke="#908F93" stroke-width="2" fill="none"/>
</g>
<circle cx="94.915" cy="48.022" r="38.62" stroke="#908F93" stroke-width="2" fill="none"/>
<circle cx="25.3119" cy="25.3119" r="25.3119" transform="matrix(-0.707107 -0.707107 -0.707107 0.707107 130.713 48.0215)" fill="url(#paint0_radial_15152_383843)" fill-opacity="0.5"/>
<path d="M121.201 58.0386C125.019 48.0021 122.886 36.2197 114.801 28.1349C106.716 20.05 94.9334 17.9164 84.897 21.7341" stroke="#8667D5" stroke-linecap="round"/>
<path d="M104.556 74.4512C94.6021 78.0767 83.01 75.8969 75.0249 67.9118C67.0398 59.9267 64.86 48.3347 68.4856 38.3803" stroke="#8667D5" stroke-linecap="round"/>
<path d="M58.7952 90.941L66.4412 83.2949" stroke="#908F93" stroke-width="2" stroke-linecap="round"/>
<path d="M52.0002 84.146L59.6463 76.5" stroke="#908F93" stroke-width="2" stroke-linecap="round"/>
<rect x="-1.41421" width="15.8975" height="69.5899" rx="7.94874" transform="matrix(-0.707107 -0.707107 -0.707107 0.707107 60.8629 91.3203)" stroke="#908F93" stroke-width="2"/>
<mask id="path-9-inside-1_15152_383843" fill="white">
<path d="M103.851 40.0749C104.08 39.5936 103.462 38.9755 102.981 39.2043C100.572 40.3491 97.878 40.9901 95.0341 40.9901C92.1895 40.9901 89.4947 40.3486 87.0859 39.2033C86.6045 38.9744 85.9861 39.5927 86.215 40.0741C87.3604 42.4829 88.0019 45.1777 88.0019 48.0224C88.0019 50.8662 87.3613 53.5607 86.2167 55.9691C85.9879 56.4504 86.6059 57.0684 87.0873 56.8395C89.4957 55.6942 92.1898 55.0526 95.0341 55.0526C97.8777 55.0527 100.571 55.6934 102.979 56.8378C103.461 57.0666 104.078 56.4489 103.85 55.9676C102.705 53.5596 102.064 50.8659 102.064 48.0224C102.064 45.1779 102.706 42.4835 103.851 40.0749Z"/>
</mask>
<path d="M103.851 40.0749C104.08 39.5936 103.462 38.9755 102.981 39.2043C100.572 40.3491 97.878 40.9901 95.0341 40.9901C92.1895 40.9901 89.4947 40.3486 87.0859 39.2033C86.6045 38.9744 85.9861 39.5927 86.215 40.0741C87.3604 42.4829 88.0019 45.1777 88.0019 48.0224C88.0019 50.8662 87.3613 53.5607 86.2167 55.9691C85.9879 56.4504 86.6059 57.0684 87.0873 56.8395C89.4957 55.6942 92.1898 55.0526 95.0341 55.0526C97.8777 55.0527 100.571 55.6934 102.979 56.8378C103.461 57.0666 104.078 56.4489 103.85 55.9676C102.705 53.5596 102.064 50.8659 102.064 48.0224C102.064 45.1779 102.706 42.4835 103.851 40.0749Z" fill="#8667D5"/>
<path fill-rule="evenodd" clip-rule="evenodd" d="M95.0341 40.9901L95.0341 41.9901L95.0341 41.9901L95.0341 40.9901ZM88.0019 48.0224L89.0019 48.0224L89.0019 48.0224L88.0019 48.0224ZM95.0341 55.0526L95.0341 54.0526L95.0341 54.0526L95.0341 55.0526ZM102.064 48.0224L101.064 48.0224L101.064 48.0224L102.064 48.0224ZM86.2167 55.9691L87.1199 56.3983L86.2167 55.9691ZM87.0873 56.8395L86.6578 55.9364L87.0873 56.8395ZM87.0859 39.2033L87.5153 38.3002L87.0859 39.2033ZM86.215 40.0741L85.3119 40.5035L86.215 40.0741ZM102.981 39.2043L102.551 38.3011L102.981 39.2043ZM103.851 40.0749L102.948 39.6455L103.851 40.0749ZM102.981 39.2043L103.41 40.1074C100.87 41.3146 98.0298 41.9901 95.0341 41.9901L95.0341 40.9901L95.0341 39.9901C97.7263 39.9901 100.274 39.3836 102.551 38.3011L102.981 39.2043ZM95.0341 40.9901L95.0341 41.9901C92.0377 41.9901 89.1964 41.3141 86.6564 40.1064L87.0859 39.2033L87.5153 38.3002C89.7929 39.3832 92.3413 39.9901 95.0341 39.9901L95.0341 40.9901ZM86.215 40.0741L87.1181 39.6447C88.3259 42.1847 89.0019 45.0259 89.0019 48.0224L88.0019 48.0224L87.0019 48.0224C87.0019 45.3295 86.3949 42.7811 85.3119 40.5035L86.215 40.0741ZM88.0019 48.0224L89.0019 48.0224C89.0019 51.0179 88.3268 53.8586 87.1199 56.3983L86.2167 55.9691L85.3135 55.5398C86.3957 53.2627 87.0019 50.7146 87.0019 48.0224L88.0019 48.0224ZM87.0873 56.8395L86.6578 55.9364C89.1974 54.7288 92.0379 54.0526 95.0341 54.0526L95.0341 55.0526L95.0341 56.0526C92.3416 56.0526 89.794 56.6597 87.5167 57.7426L87.0873 56.8395ZM95.0341 55.0526L95.0341 54.0526C98.0294 54.0527 100.869 54.7278 103.409 55.9347L102.979 56.8378L102.55 57.741C100.273 56.6589 97.726 56.0527 95.0341 56.0526L95.0341 55.0526ZM103.85 55.9676L102.946 56.3969C101.74 53.8577 101.064 51.0176 101.064 48.0224L102.064 48.0224L103.064 48.0224C103.064 50.7142 103.671 53.2615 104.753 55.5384L103.85 55.9676ZM102.064 48.0224L101.064 48.0224C101.064 45.026 101.74 42.1852 102.948 39.6455L103.851 40.0749L104.754 40.5043C103.671 42.7817 103.064 45.3297 103.064 48.0224L102.064 48.0224ZM102.979 56.8378L103.409 55.9347C103.283 55.8751 103.162 55.8808 103.088 55.9013C103.021 55.9193 102.988 55.9476 102.974 55.9619C102.959 55.9762 102.931 56.0096 102.913 56.0758C102.893 56.1507 102.887 56.2715 102.946 56.3969L103.85 55.9676L104.753 55.5384C105.111 56.2919 104.756 57.0081 104.388 57.3761C104.02 57.7441 103.304 58.0991 102.55 57.741L102.979 56.8378ZM86.2167 55.9691L87.1199 56.3983C87.1795 56.2729 87.1737 56.152 87.1533 56.0772C87.1352 56.011 87.107 55.9777 87.0927 55.9635C87.0785 55.9492 87.0452 55.921 86.979 55.903C86.9041 55.8826 86.7832 55.8768 86.6578 55.9364L87.0873 56.8395L87.5167 57.7426C86.763 58.101 86.0466 57.7457 85.6786 57.3778C85.3107 57.0099 84.9553 56.2935 85.3135 55.5398L86.2167 55.9691ZM87.0859 39.2033L86.6564 40.1064C86.7819 40.166 86.9029 40.1602 86.9777 40.1398C87.0438 40.1218 87.077 40.0936 87.0912 40.0794C87.1054 40.0653 87.1336 40.032 87.1516 39.9659C87.172 39.8911 87.1778 39.7701 87.1181 39.6447L86.215 40.0741L85.3119 40.5035C84.9535 39.7496 85.3091 39.0331 85.677 38.6652C86.0448 38.2973 86.7614 37.9417 87.5153 38.3002L87.0859 39.2033ZM102.981 39.2043L102.551 38.3011C103.305 37.9428 104.021 38.2983 104.389 38.6662C104.757 39.0341 105.113 39.7506 104.754 40.5043L103.851 40.0749L102.948 39.6455C102.888 39.7709 102.894 39.8918 102.914 39.9666C102.933 40.0328 102.961 40.0661 102.975 40.0803C102.989 40.0946 103.022 40.1228 103.089 40.1408C103.163 40.1613 103.284 40.167 103.41 40.1074L102.981 39.2043Z" fill="#C8B2FF" fill-opacity="0.7" mask="url(#path-9-inside-1_15152_383843)"/>
<circle cx="1.27839" cy="1.27839" r="1.27839" transform="matrix(-0.707107 -0.707107 -0.707107 0.707107 115.707 67.0098)" fill="#8667D5"/>
<circle cx="1.27839" cy="1.27839" r="1.27839" transform="matrix(-0.707107 -0.707107 -0.707107 0.707107 77.7381 29.0391)" fill="#8667D5"/>
<g>
<rect x="173" y="44" width="38" height="48" rx="7" fill="#8667D5" fill-opacity="0.12" stroke="url(#paint1_linear_15152_383843)" stroke-width="1"/>
<circle cx="2.74287" cy="2.74287" r="2.02286" transform="matrix(-1 0 0 1 201.599 67.3125)" stroke="#A17EFD" stroke-width="1.44001"/>
<circle cx="2.74287" cy="2.74287" r="2.02286" transform="matrix(-1 0 0 1 187.887 67.3125)" stroke="#A17EFD" stroke-width="1.44001"/>
<circle cx="2.74287" cy="2.74287" r="2.02286" transform="matrix(-1 0 0 1 194.742 61.8281)" stroke="#A17EFD" stroke-width="1.44001"/>
<circle cx="2.74287" cy="2.74287" r="2.02286" transform="matrix(-1 0 0 1 194.742 53.5996)" stroke="#A17EFD" stroke-width="1.44001"/>
<path d="M196.801 67.9986L194.058 65.9414" stroke="#A17EFD" stroke-width="1.44001" stroke-linecap="round"/>
<path d="M187.199 67.9986L189.942 65.9414" stroke="#A17EFD" stroke-width="1.44001" stroke-linecap="round"/>
<path d="M192 62.0004L192 58.4004" stroke="#A17EFD" stroke-width="0.900003" stroke-linecap="round"/>
<circle cx="1.2" cy="1.2" r="0.600002" transform="matrix(-1 0 0 1 199.199 60.8008)" fill="#A17EFD" stroke="#A17EFD" stroke-width="1.2"/>
<circle cx="1.2" cy="1.2" r="0.600002" transform="matrix(-1 0 0 1 187.199 60.8008)" fill="#A17EFD" stroke="#A17EFD" stroke-width="1.2"/>
<path d="M200.4 77.5996H183.6" stroke="#A27EFE" stroke-width="2.40001" stroke-linecap="round"/>
<path d="M200.4 82.4004H185.7" stroke="white" stroke-opacity="0.5" stroke-width="2.40001" stroke-linecap="round"/>
</g>
<g>
<rect x="177.5" y="100.5" width="28" height="35" rx="5.5" fill="white" fill-opacity="0.02" stroke="white" stroke-opacity="0.4" stroke-width="1"/>
<circle cx="1.89473" cy="1.89473" r="1.38848" transform="matrix(-1 0 0 1 198.263 117.053)" stroke="#8B7A8E" stroke-width="1.0125"/>
<circle cx="1.89473" cy="1.89473" r="1.38848" transform="matrix(-1 0 0 1 188.789 117.053)" stroke="#8B7A8E" stroke-width="1.0125"/>
<circle cx="1.89473" cy="1.89473" r="1.38848" transform="matrix(-1 0 0 1 193.527 113.262)" stroke="#8B7A8E" stroke-width="1.0125"/>
<circle cx="1.89473" cy="1.89473" r="1.38848" transform="matrix(-1 0 0 1 193.527 107.578)" stroke="#8B7A8E" stroke-width="1.0125"/>
<path d="M194.949 117.527L193.054 116.105" stroke="#8B7A8E" stroke-width="1.0125" stroke-linecap="round"/>
<path d="M188.316 117.527L190.211 116.105" stroke="#8B7A8E" stroke-width="1.0125" stroke-linecap="round"/>
<path d="M191.633 113.264V111.369" stroke="#8B7A8E" stroke-width="1.0125" stroke-linecap="round"/>
<circle cx="0.562498" cy="0.562498" r="0.562498" transform="matrix(-1 0 0 1 195.717 113.5)" fill="#8B7A8E"/>
<circle cx="0.562498" cy="0.562498" r="0.562498" transform="matrix(-1 0 0 1 188.967 113.5)" fill="#8B7A8E"/>
<path d="M198.262 124.633H184.998" stroke="#8B7A8E" stroke-width="1.89473" stroke-linecap="round"/>
<path d="M198.262 128.422H186.656" stroke="#8B7A8E" stroke-width="1.89473" stroke-linecap="round"/>
</g>
<g>
<rect x="177.5" y="0.5" width="28" height="35" rx="5.5" fill="white" fill-opacity="0.02" stroke="white" stroke-opacity="0.4" stroke-width="1"/>
<circle cx="1.89473" cy="1.89473" r="1.38848" transform="matrix(-1 0 0 1 198.263 17.0527)" stroke="#8B7A8E" stroke-width="1.0125"/>
<circle cx="1.89473" cy="1.89473" r="1.38848" transform="matrix(-1 0 0 1 188.789 17.0527)" stroke="#8B7A8E" stroke-width="1.0125"/>
<circle cx="1.89473" cy="1.89473" r="1.38848" transform="matrix(-1 0 0 1 193.527 13.2617)" stroke="#8B7A8E" stroke-width="1.0125"/>
<circle cx="1.89473" cy="1.89473" r="1.38848" transform="matrix(-1 0 0 1 193.527 7.57812)" stroke="#8B7A8E" stroke-width="1.0125"/>
<path d="M194.949 17.5265L193.054 16.1055" stroke="#8B7A8E" stroke-width="1.0125" stroke-linecap="round"/>
<path d="M188.316 17.5265L190.211 16.1055" stroke="#8B7A8E" stroke-width="1.0125" stroke-linecap="round"/>
<path d="M191.633 13.2639V11.3691" stroke="#8B7A8E" stroke-width="1.0125" stroke-linecap="round"/>
<circle cx="0.562498" cy="0.562498" r="0.562498" transform="matrix(-1 0 0 1 195.717 13.5)" fill="#8B7A8E"/>
<circle cx="0.562498" cy="0.562498" r="0.562498" transform="matrix(-1 0 0 1 188.967 13.5)" fill="#8B7A8E"/>
<path d="M198.262 24.6328H184.998" stroke="#8B7A8E" stroke-width="1.89473" stroke-linecap="round"/>
<path d="M198.262 28.4219H186.656" stroke="#8B7A8E" stroke-width="1.89473" stroke-linecap="round"/>
</g>
<path d="M132.333 68C132.333 69.4728 133.527 70.6667 135 70.6667C136.473 70.6667 137.666 69.4728 137.666 68C137.666 66.5272 136.473 65.3333 135 65.3333C133.527 65.3333 132.333 66.5272 132.333 68ZM173 68.5H173.5V67.5H173V68V68.5ZM136.9 68.5H137.4V67.5H136.9V68V68.5ZM140.7 67.5H140.2V68.5H140.7V68V67.5ZM144.5 68.5H145V67.5H144.5V68V68.5ZM148.3 67.5H147.8V68.5H148.3V68V67.5ZM152.1 68.5H152.6V67.5H152.1V68V68.5ZM155.9 67.5H155.4V68.5H155.9V68V67.5ZM159.7 68.5H160.2V67.5H159.7V68V68.5ZM163.5 67.5H163V68.5H163.5V68V67.5ZM167.3 68.5H167.8V67.5H167.3V68V68.5ZM171.1 67.5H170.6V68.5H171.1V68V67.5ZM135 68V68.5H136.9V68V67.5H135V68ZM140.7 68V68.5H144.5V68V67.5H140.7V68ZM148.3 68V68.5H152.1V68V67.5H148.3V68ZM155.9 68V68.5H159.7V68V67.5H155.9V68ZM163.5 68V68.5H167.3V68V67.5H163.5V68ZM171.1 68V68.5H173V68V67.5H171.1V68Z" fill="#A27EFE"/>
<defs>
<filter id="filter0_d_15152_383843" x="44.8924" y="2" width="100.045" height="100.045" filterUnits="userSpaceOnUse" color-interpolation-filters="sRGB">
<feFlood flood-opacity="0" result="BackgroundImageFix"/>
<feColorMatrix in="SourceAlpha" type="matrix" values="0 0 0 0 0 0 0 0 0 0 0 0 0 0 0 0 0 0 127 0" result="hardAlpha"/>
<feOffset dy="4"/>
<feGaussianBlur stdDeviation="2"/>
<feComposite in2="hardAlpha" operator="out"/>
<feColorMatrix type="matrix" values="0 0 0 0 0 0 0 0 0 0 0 0 0 0 0 0 0 0 0.4 0"/>
<feBlend mode="normal" in2="BackgroundImageFix" result="effect1_dropShadow_15152_383843"/>
<feBlend mode="normal" in="SourceGraphic" in2="effect1_dropShadow_15152_383843" result="shape"/>
</filter>
<radialGradient id="paint0_radial_15152_383843" cx="0" cy="0" r="1" gradientUnits="userSpaceOnUse" gradientTransform="translate(25.3119 25.3119) rotate(90) scale(25.3119)">
<stop stop-color="#9E78FF"/>
<stop offset="1" stop-color="#9E78FF" stop-opacity="0"/>
</radialGradient>
<linearGradient id="paint1_linear_15152_383843" x1="0" y1="0" x2="0" y2="1" gradientUnits="objectBoundingBox">
<stop stop-color="#A37FFF"/>
<stop offset="1" stop-color="#5D4992"/>
</linearGradient>
</defs>
</svg>
