<svg width="44" height="44" viewBox="0 0 44 44" fill="none" xmlns="http://www.w3.org/2000/svg">
<rect width="44" height="44" fill="white"/>
<path d="M16.6757 14.3999L11.537 15.979C10.5789 16.2735 9.96655 17.1832 9.99304 18.1196V25.8804C9.99304 26.8437 10.6053 27.7275 11.537 28.022L16.6757 29.6001L18.3798 32.0356H11.3241C8.39576 32.0355 5.99988 29.6268 5.99988 26.6831V17.3169C5.99997 14.3733 8.39582 11.9645 11.3241 11.9644H18.3798L16.6757 14.3999ZM32.6757 11.9644C35.6306 11.9644 38.0264 14.3733 37.9999 17.3169V26.6831C37.9999 29.6268 35.6307 32.0356 32.6757 32.0356H25.621L27.3514 29.6001L32.4891 28.022C33.4209 27.7276 34.0331 26.8438 34.0331 25.8804V18.1196C34.0596 17.1831 33.4475 16.2733 32.4891 15.979L27.3241 14.3999L25.621 11.9644H32.6757ZM27.3514 23.1509H16.6757V20.7427H27.3514V23.1509Z" fill="#ED6B1E"/>
</svg>
