<svg width="44" height="44" viewBox="0 0 44 44" fill="none" xmlns="http://www.w3.org/2000/svg">
<rect width="44" height="44" fill="white"/>
<path d="M36.6853 12.4304C36.3675 12.2682 36.2306 12.5773 36.0448 12.7344C35.9813 12.785 35.9275 12.8509 35.8737 12.9117C35.4092 13.4284 34.8666 13.7679 34.1577 13.7273C33.1212 13.6665 32.2363 14.0061 31.4541 14.8319C31.2878 13.8135 30.7354 13.2054 29.8945 12.8154C29.4546 12.6127 29.0097 12.41 28.7016 11.9692C28.4865 11.6551 28.4278 11.3055 28.3203 10.961C28.2518 10.7533 28.1834 10.5404 27.9536 10.5049C27.7042 10.4644 27.6064 10.6822 27.5086 10.8647C27.1175 11.6095 26.966 12.4303 26.9806 13.2613C27.0148 15.1309 27.7727 16.6204 29.2784 17.6794C29.4495 17.801 29.4935 17.9225 29.4398 18.1C29.3371 18.4648 29.2148 18.8194 29.1073 19.1842C29.0388 19.4173 28.9361 19.468 28.6966 19.3666C27.8704 19.0069 27.1566 18.4749 26.5259 17.8315C25.4552 16.7522 24.4872 15.5616 23.2797 14.6293C22.9961 14.4114 22.7125 14.2088 22.4192 14.0162C21.1871 12.7698 22.5805 11.7463 22.9032 11.6248C23.2405 11.4981 23.0205 11.0623 21.9303 11.0675C20.84 11.0725 19.8427 11.4525 18.5716 11.9592C18.3858 12.0352 18.1902 12.0909 17.9898 12.1365C16.836 11.9085 15.6382 11.8577 14.3866 12.0048C12.0301 12.2783 10.1479 13.4386 8.76437 15.4197C7.10217 17.801 6.71106 20.5066 7.19019 23.3288C7.69376 26.3029 9.15062 28.7653 11.3898 30.6907C13.7121 32.6869 16.3863 33.6648 19.437 33.4773C21.29 33.3659 23.3531 33.1075 25.6802 31.0555C26.2669 31.3595 26.8829 31.481 27.9047 31.5722C28.6918 31.6482 29.4496 31.5317 30.0363 31.4051C30.9554 31.2024 30.8919 30.3157 30.5594 30.1536C27.8656 28.8464 28.4571 29.3784 27.9194 28.9477C29.2883 27.2606 31.3515 25.5074 32.1581 19.8276C32.2216 19.3767 32.1679 19.093 32.1581 18.7282C32.1532 18.5053 32.2021 18.4192 32.4466 18.3938C33.1212 18.3127 33.7763 18.1202 34.3777 17.7757C36.1231 16.7827 36.827 15.1512 36.9933 13.1954C37.0178 12.8965 36.9884 12.5873 36.6853 12.4304ZM21.4757 30.0319C18.865 27.8939 17.5988 27.1896 17.0757 27.22C16.5868 27.2504 16.6748 27.8331 16.7823 28.2131C16.8948 28.588 17.0415 28.8465 17.2467 29.1757C17.3885 29.3936 17.4864 29.7178 17.105 29.9611C16.2641 30.5032 14.8023 29.7786 14.7338 29.7432C13.0325 28.6994 11.6098 27.3212 10.6075 25.4366C9.63951 23.6226 9.07733 21.6771 8.9844 19.5997C8.95995 19.0981 9.10173 18.9207 9.58085 18.8296C10.2115 18.708 10.8618 18.6826 11.4924 18.7788C14.157 19.1842 16.4254 20.4256 18.3272 22.3914C19.4125 23.5111 20.2339 24.8488 21.0797 26.156C21.9792 27.5442 22.9472 28.8667 24.1793 29.9509C24.6144 30.3309 24.9615 30.6197 25.2939 30.8326C24.2917 30.9491 22.6197 30.9745 21.4757 30.0319ZM22.7273 21.6466C22.7273 21.4237 22.8984 21.2464 23.1136 21.2464C23.1625 21.2464 23.2065 21.2564 23.2456 21.2716C23.2994 21.292 23.3483 21.3224 23.3874 21.3679C23.4558 21.4389 23.4949 21.5401 23.4949 21.6466C23.4949 21.8695 23.3238 22.0468 23.1088 22.0468C22.8937 22.0468 22.7273 21.8696 22.7273 21.6466ZM26.614 23.724C26.3647 23.8304 26.1154 23.9215 25.8758 23.9317C25.5042 23.9519 25.0985 23.7948 24.8785 23.6023C24.5363 23.3034 24.2918 23.1363 24.1891 22.6144C24.1451 22.3914 24.1696 22.0469 24.2087 21.8493C24.2967 21.4237 24.1989 21.1501 23.9105 20.9018C23.6758 20.6991 23.3776 20.6434 23.05 20.6434C22.9278 20.6434 22.8154 20.5877 22.7322 20.5421C22.5953 20.4712 22.483 20.2938 22.5905 20.0759C22.6247 20.0051 22.791 19.8328 22.8301 19.8024C23.275 19.5389 23.7883 19.625 24.2625 19.8226C24.7026 20.0101 25.035 20.3546 25.5141 20.841C26.003 21.4287 26.091 21.591 26.3697 22.0317C26.5897 22.3762 26.7902 22.7309 26.927 23.1363C27.0101 23.3896 26.9025 23.5973 26.614 23.724Z" fill="#4D6BFE"/>
</svg>
