<svg width="44" height="44" viewBox="0 0 44 44" fill="none" xmlns="http://www.w3.org/2000/svg">
<rect width="44" height="44" fill="white"/>
<path d="M29.0836 11.2105C26.4154 11.2105 24.3297 13.2159 22.4416 15.7635C19.847 12.4667 17.6771 11.2105 15.0805 11.2105C9.78639 11.2105 5.7301 18.086 5.7301 25.3634C5.7301 29.9173 7.93778 32.7895 11.6356 32.7895C14.297 32.7895 16.2111 31.5374 19.614 25.6015C19.614 25.6015 21.0324 23.1017 22.0082 21.3798C22.3502 21.9307 22.7103 22.5244 23.0886 23.1608L24.6843 25.8396C27.7926 31.0304 29.5245 32.7895 32.6627 32.7895C36.2651 32.7895 38.2699 29.878 38.2699 25.2294C38.2699 17.6098 34.1222 11.2105 29.0836 11.2105ZM17.0191 23.9942C14.2602 28.31 13.3058 29.2773 11.7698 29.2773C10.189 29.2773 9.24953 27.8924 9.24953 25.4229C9.24953 20.1397 11.8891 14.7375 15.0357 14.7375C16.7397 14.7375 18.1636 15.7196 20.3448 18.8357C18.2737 22.0059 17.0191 23.9942 17.0191 23.9942ZM27.4315 23.4509L25.5236 20.2756C25.0073 19.4376 24.5112 18.6663 24.0351 17.9616C25.7546 15.3131 27.173 13.9934 28.8599 13.9934C32.3644 13.9934 35.168 19.1426 35.168 25.4675C35.168 27.8784 34.3768 29.2774 32.7372 29.2774C31.1658 29.2773 30.4152 28.2417 27.4315 23.4509Z" fill="url(#paint0_linear_2346_49379)"/>
<path d="M15.0805 11.2105C17.6771 11.2105 19.847 12.4667 22.4416 15.7635L24.0351 17.9616C24.5112 18.6663 25.0073 19.4376 25.5236 20.2756L27.4315 23.4509C30.4152 28.2417 31.1658 29.2773 32.7372 29.2774L32.6627 32.7895C29.5245 32.7895 27.7926 31.0304 24.6843 25.8396L23.0886 23.1608C22.7103 22.5244 22.3502 21.9307 22.0082 21.3798L20.3448 18.8357C18.1636 15.7196 16.7397 14.7375 15.0357 14.7375C11.8891 14.7375 9.24953 20.1397 9.24953 25.4229C9.24953 27.8924 10.189 29.2773 11.7698 29.2773L11.6356 32.7895C7.93778 32.7895 5.7301 29.9173 5.7301 25.3634C5.7301 18.086 9.78639 11.2105 15.0805 11.2105Z" fill="url(#paint1_linear_2346_49379)"/>
<defs>
<linearGradient id="paint0_linear_2346_49379" x1="38.2301" y1="23.4191" x2="5.7301" y2="23.4191" gradientUnits="userSpaceOnUse">
<stop stop-color="#0081FA"/>
<stop offset="0.5" stop-color="#118CFF"/>
<stop offset="1" stop-color="#0081FA"/>
</linearGradient>
<linearGradient id="paint1_linear_2346_49379" x1="19.2337" y1="11.2105" x2="19.2337" y2="28.7105" gradientUnits="userSpaceOnUse">
<stop stop-color="#0164E0"/>
<stop offset="1" stop-color="#0063DF" stop-opacity="0"/>
</linearGradient>
</defs>
</svg>
