<svg width="44" height="44" viewBox="0 0 44 44" fill="none" xmlns="http://www.w3.org/2000/svg">
<rect width="44" height="44" fill="white"/>
<path d="M37 25.7634L33.0401 18.8885L35.13 15.3747C35.2971 15.0813 35.2971 14.7187 35.13 14.4254L33.0401 10.9116C32.9341 10.7221 32.7325 10.604 32.5104 10.604H24.7902L23.0098 7.48737C22.9039 7.29793 22.7023 7.17978 22.4802 7.17978H18.3573C18.1353 7.17978 17.9336 7.29793 17.8277 7.48737L13.8678 14.3602H9.74487C9.52283 14.3602 9.32117 14.4784 9.21524 14.6678L7.12528 18.1816C6.95824 18.475 6.95824 18.8376 7.12528 19.1309L10.6615 25.5088L8.88117 28.6254C8.71414 28.9187 8.71414 29.2813 8.88117 29.5746L10.9711 33.0885C11.0771 33.2779 11.2787 33.396 11.5008 33.396H19.221L21.0014 36.5127C21.1073 36.7021 21.3089 36.8202 21.531 36.8202H25.6539C25.8759 36.8202 26.0776 36.7021 26.1835 36.5127L30.1434 29.6398H33.6797C33.9017 29.6398 34.1034 29.5217 34.2093 29.3322L36.2993 25.8184C36.4663 25.5251 36.4663 25.1625 36.2993 24.8691L37 25.7634Z" fill="url(#paint0_radial_2357_58296)"/>
<path d="M25.6538 36.8202H21.5309L19.221 33.0885H11.5007L13.8677 29.3567H17.8277L9.21521 14.8735H13.8677L18.3573 7.48737L20.4473 11.2192L18.3573 14.8735H34.303L32.213 18.3874L36.1729 25.2602H32.213L30.1434 21.6059L21.9995 36.8202H25.6538Z" fill="white"/>
<path d="M27.4342 19.8723H16.8988L21.9995 28.4848L27.4342 19.8723Z" fill="url(#paint1_radial_2357_58296)"/>
<defs>
<radialGradient id="paint0_radial_2357_58296" cx="0" cy="0" r="1" gradientUnits="userSpaceOnUse" gradientTransform="translate(21.7591 23.981) rotate(90) scale(20.3701 20.3701)">
<stop stop-color="#665CEE"/>
<stop offset="1" stop-color="#332E91"/>
</radialGradient>
<radialGradient id="paint1_radial_2357_58296" cx="0" cy="0" r="1" gradientUnits="userSpaceOnUse" gradientTransform="translate(21.7591 23.981) rotate(90) scale(20.3701 20.3701)">
<stop stop-color="#665CEE"/>
<stop offset="1" stop-color="#332E91"/>
</radialGradient>
</defs>
</svg>
